<?xml version="1.0" encoding="utf-8" standalone="no"?>
<!DOCTYPE svg PUBLIC "-//W3C//DTD SVG 1.1//EN"
  "http://www.w3.org/Graphics/SVG/1.1/DTD/svg11.dtd">
<svg xmlns:xlink="http://www.w3.org/1999/xlink" width="952.333594pt" height="650.889844pt" viewBox="0 0 952.333594 650.889844" xmlns="http://www.w3.org/2000/svg" version="1.1">
 <metadata>
  <rdf:RDF xmlns:dc="http://purl.org/dc/elements/1.1/" xmlns:cc="http://creativecommons.org/ns#" xmlns:rdf="http://www.w3.org/1999/02/22-rdf-syntax-ns#">
   <cc:Work>
    <dc:type rdf:resource="http://purl.org/dc/dcmitype/StillImage"/>
    <dc:date>2025-10-14T16:18:34.778644</dc:date>
    <dc:format>image/svg+xml</dc:format>
    <dc:creator>
     <cc:Agent>
      <dc:title>Matplotlib v3.6.3, https://matplotlib.org/</dc:title>
     </cc:Agent>
    </dc:creator>
   </cc:Work>
  </rdf:RDF>
 </metadata>
 <defs>
  <style type="text/css">*{stroke-linejoin: round; stroke-linecap: butt}</style>
 </defs>
 <g id="figure_1">
  <g id="patch_1">
   <path d="M 0 650.889844 
L 952.333594 650.889844 
L 952.333594 0 
L 0 0 
z
" style="fill: #ffffff"/>
  </g>
  <g id="axes_1">
   <g id="patch_2">
    <path d="M 108.133594 561.6 
L 945.133594 561.6 
L 945.133594 7.2 
L 108.133594 7.2 
z
" style="fill: #eaeaf2"/>
   </g>
   <g id="matplotlib.axis_1">
    <g id="xtick_1">
     <g id="line2d_1">
      <path d="M 146.179048 561.6 
L 146.179048 7.2 
" clip-path="url(#pa8a9b36267)" style="fill: none; stroke: #ffffff; stroke-linecap: round"/>
     </g>
     <g id="text_1">
      <!-- 0 -->
      <g style="fill: #262626" transform="translate(139.227876 588.994531) scale(0.25 -0.25)">
       <defs>
        <path id="ArialMT-30" d="M 266 2259 
Q 266 3072 433 3567 
Q 600 4063 929 4331 
Q 1259 4600 1759 4600 
Q 2128 4600 2406 4451 
Q 2684 4303 2865 4023 
Q 3047 3744 3150 3342 
Q 3253 2941 3253 2259 
Q 3253 1453 3087 958 
Q 2922 463 2592 192 
Q 2263 -78 1759 -78 
Q 1097 -78 719 397 
Q 266 969 266 2259 
z
M 844 2259 
Q 844 1131 1108 757 
Q 1372 384 1759 384 
Q 2147 384 2411 759 
Q 2675 1134 2675 2259 
Q 2675 3391 2411 3762 
Q 2147 4134 1753 4134 
Q 1366 4134 1134 3806 
Q 844 3388 844 2259 
z
" transform="scale(0.015625)"/>
       </defs>
       <use xlink:href="#ArialMT-30"/>
      </g>
     </g>
    </g>
    <g id="xtick_2">
     <g id="line2d_2">
      <path d="M 299.898057 561.6 
L 299.898057 7.2 
" clip-path="url(#pa8a9b36267)" style="fill: none; stroke: #ffffff; stroke-linecap: round"/>
     </g>
     <g id="text_2">
      <!-- 20 -->
      <g style="fill: #262626" transform="translate(285.995713 588.994531) scale(0.25 -0.25)">
       <defs>
        <path id="ArialMT-32" d="M 3222 541 
L 3222 0 
L 194 0 
Q 188 203 259 391 
Q 375 700 629 1000 
Q 884 1300 1366 1694 
Q 2113 2306 2375 2664 
Q 2638 3022 2638 3341 
Q 2638 3675 2398 3904 
Q 2159 4134 1775 4134 
Q 1369 4134 1125 3890 
Q 881 3647 878 3216 
L 300 3275 
Q 359 3922 746 4261 
Q 1134 4600 1788 4600 
Q 2447 4600 2831 4234 
Q 3216 3869 3216 3328 
Q 3216 3053 3103 2787 
Q 2991 2522 2730 2228 
Q 2469 1934 1863 1422 
Q 1356 997 1212 845 
Q 1069 694 975 541 
L 3222 541 
z
" transform="scale(0.015625)"/>
       </defs>
       <use xlink:href="#ArialMT-32"/>
       <use xlink:href="#ArialMT-30" x="55.615234"/>
      </g>
     </g>
    </g>
    <g id="xtick_3">
     <g id="line2d_3">
      <path d="M 453.617065 561.6 
L 453.617065 7.2 
" clip-path="url(#pa8a9b36267)" style="fill: none; stroke: #ffffff; stroke-linecap: round"/>
     </g>
     <g id="text_3">
      <!-- 40 -->
      <g style="fill: #262626" transform="translate(439.714721 588.994531) scale(0.25 -0.25)">
       <defs>
        <path id="ArialMT-34" d="M 2069 0 
L 2069 1097 
L 81 1097 
L 81 1613 
L 2172 4581 
L 2631 4581 
L 2631 1613 
L 3250 1613 
L 3250 1097 
L 2631 1097 
L 2631 0 
L 2069 0 
z
M 2069 1613 
L 2069 3678 
L 634 1613 
L 2069 1613 
z
" transform="scale(0.015625)"/>
       </defs>
       <use xlink:href="#ArialMT-34"/>
       <use xlink:href="#ArialMT-30" x="55.615234"/>
      </g>
     </g>
    </g>
    <g id="xtick_4">
     <g id="line2d_4">
      <path d="M 607.336073 561.6 
L 607.336073 7.2 
" clip-path="url(#pa8a9b36267)" style="fill: none; stroke: #ffffff; stroke-linecap: round"/>
     </g>
     <g id="text_4">
      <!-- 60 -->
      <g style="fill: #262626" transform="translate(593.433729 588.994531) scale(0.25 -0.25)">
       <defs>
        <path id="ArialMT-36" d="M 3184 3459 
L 2625 3416 
Q 2550 3747 2413 3897 
Q 2184 4138 1850 4138 
Q 1581 4138 1378 3988 
Q 1113 3794 959 3422 
Q 806 3050 800 2363 
Q 1003 2672 1297 2822 
Q 1591 2972 1913 2972 
Q 2475 2972 2870 2558 
Q 3266 2144 3266 1488 
Q 3266 1056 3080 686 
Q 2894 316 2569 119 
Q 2244 -78 1831 -78 
Q 1128 -78 684 439 
Q 241 956 241 2144 
Q 241 3472 731 4075 
Q 1159 4600 1884 4600 
Q 2425 4600 2770 4297 
Q 3116 3994 3184 3459 
z
M 888 1484 
Q 888 1194 1011 928 
Q 1134 663 1356 523 
Q 1578 384 1822 384 
Q 2178 384 2434 671 
Q 2691 959 2691 1453 
Q 2691 1928 2437 2201 
Q 2184 2475 1800 2475 
Q 1419 2475 1153 2201 
Q 888 1928 888 1484 
z
" transform="scale(0.015625)"/>
       </defs>
       <use xlink:href="#ArialMT-36"/>
       <use xlink:href="#ArialMT-30" x="55.615234"/>
      </g>
     </g>
    </g>
    <g id="xtick_5">
     <g id="line2d_5">
      <path d="M 761.055081 561.6 
L 761.055081 7.2 
" clip-path="url(#pa8a9b36267)" style="fill: none; stroke: #ffffff; stroke-linecap: round"/>
     </g>
     <g id="text_5">
      <!-- 80 -->
      <g style="fill: #262626" transform="translate(747.152738 588.994531) scale(0.25 -0.25)">
       <defs>
        <path id="ArialMT-38" d="M 1131 2484 
Q 781 2613 612 2850 
Q 444 3088 444 3419 
Q 444 3919 803 4259 
Q 1163 4600 1759 4600 
Q 2359 4600 2725 4251 
Q 3091 3903 3091 3403 
Q 3091 3084 2923 2848 
Q 2756 2613 2416 2484 
Q 2838 2347 3058 2040 
Q 3278 1734 3278 1309 
Q 3278 722 2862 322 
Q 2447 -78 1769 -78 
Q 1091 -78 675 323 
Q 259 725 259 1325 
Q 259 1772 486 2073 
Q 713 2375 1131 2484 
z
M 1019 3438 
Q 1019 3113 1228 2906 
Q 1438 2700 1772 2700 
Q 2097 2700 2305 2904 
Q 2513 3109 2513 3406 
Q 2513 3716 2298 3927 
Q 2084 4138 1766 4138 
Q 1444 4138 1231 3931 
Q 1019 3725 1019 3438 
z
M 838 1322 
Q 838 1081 952 856 
Q 1066 631 1291 507 
Q 1516 384 1775 384 
Q 2178 384 2440 643 
Q 2703 903 2703 1303 
Q 2703 1709 2433 1975 
Q 2163 2241 1756 2241 
Q 1359 2241 1098 1978 
Q 838 1716 838 1322 
z
" transform="scale(0.015625)"/>
       </defs>
       <use xlink:href="#ArialMT-38"/>
       <use xlink:href="#ArialMT-30" x="55.615234"/>
      </g>
     </g>
    </g>
    <g id="xtick_6">
     <g id="line2d_6">
      <path d="M 914.77409 561.6 
L 914.77409 7.2 
" clip-path="url(#pa8a9b36267)" style="fill: none; stroke: #ffffff; stroke-linecap: round"/>
     </g>
     <g id="text_6">
      <!-- 100 -->
      <g style="fill: #262626" transform="translate(893.920574 588.994531) scale(0.25 -0.25)">
       <defs>
        <path id="ArialMT-31" d="M 2384 0 
L 1822 0 
L 1822 3584 
Q 1619 3391 1289 3197 
Q 959 3003 697 2906 
L 697 3450 
Q 1169 3672 1522 3987 
Q 1875 4303 2022 4600 
L 2384 4600 
L 2384 0 
z
" transform="scale(0.015625)"/>
       </defs>
       <use xlink:href="#ArialMT-31"/>
       <use xlink:href="#ArialMT-30" x="55.615234"/>
       <use xlink:href="#ArialMT-30" x="111.230469"/>
      </g>
     </g>
    </g>
    <g id="text_7">
     <!-- time step -->
     <g style="fill: #262626" transform="translate(425.211719 633.752344) scale(0.5 -0.5)">
      <defs>
       <path id="ArialMT-74" d="M 1650 503 
L 1731 6 
Q 1494 -44 1306 -44 
Q 1000 -44 831 53 
Q 663 150 594 308 
Q 525 466 525 972 
L 525 2881 
L 113 2881 
L 113 3319 
L 525 3319 
L 525 4141 
L 1084 4478 
L 1084 3319 
L 1650 3319 
L 1650 2881 
L 1084 2881 
L 1084 941 
Q 1084 700 1114 631 
Q 1144 563 1211 522 
Q 1278 481 1403 481 
Q 1497 481 1650 503 
z
" transform="scale(0.015625)"/>
       <path id="ArialMT-69" d="M 425 3934 
L 425 4581 
L 988 4581 
L 988 3934 
L 425 3934 
z
M 425 0 
L 425 3319 
L 988 3319 
L 988 0 
L 425 0 
z
" transform="scale(0.015625)"/>
       <path id="ArialMT-6d" d="M 422 0 
L 422 3319 
L 925 3319 
L 925 2853 
Q 1081 3097 1340 3245 
Q 1600 3394 1931 3394 
Q 2300 3394 2536 3241 
Q 2772 3088 2869 2813 
Q 3263 3394 3894 3394 
Q 4388 3394 4653 3120 
Q 4919 2847 4919 2278 
L 4919 0 
L 4359 0 
L 4359 2091 
Q 4359 2428 4304 2576 
Q 4250 2725 4106 2815 
Q 3963 2906 3769 2906 
Q 3419 2906 3187 2673 
Q 2956 2441 2956 1928 
L 2956 0 
L 2394 0 
L 2394 2156 
Q 2394 2531 2256 2718 
Q 2119 2906 1806 2906 
Q 1569 2906 1367 2781 
Q 1166 2656 1075 2415 
Q 984 2175 984 1722 
L 984 0 
L 422 0 
z
" transform="scale(0.015625)"/>
       <path id="ArialMT-65" d="M 2694 1069 
L 3275 997 
Q 3138 488 2766 206 
Q 2394 -75 1816 -75 
Q 1088 -75 661 373 
Q 234 822 234 1631 
Q 234 2469 665 2931 
Q 1097 3394 1784 3394 
Q 2450 3394 2872 2941 
Q 3294 2488 3294 1666 
Q 3294 1616 3291 1516 
L 816 1516 
Q 847 969 1125 678 
Q 1403 388 1819 388 
Q 2128 388 2347 550 
Q 2566 713 2694 1069 
z
M 847 1978 
L 2700 1978 
Q 2663 2397 2488 2606 
Q 2219 2931 1791 2931 
Q 1403 2931 1139 2672 
Q 875 2413 847 1978 
z
" transform="scale(0.015625)"/>
       <path id="ArialMT-20" transform="scale(0.015625)"/>
       <path id="ArialMT-73" d="M 197 991 
L 753 1078 
Q 800 744 1014 566 
Q 1228 388 1613 388 
Q 2000 388 2187 545 
Q 2375 703 2375 916 
Q 2375 1106 2209 1216 
Q 2094 1291 1634 1406 
Q 1016 1563 777 1677 
Q 538 1791 414 1992 
Q 291 2194 291 2438 
Q 291 2659 392 2848 
Q 494 3038 669 3163 
Q 800 3259 1026 3326 
Q 1253 3394 1513 3394 
Q 1903 3394 2198 3281 
Q 2494 3169 2634 2976 
Q 2775 2784 2828 2463 
L 2278 2388 
Q 2241 2644 2061 2787 
Q 1881 2931 1553 2931 
Q 1166 2931 1000 2803 
Q 834 2675 834 2503 
Q 834 2394 903 2306 
Q 972 2216 1119 2156 
Q 1203 2125 1616 2013 
Q 2213 1853 2448 1751 
Q 2684 1650 2818 1456 
Q 2953 1263 2953 975 
Q 2953 694 2789 445 
Q 2625 197 2315 61 
Q 2006 -75 1616 -75 
Q 969 -75 630 194 
Q 291 463 197 991 
z
" transform="scale(0.015625)"/>
       <path id="ArialMT-70" d="M 422 -1272 
L 422 3319 
L 934 3319 
L 934 2888 
Q 1116 3141 1344 3267 
Q 1572 3394 1897 3394 
Q 2322 3394 2647 3175 
Q 2972 2956 3137 2557 
Q 3303 2159 3303 1684 
Q 3303 1175 3120 767 
Q 2938 359 2589 142 
Q 2241 -75 1856 -75 
Q 1575 -75 1351 44 
Q 1128 163 984 344 
L 984 -1272 
L 422 -1272 
z
M 931 1641 
Q 931 1000 1190 694 
Q 1450 388 1819 388 
Q 2194 388 2461 705 
Q 2728 1022 2728 1688 
Q 2728 2322 2467 2637 
Q 2206 2953 1844 2953 
Q 1484 2953 1207 2617 
Q 931 2281 931 1641 
z
" transform="scale(0.015625)"/>
      </defs>
      <use xlink:href="#ArialMT-74"/>
      <use xlink:href="#ArialMT-69" x="27.783203"/>
      <use xlink:href="#ArialMT-6d" x="50"/>
      <use xlink:href="#ArialMT-65" x="133.300781"/>
      <use xlink:href="#ArialMT-20" x="188.916016"/>
      <use xlink:href="#ArialMT-73" x="216.699219"/>
      <use xlink:href="#ArialMT-74" x="266.699219"/>
      <use xlink:href="#ArialMT-65" x="294.482422"/>
      <use xlink:href="#ArialMT-70" x="350.097656"/>
     </g>
    </g>
   </g>
   <g id="matplotlib.axis_2">
    <g id="ytick_1">
     <g id="line2d_7">
      <path d="M 108.133594 536.4 
L 945.133594 536.4 
" clip-path="url(#pa8a9b36267)" style="fill: none; stroke: #ffffff; stroke-linecap: round"/>
     </g>
     <g id="text_8">
      <!-- 0 -->
      <g style="fill: #262626" transform="translate(84.73125 545.347266) scale(0.25 -0.25)">
       <use xlink:href="#ArialMT-30"/>
      </g>
     </g>
    </g>
    <g id="ytick_2">
     <g id="line2d_8">
      <path d="M 108.133594 430.070886 
L 945.133594 430.070886 
" clip-path="url(#pa8a9b36267)" style="fill: none; stroke: #ffffff; stroke-linecap: round"/>
     </g>
     <g id="text_9">
      <!-- 50 -->
      <g style="fill: #262626" transform="translate(70.828906 439.018152) scale(0.25 -0.25)">
       <defs>
        <path id="ArialMT-35" d="M 266 1200 
L 856 1250 
Q 922 819 1161 601 
Q 1400 384 1738 384 
Q 2144 384 2425 690 
Q 2706 997 2706 1503 
Q 2706 1984 2436 2262 
Q 2166 2541 1728 2541 
Q 1456 2541 1237 2417 
Q 1019 2294 894 2097 
L 366 2166 
L 809 4519 
L 3088 4519 
L 3088 3981 
L 1259 3981 
L 1013 2750 
Q 1425 3038 1878 3038 
Q 2478 3038 2890 2622 
Q 3303 2206 3303 1553 
Q 3303 931 2941 478 
Q 2500 -78 1738 -78 
Q 1113 -78 717 272 
Q 322 622 266 1200 
z
" transform="scale(0.015625)"/>
       </defs>
       <use xlink:href="#ArialMT-35"/>
       <use xlink:href="#ArialMT-30" x="55.615234"/>
      </g>
     </g>
    </g>
    <g id="ytick_3">
     <g id="line2d_9">
      <path d="M 108.133594 323.741772 
L 945.133594 323.741772 
" clip-path="url(#pa8a9b36267)" style="fill: none; stroke: #ffffff; stroke-linecap: round"/>
     </g>
     <g id="text_10">
      <!-- 100 -->
      <g style="fill: #262626" transform="translate(56.926563 332.689038) scale(0.25 -0.25)">
       <use xlink:href="#ArialMT-31"/>
       <use xlink:href="#ArialMT-30" x="55.615234"/>
       <use xlink:href="#ArialMT-30" x="111.230469"/>
      </g>
     </g>
    </g>
    <g id="ytick_4">
     <g id="line2d_10">
      <path d="M 108.133594 217.412658 
L 945.133594 217.412658 
" clip-path="url(#pa8a9b36267)" style="fill: none; stroke: #ffffff; stroke-linecap: round"/>
     </g>
     <g id="text_11">
      <!-- 150 -->
      <g style="fill: #262626" transform="translate(56.926563 226.359924) scale(0.25 -0.25)">
       <use xlink:href="#ArialMT-31"/>
       <use xlink:href="#ArialMT-35" x="55.615234"/>
       <use xlink:href="#ArialMT-30" x="111.230469"/>
      </g>
     </g>
    </g>
    <g id="ytick_5">
     <g id="line2d_11">
      <path d="M 108.133594 111.083544 
L 945.133594 111.083544 
" clip-path="url(#pa8a9b36267)" style="fill: none; stroke: #ffffff; stroke-linecap: round"/>
     </g>
     <g id="text_12">
      <!-- 200 -->
      <g style="fill: #262626" transform="translate(56.926563 120.03081) scale(0.25 -0.25)">
       <use xlink:href="#ArialMT-32"/>
       <use xlink:href="#ArialMT-30" x="55.615234"/>
       <use xlink:href="#ArialMT-30" x="111.230469"/>
      </g>
     </g>
    </g>
    <g id="text_13">
     <!-- sell active orders -->
     <g style="fill: #262626" transform="translate(42.989063 471.9625) rotate(-90) scale(0.5 -0.5)">
      <defs>
       <path id="ArialMT-6c" d="M 409 0 
L 409 4581 
L 972 4581 
L 972 0 
L 409 0 
z
" transform="scale(0.015625)"/>
       <path id="ArialMT-61" d="M 2588 409 
Q 2275 144 1986 34 
Q 1697 -75 1366 -75 
Q 819 -75 525 192 
Q 231 459 231 875 
Q 231 1119 342 1320 
Q 453 1522 633 1644 
Q 813 1766 1038 1828 
Q 1203 1872 1538 1913 
Q 2219 1994 2541 2106 
Q 2544 2222 2544 2253 
Q 2544 2597 2384 2738 
Q 2169 2928 1744 2928 
Q 1347 2928 1158 2789 
Q 969 2650 878 2297 
L 328 2372 
Q 403 2725 575 2942 
Q 747 3159 1072 3276 
Q 1397 3394 1825 3394 
Q 2250 3394 2515 3294 
Q 2781 3194 2906 3042 
Q 3031 2891 3081 2659 
Q 3109 2516 3109 2141 
L 3109 1391 
Q 3109 606 3145 398 
Q 3181 191 3288 0 
L 2700 0 
Q 2613 175 2588 409 
z
M 2541 1666 
Q 2234 1541 1622 1453 
Q 1275 1403 1131 1340 
Q 988 1278 909 1158 
Q 831 1038 831 891 
Q 831 666 1001 516 
Q 1172 366 1500 366 
Q 1825 366 2078 508 
Q 2331 650 2450 897 
Q 2541 1088 2541 1459 
L 2541 1666 
z
" transform="scale(0.015625)"/>
       <path id="ArialMT-63" d="M 2588 1216 
L 3141 1144 
Q 3050 572 2676 248 
Q 2303 -75 1759 -75 
Q 1078 -75 664 370 
Q 250 816 250 1647 
Q 250 2184 428 2587 
Q 606 2991 970 3192 
Q 1334 3394 1763 3394 
Q 2303 3394 2647 3120 
Q 2991 2847 3088 2344 
L 2541 2259 
Q 2463 2594 2264 2762 
Q 2066 2931 1784 2931 
Q 1359 2931 1093 2626 
Q 828 2322 828 1663 
Q 828 994 1084 691 
Q 1341 388 1753 388 
Q 2084 388 2306 591 
Q 2528 794 2588 1216 
z
" transform="scale(0.015625)"/>
       <path id="ArialMT-76" d="M 1344 0 
L 81 3319 
L 675 3319 
L 1388 1331 
Q 1503 1009 1600 663 
Q 1675 925 1809 1294 
L 2547 3319 
L 3125 3319 
L 1869 0 
L 1344 0 
z
" transform="scale(0.015625)"/>
       <path id="ArialMT-6f" d="M 213 1659 
Q 213 2581 725 3025 
Q 1153 3394 1769 3394 
Q 2453 3394 2887 2945 
Q 3322 2497 3322 1706 
Q 3322 1066 3130 698 
Q 2938 331 2570 128 
Q 2203 -75 1769 -75 
Q 1072 -75 642 372 
Q 213 819 213 1659 
z
M 791 1659 
Q 791 1022 1069 705 
Q 1347 388 1769 388 
Q 2188 388 2466 706 
Q 2744 1025 2744 1678 
Q 2744 2294 2464 2611 
Q 2184 2928 1769 2928 
Q 1347 2928 1069 2612 
Q 791 2297 791 1659 
z
" transform="scale(0.015625)"/>
       <path id="ArialMT-72" d="M 416 0 
L 416 3319 
L 922 3319 
L 922 2816 
Q 1116 3169 1280 3281 
Q 1444 3394 1641 3394 
Q 1925 3394 2219 3213 
L 2025 2691 
Q 1819 2813 1613 2813 
Q 1428 2813 1281 2702 
Q 1134 2591 1072 2394 
Q 978 2094 978 1738 
L 978 0 
L 416 0 
z
" transform="scale(0.015625)"/>
       <path id="ArialMT-64" d="M 2575 0 
L 2575 419 
Q 2259 -75 1647 -75 
Q 1250 -75 917 144 
Q 584 363 401 755 
Q 219 1147 219 1656 
Q 219 2153 384 2558 
Q 550 2963 881 3178 
Q 1213 3394 1622 3394 
Q 1922 3394 2156 3267 
Q 2391 3141 2538 2938 
L 2538 4581 
L 3097 4581 
L 3097 0 
L 2575 0 
z
M 797 1656 
Q 797 1019 1065 703 
Q 1334 388 1700 388 
Q 2069 388 2326 689 
Q 2584 991 2584 1609 
Q 2584 2291 2321 2609 
Q 2059 2928 1675 2928 
Q 1300 2928 1048 2622 
Q 797 2316 797 1656 
z
" transform="scale(0.015625)"/>
      </defs>
      <use xlink:href="#ArialMT-73"/>
      <use xlink:href="#ArialMT-65" x="50"/>
      <use xlink:href="#ArialMT-6c" x="105.615234"/>
      <use xlink:href="#ArialMT-6c" x="127.832031"/>
      <use xlink:href="#ArialMT-20" x="150.048828"/>
      <use xlink:href="#ArialMT-61" x="177.832031"/>
      <use xlink:href="#ArialMT-63" x="233.447266"/>
      <use xlink:href="#ArialMT-74" x="283.447266"/>
      <use xlink:href="#ArialMT-69" x="311.230469"/>
      <use xlink:href="#ArialMT-76" x="333.447266"/>
      <use xlink:href="#ArialMT-65" x="383.447266"/>
      <use xlink:href="#ArialMT-20" x="439.0625"/>
      <use xlink:href="#ArialMT-6f" x="466.845703"/>
      <use xlink:href="#ArialMT-72" x="522.460938"/>
      <use xlink:href="#ArialMT-64" x="555.761719"/>
      <use xlink:href="#ArialMT-65" x="611.376953"/>
      <use xlink:href="#ArialMT-72" x="666.992188"/>
      <use xlink:href="#ArialMT-73" x="700.292969"/>
     </g>
    </g>
   </g>
   <g id="line2d_12">
    <path d="M 146.179048 536.4 
L 153.864999 530.020253 
L 161.550949 523.640506 
L 169.2369 519.387342 
L 176.92285 513.007595 
L 184.6088 513.007595 
L 192.294751 506.627848 
L 199.980701 502.374684 
L 207.666652 502.374684 
L 215.352602 495.994937 
L 223.038552 498.121519 
L 230.724503 493.868354 
L 238.410453 500.248101 
L 246.096404 495.994937 
L 253.782354 491.741772 
L 261.468304 487.488608 
L 269.154255 483.235443 
L 276.840205 476.855696 
L 284.526156 474.729114 
L 292.212106 468.349367 
L 299.898057 459.843038 
L 307.584007 455.589873 
L 315.269957 451.336709 
L 322.955908 440.703797 
L 330.641858 430.070886 
L 338.327809 432.197468 
L 346.013759 427.944304 
L 353.699709 421.564557 
L 361.38566 419.437975 
L 369.07161 421.564557 
L 376.757561 417.311392 
L 384.443511 421.564557 
L 392.129462 410.931646 
L 399.815412 402.425316 
L 407.501362 393.918987 
L 415.187313 389.665823 
L 422.873263 387.539241 
L 430.559214 387.539241 
L 438.245164 385.412658 
L 445.931114 370.526582 
L 453.617065 364.146835 
L 461.303015 359.893671 
L 468.988966 357.767089 
L 476.674916 357.767089 
L 484.360866 349.260759 
L 492.046817 347.134177 
L 499.732767 338.627848 
L 507.418718 334.374684 
L 515.104668 327.994937 
L 522.790619 325.868354 
L 530.476569 327.994937 
L 538.162519 323.741772 
L 545.84847 321.61519 
L 553.53442 321.61519 
L 561.220371 315.235443 
L 568.906321 310.982278 
L 576.592271 304.602532 
L 584.278222 298.222785 
L 591.964172 298.222785 
L 599.650123 291.843038 
L 607.336073 289.716456 
L 615.022024 287.589873 
L 622.707974 279.083544 
L 630.393924 276.956962 
L 638.079875 279.083544 
L 645.765825 276.956962 
L 653.451776 272.703797 
L 661.137726 272.703797 
L 668.823676 272.703797 
L 676.509627 270.577215 
L 684.195577 270.577215 
L 691.881528 264.197468 
L 699.567478 262.070886 
L 707.253428 257.817722 
L 714.939379 253.564557 
L 722.625329 242.931646 
L 730.31128 234.425316 
L 737.99723 228.04557 
L 745.683181 219.539241 
L 753.369131 215.286076 
L 761.055081 211.032911 
L 768.741032 204.653165 
L 776.426982 198.273418 
L 784.112933 194.020253 
L 791.798883 187.640506 
L 799.484833 187.640506 
L 807.170784 179.134177 
L 814.856734 189.767089 
L 822.542685 183.387342 
L 830.228635 183.387342 
L 837.914585 179.134177 
L 845.600536 172.75443 
L 853.286486 164.248101 
L 860.972437 153.61519 
L 868.658387 147.235443 
L 876.344338 147.235443 
L 884.030288 142.982278 
L 891.716238 134.475949 
L 899.402189 123.843038 
L 907.088139 121.716456 
" clip-path="url(#pa8a9b36267)" style="fill: none; stroke: #46327e; stroke-width: 1.5; stroke-linecap: round"/>
   </g>
   <g id="line2d_13">
    <path d="M 146.179048 536.4 
L 153.864999 530.020253 
L 161.550949 519.387342 
L 169.2369 508.75443 
L 176.92285 504.501266 
L 184.6088 502.374684 
L 192.294751 493.868354 
L 199.980701 491.741772 
L 207.666652 483.235443 
L 215.352602 481.108861 
L 223.038552 478.982278 
L 230.724503 476.855696 
L 238.410453 470.475949 
L 246.096404 466.222785 
L 253.782354 466.222785 
L 261.468304 459.843038 
L 269.154255 453.463291 
L 276.840205 444.956962 
L 284.526156 442.83038 
L 292.212106 436.450633 
L 299.898057 430.070886 
L 307.584007 419.437975 
L 315.269957 413.058228 
L 322.955908 410.931646 
L 330.641858 404.551899 
L 338.327809 402.425316 
L 346.013759 398.172152 
L 353.699709 391.792405 
L 361.38566 385.412658 
L 369.07161 381.159494 
L 376.757561 376.906329 
L 384.443511 376.906329 
L 392.129462 370.526582 
L 399.815412 366.273418 
L 407.501362 359.893671 
L 415.187313 355.640506 
L 422.873263 353.513924 
L 430.559214 351.387342 
L 438.245164 345.007595 
L 445.931114 336.501266 
L 453.617065 332.248101 
L 461.303015 325.868354 
L 468.988966 325.868354 
L 476.674916 321.61519 
L 484.360866 315.235443 
L 492.046817 308.855696 
L 499.732767 308.855696 
L 507.418718 304.602532 
L 515.104668 302.475949 
L 522.790619 298.222785 
L 530.476569 300.349367 
L 538.162519 296.096203 
L 545.84847 293.96962 
L 553.53442 287.589873 
L 561.220371 279.083544 
L 568.906321 272.703797 
L 576.592271 264.197468 
L 584.278222 259.944304 
L 591.964172 253.564557 
L 599.650123 245.058228 
L 607.336073 238.678481 
L 615.022024 225.918987 
L 622.707974 219.539241 
L 630.393924 221.665823 
L 638.079875 217.412658 
L 645.765825 211.032911 
L 653.451776 206.779747 
L 661.137726 198.273418 
L 668.823676 196.146835 
L 676.509627 189.767089 
L 684.195577 179.134177 
L 691.881528 172.75443 
L 699.567478 164.248101 
L 707.253428 157.868354 
L 714.939379 151.488608 
L 722.625329 153.61519 
L 730.31128 149.362025 
L 737.99723 142.982278 
L 745.683181 136.602532 
L 753.369131 128.096203 
L 761.055081 121.716456 
L 768.741032 121.716456 
L 776.426982 113.210127 
L 784.112933 108.956962 
L 791.798883 100.450633 
L 799.484833 96.197468 
L 807.170784 91.944304 
L 814.856734 89.817722 
L 822.542685 87.691139 
L 830.228635 81.311392 
L 837.914585 74.931646 
L 845.600536 70.678481 
L 853.286486 64.298734 
L 860.972437 60.04557 
L 868.658387 51.539241 
L 876.344338 49.412658 
L 884.030288 45.159494 
L 891.716238 43.032911 
L 899.402189 36.653165 
L 907.088139 32.4 
" clip-path="url(#pa8a9b36267)" style="fill: none; stroke: #365c8d; stroke-width: 1.5; stroke-linecap: round"/>
   </g>
   <g id="line2d_14">
    <path d="M 146.179048 536.4 
L 153.864999 523.640506 
L 161.550949 519.387342 
L 169.2369 519.387342 
L 176.92285 519.387342 
L 184.6088 515.134177 
L 192.294751 506.627848 
L 199.980701 495.994937 
L 207.666652 489.61519 
L 215.352602 487.488608 
L 223.038552 474.729114 
L 230.724503 470.475949 
L 238.410453 461.96962 
L 246.096404 455.589873 
L 253.782354 444.956962 
L 261.468304 438.577215 
L 269.154255 434.324051 
L 276.840205 432.197468 
L 284.526156 427.944304 
L 292.212106 419.437975 
L 299.898057 415.18481 
L 307.584007 415.18481 
L 315.269957 410.931646 
L 322.955908 404.551899 
L 330.641858 402.425316 
L 338.327809 398.172152 
L 346.013759 393.918987 
L 353.699709 387.539241 
L 361.38566 383.286076 
L 369.07161 383.286076 
L 376.757561 381.159494 
L 384.443511 376.906329 
L 392.129462 372.653165 
L 399.815412 364.146835 
L 407.501362 362.020253 
L 415.187313 351.387342 
L 422.873263 349.260759 
L 430.559214 345.007595 
L 438.245164 345.007595 
L 445.931114 340.75443 
L 453.617065 334.374684 
L 461.303015 332.248101 
L 468.988966 340.75443 
L 476.674916 334.374684 
L 484.360866 327.994937 
L 492.046817 323.741772 
L 499.732767 317.362025 
L 507.418718 310.982278 
L 515.104668 308.855696 
L 522.790619 302.475949 
L 530.476569 298.222785 
L 538.162519 293.96962 
L 545.84847 283.336709 
L 553.53442 285.463291 
L 561.220371 281.210127 
L 568.906321 274.83038 
L 576.592271 268.450633 
L 584.278222 262.070886 
L 591.964172 259.944304 
L 599.650123 255.691139 
L 607.336073 253.564557 
L 615.022024 253.564557 
L 622.707974 247.18481 
L 630.393924 238.678481 
L 638.079875 234.425316 
L 645.765825 232.298734 
L 653.451776 225.918987 
L 661.137726 219.539241 
L 668.823676 221.665823 
L 676.509627 215.286076 
L 684.195577 211.032911 
L 691.881528 211.032911 
L 699.567478 208.906329 
L 707.253428 206.779747 
L 714.939379 204.653165 
L 722.625329 196.146835 
L 730.31128 194.020253 
L 737.99723 189.767089 
L 745.683181 181.260759 
L 753.369131 174.881013 
L 761.055081 172.75443 
L 768.741032 168.501266 
L 776.426982 162.121519 
L 784.112933 155.741772 
L 791.798883 151.488608 
L 799.484833 149.362025 
L 807.170784 145.108861 
L 814.856734 136.602532 
L 822.542685 134.475949 
L 830.228635 138.729114 
L 837.914585 134.475949 
L 845.600536 128.096203 
L 853.286486 125.96962 
L 860.972437 115.336709 
L 868.658387 111.083544 
L 876.344338 111.083544 
L 884.030288 104.703797 
L 891.716238 108.956962 
L 899.402189 106.83038 
L 907.088139 102.577215 
" clip-path="url(#pa8a9b36267)" style="fill: none; stroke: #277f8e; stroke-width: 1.5; stroke-linecap: round"/>
   </g>
   <g id="line2d_15">
    <path d="M 146.179048 536.4 
L 153.864999 527.893671 
L 161.550949 527.893671 
L 169.2369 525.767089 
L 176.92285 517.260759 
L 184.6088 515.134177 
L 192.294751 515.134177 
L 199.980701 513.007595 
L 207.666652 506.627848 
L 215.352602 500.248101 
L 223.038552 491.741772 
L 230.724503 495.994937 
L 238.410453 495.994937 
L 246.096404 493.868354 
L 253.782354 489.61519 
L 261.468304 485.362025 
L 269.154255 483.235443 
L 276.840205 476.855696 
L 284.526156 472.602532 
L 292.212106 466.222785 
L 299.898057 468.349367 
L 307.584007 466.222785 
L 315.269957 459.843038 
L 322.955908 455.589873 
L 330.641858 451.336709 
L 338.327809 449.210127 
L 346.013759 451.336709 
L 353.699709 440.703797 
L 361.38566 430.070886 
L 369.07161 427.944304 
L 376.757561 417.311392 
L 384.443511 408.805063 
L 392.129462 408.805063 
L 399.815412 408.805063 
L 407.501362 402.425316 
L 415.187313 396.04557 
L 422.873263 389.665823 
L 430.559214 396.04557 
L 438.245164 389.665823 
L 445.931114 385.412658 
L 453.617065 381.159494 
L 461.303015 379.032911 
L 468.988966 376.906329 
L 476.674916 368.4 
L 484.360866 364.146835 
L 492.046817 362.020253 
L 499.732767 359.893671 
L 507.418718 357.767089 
L 515.104668 353.513924 
L 522.790619 345.007595 
L 530.476569 336.501266 
L 538.162519 332.248101 
L 545.84847 330.121519 
L 553.53442 323.741772 
L 561.220371 325.868354 
L 568.906321 319.488608 
L 576.592271 313.108861 
L 584.278222 306.729114 
L 591.964172 306.729114 
L 599.650123 304.602532 
L 607.336073 298.222785 
L 615.022024 293.96962 
L 622.707974 293.96962 
L 630.393924 289.716456 
L 638.079875 287.589873 
L 645.765825 281.210127 
L 653.451776 276.956962 
L 661.137726 268.450633 
L 668.823676 268.450633 
L 676.509627 266.324051 
L 684.195577 262.070886 
L 691.881528 257.817722 
L 699.567478 253.564557 
L 707.253428 247.18481 
L 714.939379 245.058228 
L 722.625329 238.678481 
L 730.31128 236.551899 
L 737.99723 228.04557 
L 745.683181 221.665823 
L 753.369131 217.412658 
L 761.055081 211.032911 
L 768.741032 202.526582 
L 776.426982 196.146835 
L 784.112933 194.020253 
L 791.798883 185.513924 
L 799.484833 181.260759 
L 807.170784 179.134177 
L 814.856734 170.627848 
L 822.542685 164.248101 
L 830.228635 157.868354 
L 837.914585 159.994937 
L 845.600536 153.61519 
L 853.286486 149.362025 
L 860.972437 142.982278 
L 868.658387 134.475949 
L 876.344338 136.602532 
L 884.030288 130.222785 
L 891.716238 130.222785 
L 899.402189 128.096203 
L 907.088139 125.96962 
" clip-path="url(#pa8a9b36267)" style="fill: none; stroke: #1fa187; stroke-width: 1.5; stroke-linecap: round"/>
   </g>
   <g id="line2d_16">
    <path d="M 146.179048 536.4 
L 153.864999 534.273418 
L 161.550949 532.146835 
L 169.2369 530.020253 
L 176.92285 532.146835 
L 184.6088 525.767089 
L 192.294751 515.134177 
L 199.980701 513.007595 
L 207.666652 506.627848 
L 215.352602 500.248101 
L 223.038552 493.868354 
L 230.724503 487.488608 
L 238.410453 481.108861 
L 246.096404 478.982278 
L 253.782354 472.602532 
L 261.468304 468.349367 
L 269.154255 468.349367 
L 276.840205 464.096203 
L 284.526156 464.096203 
L 292.212106 461.96962 
L 299.898057 455.589873 
L 307.584007 464.096203 
L 315.269957 459.843038 
L 322.955908 457.716456 
L 330.641858 447.083544 
L 338.327809 447.083544 
L 346.013759 438.577215 
L 353.699709 430.070886 
L 361.38566 423.691139 
L 369.07161 417.311392 
L 376.757561 415.18481 
L 384.443511 410.931646 
L 392.129462 402.425316 
L 399.815412 398.172152 
L 407.501362 393.918987 
L 415.187313 387.539241 
L 422.873263 381.159494 
L 430.559214 374.779747 
L 438.245164 368.4 
L 445.931114 362.020253 
L 453.617065 357.767089 
L 461.303015 359.893671 
L 468.988966 353.513924 
L 476.674916 351.387342 
L 484.360866 347.134177 
L 492.046817 340.75443 
L 499.732767 334.374684 
L 507.418718 330.121519 
L 515.104668 323.741772 
L 522.790619 317.362025 
L 530.476569 313.108861 
L 538.162519 308.855696 
L 545.84847 302.475949 
L 553.53442 296.096203 
L 561.220371 293.96962 
L 568.906321 291.843038 
L 576.592271 287.589873 
L 584.278222 285.463291 
L 591.964172 279.083544 
L 599.650123 274.83038 
L 607.336073 270.577215 
L 615.022024 264.197468 
L 622.707974 259.944304 
L 630.393924 255.691139 
L 638.079875 253.564557 
L 645.765825 251.437975 
L 653.451776 245.058228 
L 661.137726 240.805063 
L 668.823676 236.551899 
L 676.509627 234.425316 
L 684.195577 223.792405 
L 691.881528 223.792405 
L 699.567478 221.665823 
L 707.253428 217.412658 
L 714.939379 211.032911 
L 722.625329 213.159494 
L 730.31128 208.906329 
L 737.99723 200.4 
L 745.683181 194.020253 
L 753.369131 189.767089 
L 761.055081 191.893671 
L 768.741032 189.767089 
L 776.426982 185.513924 
L 784.112933 183.387342 
L 791.798883 174.881013 
L 799.484833 168.501266 
L 807.170784 159.994937 
L 814.856734 153.61519 
L 822.542685 153.61519 
L 830.228635 145.108861 
L 837.914585 140.855696 
L 845.600536 134.475949 
L 853.286486 128.096203 
L 860.972437 128.096203 
L 868.658387 121.716456 
L 876.344338 121.716456 
L 884.030288 123.843038 
L 891.716238 125.96962 
L 899.402189 117.463291 
L 907.088139 111.083544 
" clip-path="url(#pa8a9b36267)" style="fill: none; stroke: #4ac16d; stroke-width: 1.5; stroke-linecap: round"/>
   </g>
   <g id="patch_3">
    <path d="M 108.133594 561.6 
L 108.133594 7.2 
" style="fill: none; stroke: #ffffff; stroke-width: 1.25; stroke-linejoin: miter; stroke-linecap: square"/>
   </g>
   <g id="patch_4">
    <path d="M 945.133594 561.6 
L 945.133594 7.2 
" style="fill: none; stroke: #ffffff; stroke-width: 1.25; stroke-linejoin: miter; stroke-linecap: square"/>
   </g>
   <g id="patch_5">
    <path d="M 108.133594 561.6 
L 945.133594 561.6 
" style="fill: none; stroke: #ffffff; stroke-width: 1.25; stroke-linejoin: miter; stroke-linecap: square"/>
   </g>
   <g id="patch_6">
    <path d="M 108.133594 7.2 
L 945.133594 7.2 
" style="fill: none; stroke: #ffffff; stroke-width: 1.25; stroke-linejoin: miter; stroke-linecap: square"/>
   </g>
  </g>
 </g>
 <defs>
  <clipPath id="pa8a9b36267">
   <rect x="108.133594" y="7.2" width="837" height="554.4"/>
  </clipPath>
 </defs>
</svg>
