<?xml version="1.0" encoding="utf-8" standalone="no"?>
<!DOCTYPE svg PUBLIC "-//W3C//DTD SVG 1.1//EN"
  "http://www.w3.org/Graphics/SVG/1.1/DTD/svg11.dtd">
<svg xmlns:xlink="http://www.w3.org/1999/xlink" width="952.333594pt" height="650.889844pt" viewBox="0 0 952.333594 650.889844" xmlns="http://www.w3.org/2000/svg" version="1.1">
 <metadata>
  <rdf:RDF xmlns:dc="http://purl.org/dc/elements/1.1/" xmlns:cc="http://creativecommons.org/ns#" xmlns:rdf="http://www.w3.org/1999/02/22-rdf-syntax-ns#">
   <cc:Work>
    <dc:type rdf:resource="http://purl.org/dc/dcmitype/StillImage"/>
    <dc:date>2025-10-14T16:18:34.095731</dc:date>
    <dc:format>image/svg+xml</dc:format>
    <dc:creator>
     <cc:Agent>
      <dc:title>Matplotlib v3.6.3, https://matplotlib.org/</dc:title>
     </cc:Agent>
    </dc:creator>
   </cc:Work>
  </rdf:RDF>
 </metadata>
 <defs>
  <style type="text/css">*{stroke-linejoin: round; stroke-linecap: butt}</style>
 </defs>
 <g id="figure_1">
  <g id="patch_1">
   <path d="M 0 650.889844 
L 952.333594 650.889844 
L 952.333594 0 
L 0 0 
z
" style="fill: #ffffff"/>
  </g>
  <g id="axes_1">
   <g id="patch_2">
    <path d="M 108.133594 561.6 
L 945.133594 561.6 
L 945.133594 7.2 
L 108.133594 7.2 
z
" style="fill: #eaeaf2"/>
   </g>
   <g id="matplotlib.axis_1">
    <g id="xtick_1">
     <g id="line2d_1">
      <path d="M 146.179048 561.6 
L 146.179048 7.2 
" clip-path="url(#p2059cc7d07)" style="fill: none; stroke: #ffffff; stroke-linecap: round"/>
     </g>
     <g id="text_1">
      <!-- 0 -->
      <g style="fill: #262626" transform="translate(139.227876 588.994531) scale(0.25 -0.25)">
       <defs>
        <path id="ArialMT-30" d="M 266 2259 
Q 266 3072 433 3567 
Q 600 4063 929 4331 
Q 1259 4600 1759 4600 
Q 2128 4600 2406 4451 
Q 2684 4303 2865 4023 
Q 3047 3744 3150 3342 
Q 3253 2941 3253 2259 
Q 3253 1453 3087 958 
Q 2922 463 2592 192 
Q 2263 -78 1759 -78 
Q 1097 -78 719 397 
Q 266 969 266 2259 
z
M 844 2259 
Q 844 1131 1108 757 
Q 1372 384 1759 384 
Q 2147 384 2411 759 
Q 2675 1134 2675 2259 
Q 2675 3391 2411 3762 
Q 2147 4134 1753 4134 
Q 1366 4134 1134 3806 
Q 844 3388 844 2259 
z
" transform="scale(0.015625)"/>
       </defs>
       <use xlink:href="#ArialMT-30"/>
      </g>
     </g>
    </g>
    <g id="xtick_2">
     <g id="line2d_2">
      <path d="M 301.466618 561.6 
L 301.466618 7.2 
" clip-path="url(#p2059cc7d07)" style="fill: none; stroke: #ffffff; stroke-linecap: round"/>
     </g>
     <g id="text_2">
      <!-- 20 -->
      <g style="fill: #262626" transform="translate(287.564274 588.994531) scale(0.25 -0.25)">
       <defs>
        <path id="ArialMT-32" d="M 3222 541 
L 3222 0 
L 194 0 
Q 188 203 259 391 
Q 375 700 629 1000 
Q 884 1300 1366 1694 
Q 2113 2306 2375 2664 
Q 2638 3022 2638 3341 
Q 2638 3675 2398 3904 
Q 2159 4134 1775 4134 
Q 1369 4134 1125 3890 
Q 881 3647 878 3216 
L 300 3275 
Q 359 3922 746 4261 
Q 1134 4600 1788 4600 
Q 2447 4600 2831 4234 
Q 3216 3869 3216 3328 
Q 3216 3053 3103 2787 
Q 2991 2522 2730 2228 
Q 2469 1934 1863 1422 
Q 1356 997 1212 845 
Q 1069 694 975 541 
L 3222 541 
z
" transform="scale(0.015625)"/>
       </defs>
       <use xlink:href="#ArialMT-32"/>
       <use xlink:href="#ArialMT-30" x="55.615234"/>
      </g>
     </g>
    </g>
    <g id="xtick_3">
     <g id="line2d_3">
      <path d="M 456.754187 561.6 
L 456.754187 7.2 
" clip-path="url(#p2059cc7d07)" style="fill: none; stroke: #ffffff; stroke-linecap: round"/>
     </g>
     <g id="text_3">
      <!-- 40 -->
      <g style="fill: #262626" transform="translate(442.851844 588.994531) scale(0.25 -0.25)">
       <defs>
        <path id="ArialMT-34" d="M 2069 0 
L 2069 1097 
L 81 1097 
L 81 1613 
L 2172 4581 
L 2631 4581 
L 2631 1613 
L 3250 1613 
L 3250 1097 
L 2631 1097 
L 2631 0 
L 2069 0 
z
M 2069 1613 
L 2069 3678 
L 634 1613 
L 2069 1613 
z
" transform="scale(0.015625)"/>
       </defs>
       <use xlink:href="#ArialMT-34"/>
       <use xlink:href="#ArialMT-30" x="55.615234"/>
      </g>
     </g>
    </g>
    <g id="xtick_4">
     <g id="line2d_4">
      <path d="M 612.041757 561.6 
L 612.041757 7.2 
" clip-path="url(#p2059cc7d07)" style="fill: none; stroke: #ffffff; stroke-linecap: round"/>
     </g>
     <g id="text_4">
      <!-- 60 -->
      <g style="fill: #262626" transform="translate(598.139413 588.994531) scale(0.25 -0.25)">
       <defs>
        <path id="ArialMT-36" d="M 3184 3459 
L 2625 3416 
Q 2550 3747 2413 3897 
Q 2184 4138 1850 4138 
Q 1581 4138 1378 3988 
Q 1113 3794 959 3422 
Q 806 3050 800 2363 
Q 1003 2672 1297 2822 
Q 1591 2972 1913 2972 
Q 2475 2972 2870 2558 
Q 3266 2144 3266 1488 
Q 3266 1056 3080 686 
Q 2894 316 2569 119 
Q 2244 -78 1831 -78 
Q 1128 -78 684 439 
Q 241 956 241 2144 
Q 241 3472 731 4075 
Q 1159 4600 1884 4600 
Q 2425 4600 2770 4297 
Q 3116 3994 3184 3459 
z
M 888 1484 
Q 888 1194 1011 928 
Q 1134 663 1356 523 
Q 1578 384 1822 384 
Q 2178 384 2434 671 
Q 2691 959 2691 1453 
Q 2691 1928 2437 2201 
Q 2184 2475 1800 2475 
Q 1419 2475 1153 2201 
Q 888 1928 888 1484 
z
" transform="scale(0.015625)"/>
       </defs>
       <use xlink:href="#ArialMT-36"/>
       <use xlink:href="#ArialMT-30" x="55.615234"/>
      </g>
     </g>
    </g>
    <g id="xtick_5">
     <g id="line2d_5">
      <path d="M 767.329327 561.6 
L 767.329327 7.2 
" clip-path="url(#p2059cc7d07)" style="fill: none; stroke: #ffffff; stroke-linecap: round"/>
     </g>
     <g id="text_5">
      <!-- 80 -->
      <g style="fill: #262626" transform="translate(753.426983 588.994531) scale(0.25 -0.25)">
       <defs>
        <path id="ArialMT-38" d="M 1131 2484 
Q 781 2613 612 2850 
Q 444 3088 444 3419 
Q 444 3919 803 4259 
Q 1163 4600 1759 4600 
Q 2359 4600 2725 4251 
Q 3091 3903 3091 3403 
Q 3091 3084 2923 2848 
Q 2756 2613 2416 2484 
Q 2838 2347 3058 2040 
Q 3278 1734 3278 1309 
Q 3278 722 2862 322 
Q 2447 -78 1769 -78 
Q 1091 -78 675 323 
Q 259 725 259 1325 
Q 259 1772 486 2073 
Q 713 2375 1131 2484 
z
M 1019 3438 
Q 1019 3113 1228 2906 
Q 1438 2700 1772 2700 
Q 2097 2700 2305 2904 
Q 2513 3109 2513 3406 
Q 2513 3716 2298 3927 
Q 2084 4138 1766 4138 
Q 1444 4138 1231 3931 
Q 1019 3725 1019 3438 
z
M 838 1322 
Q 838 1081 952 856 
Q 1066 631 1291 507 
Q 1516 384 1775 384 
Q 2178 384 2440 643 
Q 2703 903 2703 1303 
Q 2703 1709 2433 1975 
Q 2163 2241 1756 2241 
Q 1359 2241 1098 1978 
Q 838 1716 838 1322 
z
" transform="scale(0.015625)"/>
       </defs>
       <use xlink:href="#ArialMT-38"/>
       <use xlink:href="#ArialMT-30" x="55.615234"/>
      </g>
     </g>
    </g>
    <g id="xtick_6">
     <g id="line2d_6">
      <path d="M 922.616896 561.6 
L 922.616896 7.2 
" clip-path="url(#p2059cc7d07)" style="fill: none; stroke: #ffffff; stroke-linecap: round"/>
     </g>
     <g id="text_6">
      <!-- 100 -->
      <g style="fill: #262626" transform="translate(901.763381 588.994531) scale(0.25 -0.25)">
       <defs>
        <path id="ArialMT-31" d="M 2384 0 
L 1822 0 
L 1822 3584 
Q 1619 3391 1289 3197 
Q 959 3003 697 2906 
L 697 3450 
Q 1169 3672 1522 3987 
Q 1875 4303 2022 4600 
L 2384 4600 
L 2384 0 
z
" transform="scale(0.015625)"/>
       </defs>
       <use xlink:href="#ArialMT-31"/>
       <use xlink:href="#ArialMT-30" x="55.615234"/>
       <use xlink:href="#ArialMT-30" x="111.230469"/>
      </g>
     </g>
    </g>
    <g id="text_7">
     <!-- time step -->
     <g style="fill: #262626" transform="translate(425.211719 633.752344) scale(0.5 -0.5)">
      <defs>
       <path id="ArialMT-74" d="M 1650 503 
L 1731 6 
Q 1494 -44 1306 -44 
Q 1000 -44 831 53 
Q 663 150 594 308 
Q 525 466 525 972 
L 525 2881 
L 113 2881 
L 113 3319 
L 525 3319 
L 525 4141 
L 1084 4478 
L 1084 3319 
L 1650 3319 
L 1650 2881 
L 1084 2881 
L 1084 941 
Q 1084 700 1114 631 
Q 1144 563 1211 522 
Q 1278 481 1403 481 
Q 1497 481 1650 503 
z
" transform="scale(0.015625)"/>
       <path id="ArialMT-69" d="M 425 3934 
L 425 4581 
L 988 4581 
L 988 3934 
L 425 3934 
z
M 425 0 
L 425 3319 
L 988 3319 
L 988 0 
L 425 0 
z
" transform="scale(0.015625)"/>
       <path id="ArialMT-6d" d="M 422 0 
L 422 3319 
L 925 3319 
L 925 2853 
Q 1081 3097 1340 3245 
Q 1600 3394 1931 3394 
Q 2300 3394 2536 3241 
Q 2772 3088 2869 2813 
Q 3263 3394 3894 3394 
Q 4388 3394 4653 3120 
Q 4919 2847 4919 2278 
L 4919 0 
L 4359 0 
L 4359 2091 
Q 4359 2428 4304 2576 
Q 4250 2725 4106 2815 
Q 3963 2906 3769 2906 
Q 3419 2906 3187 2673 
Q 2956 2441 2956 1928 
L 2956 0 
L 2394 0 
L 2394 2156 
Q 2394 2531 2256 2718 
Q 2119 2906 1806 2906 
Q 1569 2906 1367 2781 
Q 1166 2656 1075 2415 
Q 984 2175 984 1722 
L 984 0 
L 422 0 
z
" transform="scale(0.015625)"/>
       <path id="ArialMT-65" d="M 2694 1069 
L 3275 997 
Q 3138 488 2766 206 
Q 2394 -75 1816 -75 
Q 1088 -75 661 373 
Q 234 822 234 1631 
Q 234 2469 665 2931 
Q 1097 3394 1784 3394 
Q 2450 3394 2872 2941 
Q 3294 2488 3294 1666 
Q 3294 1616 3291 1516 
L 816 1516 
Q 847 969 1125 678 
Q 1403 388 1819 388 
Q 2128 388 2347 550 
Q 2566 713 2694 1069 
z
M 847 1978 
L 2700 1978 
Q 2663 2397 2488 2606 
Q 2219 2931 1791 2931 
Q 1403 2931 1139 2672 
Q 875 2413 847 1978 
z
" transform="scale(0.015625)"/>
       <path id="ArialMT-20" transform="scale(0.015625)"/>
       <path id="ArialMT-73" d="M 197 991 
L 753 1078 
Q 800 744 1014 566 
Q 1228 388 1613 388 
Q 2000 388 2187 545 
Q 2375 703 2375 916 
Q 2375 1106 2209 1216 
Q 2094 1291 1634 1406 
Q 1016 1563 777 1677 
Q 538 1791 414 1992 
Q 291 2194 291 2438 
Q 291 2659 392 2848 
Q 494 3038 669 3163 
Q 800 3259 1026 3326 
Q 1253 3394 1513 3394 
Q 1903 3394 2198 3281 
Q 2494 3169 2634 2976 
Q 2775 2784 2828 2463 
L 2278 2388 
Q 2241 2644 2061 2787 
Q 1881 2931 1553 2931 
Q 1166 2931 1000 2803 
Q 834 2675 834 2503 
Q 834 2394 903 2306 
Q 972 2216 1119 2156 
Q 1203 2125 1616 2013 
Q 2213 1853 2448 1751 
Q 2684 1650 2818 1456 
Q 2953 1263 2953 975 
Q 2953 694 2789 445 
Q 2625 197 2315 61 
Q 2006 -75 1616 -75 
Q 969 -75 630 194 
Q 291 463 197 991 
z
" transform="scale(0.015625)"/>
       <path id="ArialMT-70" d="M 422 -1272 
L 422 3319 
L 934 3319 
L 934 2888 
Q 1116 3141 1344 3267 
Q 1572 3394 1897 3394 
Q 2322 3394 2647 3175 
Q 2972 2956 3137 2557 
Q 3303 2159 3303 1684 
Q 3303 1175 3120 767 
Q 2938 359 2589 142 
Q 2241 -75 1856 -75 
Q 1575 -75 1351 44 
Q 1128 163 984 344 
L 984 -1272 
L 422 -1272 
z
M 931 1641 
Q 931 1000 1190 694 
Q 1450 388 1819 388 
Q 2194 388 2461 705 
Q 2728 1022 2728 1688 
Q 2728 2322 2467 2637 
Q 2206 2953 1844 2953 
Q 1484 2953 1207 2617 
Q 931 2281 931 1641 
z
" transform="scale(0.015625)"/>
      </defs>
      <use xlink:href="#ArialMT-74"/>
      <use xlink:href="#ArialMT-69" x="27.783203"/>
      <use xlink:href="#ArialMT-6d" x="50"/>
      <use xlink:href="#ArialMT-65" x="133.300781"/>
      <use xlink:href="#ArialMT-20" x="188.916016"/>
      <use xlink:href="#ArialMT-73" x="216.699219"/>
      <use xlink:href="#ArialMT-74" x="266.699219"/>
      <use xlink:href="#ArialMT-65" x="294.482422"/>
      <use xlink:href="#ArialMT-70" x="350.097656"/>
     </g>
    </g>
   </g>
   <g id="matplotlib.axis_2">
    <g id="ytick_1">
     <g id="line2d_7">
      <path d="M 108.133594 544.34986 
L 945.133594 544.34986 
" clip-path="url(#p2059cc7d07)" style="fill: none; stroke: #ffffff; stroke-linecap: round"/>
     </g>
     <g id="text_8">
      <!-- 20 -->
      <g style="fill: #262626" transform="translate(70.828906 553.297126) scale(0.25 -0.25)">
       <use xlink:href="#ArialMT-32"/>
       <use xlink:href="#ArialMT-30" x="55.615234"/>
      </g>
     </g>
    </g>
    <g id="ytick_2">
     <g id="line2d_8">
      <path d="M 108.133594 462.235373 
L 945.133594 462.235373 
" clip-path="url(#p2059cc7d07)" style="fill: none; stroke: #ffffff; stroke-linecap: round"/>
     </g>
     <g id="text_9">
      <!-- 40 -->
      <g style="fill: #262626" transform="translate(70.828906 471.182639) scale(0.25 -0.25)">
       <use xlink:href="#ArialMT-34"/>
       <use xlink:href="#ArialMT-30" x="55.615234"/>
      </g>
     </g>
    </g>
    <g id="ytick_3">
     <g id="line2d_9">
      <path d="M 108.133594 380.120886 
L 945.133594 380.120886 
" clip-path="url(#p2059cc7d07)" style="fill: none; stroke: #ffffff; stroke-linecap: round"/>
     </g>
     <g id="text_10">
      <!-- 60 -->
      <g style="fill: #262626" transform="translate(70.828906 389.068151) scale(0.25 -0.25)">
       <use xlink:href="#ArialMT-36"/>
       <use xlink:href="#ArialMT-30" x="55.615234"/>
      </g>
     </g>
    </g>
    <g id="ytick_4">
     <g id="line2d_10">
      <path d="M 108.133594 298.006398 
L 945.133594 298.006398 
" clip-path="url(#p2059cc7d07)" style="fill: none; stroke: #ffffff; stroke-linecap: round"/>
     </g>
     <g id="text_11">
      <!-- 80 -->
      <g style="fill: #262626" transform="translate(70.828906 306.953664) scale(0.25 -0.25)">
       <use xlink:href="#ArialMT-38"/>
       <use xlink:href="#ArialMT-30" x="55.615234"/>
      </g>
     </g>
    </g>
    <g id="ytick_5">
     <g id="line2d_11">
      <path d="M 108.133594 215.891911 
L 945.133594 215.891911 
" clip-path="url(#p2059cc7d07)" style="fill: none; stroke: #ffffff; stroke-linecap: round"/>
     </g>
     <g id="text_12">
      <!-- 100 -->
      <g style="fill: #262626" transform="translate(56.926563 224.839177) scale(0.25 -0.25)">
       <use xlink:href="#ArialMT-31"/>
       <use xlink:href="#ArialMT-30" x="55.615234"/>
       <use xlink:href="#ArialMT-30" x="111.230469"/>
      </g>
     </g>
    </g>
    <g id="ytick_6">
     <g id="line2d_12">
      <path d="M 108.133594 133.777424 
L 945.133594 133.777424 
" clip-path="url(#p2059cc7d07)" style="fill: none; stroke: #ffffff; stroke-linecap: round"/>
     </g>
     <g id="text_13">
      <!-- 120 -->
      <g style="fill: #262626" transform="translate(56.926563 142.724689) scale(0.25 -0.25)">
       <use xlink:href="#ArialMT-31"/>
       <use xlink:href="#ArialMT-32" x="55.615234"/>
       <use xlink:href="#ArialMT-30" x="111.230469"/>
      </g>
     </g>
    </g>
    <g id="ytick_7">
     <g id="line2d_13">
      <path d="M 108.133594 51.662937 
L 945.133594 51.662937 
" clip-path="url(#p2059cc7d07)" style="fill: none; stroke: #ffffff; stroke-linecap: round"/>
     </g>
     <g id="text_14">
      <!-- 140 -->
      <g style="fill: #262626" transform="translate(56.926563 60.610202) scale(0.25 -0.25)">
       <use xlink:href="#ArialMT-31"/>
       <use xlink:href="#ArialMT-34" x="55.615234"/>
       <use xlink:href="#ArialMT-30" x="111.230469"/>
      </g>
     </g>
    </g>
    <g id="text_15">
     <!-- market price -->
     <g style="fill: #262626" transform="translate(42.989062 421.927344) rotate(-90) scale(0.5 -0.5)">
      <defs>
       <path id="ArialMT-61" d="M 2588 409 
Q 2275 144 1986 34 
Q 1697 -75 1366 -75 
Q 819 -75 525 192 
Q 231 459 231 875 
Q 231 1119 342 1320 
Q 453 1522 633 1644 
Q 813 1766 1038 1828 
Q 1203 1872 1538 1913 
Q 2219 1994 2541 2106 
Q 2544 2222 2544 2253 
Q 2544 2597 2384 2738 
Q 2169 2928 1744 2928 
Q 1347 2928 1158 2789 
Q 969 2650 878 2297 
L 328 2372 
Q 403 2725 575 2942 
Q 747 3159 1072 3276 
Q 1397 3394 1825 3394 
Q 2250 3394 2515 3294 
Q 2781 3194 2906 3042 
Q 3031 2891 3081 2659 
Q 3109 2516 3109 2141 
L 3109 1391 
Q 3109 606 3145 398 
Q 3181 191 3288 0 
L 2700 0 
Q 2613 175 2588 409 
z
M 2541 1666 
Q 2234 1541 1622 1453 
Q 1275 1403 1131 1340 
Q 988 1278 909 1158 
Q 831 1038 831 891 
Q 831 666 1001 516 
Q 1172 366 1500 366 
Q 1825 366 2078 508 
Q 2331 650 2450 897 
Q 2541 1088 2541 1459 
L 2541 1666 
z
" transform="scale(0.015625)"/>
       <path id="ArialMT-72" d="M 416 0 
L 416 3319 
L 922 3319 
L 922 2816 
Q 1116 3169 1280 3281 
Q 1444 3394 1641 3394 
Q 1925 3394 2219 3213 
L 2025 2691 
Q 1819 2813 1613 2813 
Q 1428 2813 1281 2702 
Q 1134 2591 1072 2394 
Q 978 2094 978 1738 
L 978 0 
L 416 0 
z
" transform="scale(0.015625)"/>
       <path id="ArialMT-6b" d="M 425 0 
L 425 4581 
L 988 4581 
L 988 1969 
L 2319 3319 
L 3047 3319 
L 1778 2088 
L 3175 0 
L 2481 0 
L 1384 1697 
L 988 1316 
L 988 0 
L 425 0 
z
" transform="scale(0.015625)"/>
       <path id="ArialMT-63" d="M 2588 1216 
L 3141 1144 
Q 3050 572 2676 248 
Q 2303 -75 1759 -75 
Q 1078 -75 664 370 
Q 250 816 250 1647 
Q 250 2184 428 2587 
Q 606 2991 970 3192 
Q 1334 3394 1763 3394 
Q 2303 3394 2647 3120 
Q 2991 2847 3088 2344 
L 2541 2259 
Q 2463 2594 2264 2762 
Q 2066 2931 1784 2931 
Q 1359 2931 1093 2626 
Q 828 2322 828 1663 
Q 828 994 1084 691 
Q 1341 388 1753 388 
Q 2084 388 2306 591 
Q 2528 794 2588 1216 
z
" transform="scale(0.015625)"/>
      </defs>
      <use xlink:href="#ArialMT-6d"/>
      <use xlink:href="#ArialMT-61" x="83.300781"/>
      <use xlink:href="#ArialMT-72" x="138.916016"/>
      <use xlink:href="#ArialMT-6b" x="172.216797"/>
      <use xlink:href="#ArialMT-65" x="222.216797"/>
      <use xlink:href="#ArialMT-74" x="277.832031"/>
      <use xlink:href="#ArialMT-20" x="305.615234"/>
      <use xlink:href="#ArialMT-70" x="333.398438"/>
      <use xlink:href="#ArialMT-72" x="389.013672"/>
      <use xlink:href="#ArialMT-69" x="422.314453"/>
      <use xlink:href="#ArialMT-63" x="444.53125"/>
      <use xlink:href="#ArialMT-65" x="494.53125"/>
     </g>
    </g>
   </g>
   <g id="line2d_14">
    <path d="M 146.179048 248.088544 
L 153.943427 224.261735 
L 161.707805 210.498825 
L 169.472184 222.814495 
L 177.236562 217.312056 
L 185.000941 189.964158 
L 192.765319 210.242593 
L 200.529698 174.679613 
L 208.294076 185.362853 
L 216.058455 224.015777 
L 223.822833 203.272146 
L 231.587212 168.412613 
L 239.35159 180.01713 
L 247.115969 185.845559 
L 254.880347 258.343896 
L 262.644725 212.105819 
L 270.409104 209.640856 
L 278.173482 272.892291 
L 285.937861 171.955035 
L 293.702239 155.062713 
L 301.466618 210.915249 
L 309.230996 249.8567 
L 316.995375 208.575426 
L 324.759753 171.02007 
L 332.524132 170.452413 
L 340.28851 186.300825 
L 348.052889 231.000884 
L 355.817267 169.877646 
L 363.581646 221.747843 
L 371.346024 168.090507 
L 379.110403 147.065866 
L 386.874781 205.394423 
L 394.63916 212.090971 
L 402.403538 219.229566 
L 410.167917 197.932374 
L 417.932295 178.657284 
L 425.696674 188.006083 
L 433.461052 235.126468 
L 441.22543 226.647636 
L 448.989809 264.666746 
L 456.754187 227.469082 
L 464.518566 172.670166 
L 472.282944 168.306643 
L 480.047323 207.821265 
L 487.811701 222.635916 
L 495.57608 264.843227 
L 503.340458 267.533411 
L 511.104837 262.85389 
L 518.869215 254.086312 
L 526.633594 239.700583 
L 534.397972 234.606612 
L 542.162351 101.458095 
L 549.926729 100.43088 
L 557.691108 335.469692 
L 565.455486 230.586214 
L 573.219865 251.786208 
L 580.984243 189.372632 
L 588.748622 257.079996 
L 596.513 239.915122 
L 604.277379 102.869939 
L 612.041757 118.44417 
L 619.806135 267.148499 
L 627.570514 148.646266 
L 635.334892 176.174153 
L 643.099271 247.638415 
L 650.863649 139.192938 
L 658.628028 241.274937 
L 666.392406 92.431246 
L 674.156785 115.009284 
L 681.921163 130.38398 
L 689.685542 209.439598 
L 697.44992 237.403799 
L 705.214299 221.548528 
L 712.978677 230.322684 
L 720.743056 227.122417 
L 728.507434 209.934363 
L 736.271813 123.895143 
L 744.036191 205.800948 
L 751.80057 124.597525 
L 759.564948 189.585104 
L 767.329327 170.068191 
L 775.093705 176.584406 
L 782.858084 187.677461 
L 790.622462 173.135831 
L 798.386841 191.637183 
L 806.151219 185.62535 
L 813.915597 207.184193 
L 821.679976 161.245137 
L 829.444354 194.946333 
L 837.208733 32.4 
L 844.973111 347.879898 
L 852.73749 125.681092 
L 860.501868 173.222192 
L 868.266247 188.255987 
L 876.030625 203.231676 
L 883.795004 148.701146 
L 891.559382 159.294047 
L 899.323761 138.714022 
L 907.088139 100.254212 
" clip-path="url(#p2059cc7d07)" style="fill: none; stroke: #46327e; stroke-width: 1.5; stroke-linecap: round"/>
   </g>
   <g id="line2d_15">
    <path d="M 146.179048 173.153091 
L 153.943427 207.803128 
L 161.707805 219.070565 
L 169.472184 212.970742 
L 177.236562 206.264139 
L 185.000941 143.400685 
L 192.765319 176.959544 
L 200.529698 243.502745 
L 208.294076 264.812404 
L 216.058455 238.527868 
L 223.822833 253.337256 
L 231.587212 202.863397 
L 239.35159 223.275242 
L 247.115969 215.338037 
L 254.880347 210.451745 
L 262.644725 210.578013 
L 270.409104 218.599386 
L 278.173482 218.05967 
L 285.937861 233.449621 
L 293.702239 212.70173 
L 301.466618 241.048212 
L 309.230996 214.355334 
L 316.995375 163.915869 
L 324.759753 293.397796 
L 332.524132 308.390117 
L 340.28851 294.054633 
L 348.052889 241.607005 
L 355.817267 321.592543 
L 363.581646 226.897227 
L 371.346024 403.850213 
L 379.110403 250.535965 
L 386.874781 358.156081 
L 394.63916 342.223501 
L 402.403538 324.296479 
L 410.167917 276.219484 
L 417.932295 381.224343 
L 425.696674 232.775713 
L 433.461052 381.38466 
L 441.22543 378.392605 
L 448.989809 341.03597 
L 456.754187 334.680166 
L 464.518566 337.466265 
L 472.282944 251.569977 
L 480.047323 244.208071 
L 487.811701 183.272183 
L 495.57608 174.14469 
L 503.340458 279.697096 
L 511.104837 260.923725 
L 518.869215 297.31357 
L 526.633594 280.575958 
L 534.397972 269.241457 
L 542.162351 293.355445 
L 549.926729 358.79807 
L 557.691108 290.627046 
L 565.455486 231.808359 
L 573.219865 397.161888 
L 580.984243 228.887817 
L 588.748622 382.303054 
L 596.513 232.0577 
L 604.277379 333.720236 
L 612.041757 273.463519 
L 619.806135 334.532692 
L 627.570514 94.36019 
L 635.334892 385.760243 
L 643.099271 163.608203 
L 650.863649 360.487572 
L 658.628028 339.302395 
L 666.392406 152.118583 
L 674.156785 135.400894 
L 681.921163 341.50032 
L 689.685542 245.524627 
L 697.44992 318.25138 
L 705.214299 319.796508 
L 712.978677 338.439194 
L 720.743056 172.320087 
L 728.507434 229.075198 
L 736.271813 415.540229 
L 744.036191 200.131646 
L 751.80057 213.99354 
L 759.564948 300.539868 
L 767.329327 291.79644 
L 775.093705 299.868622 
L 782.858084 338.386883 
L 790.622462 193.767447 
L 798.386841 300.896525 
L 806.151219 305.599382 
L 813.915597 206.690461 
L 821.679976 108.065087 
L 829.444354 299.990504 
L 837.208733 328.25191 
L 844.973111 306.432919 
L 852.73749 246.068321 
L 860.501868 356.836957 
L 868.266247 362.930984 
L 876.030625 113.825105 
L 883.795004 234.207667 
L 891.559382 294.840337 
L 899.323761 221.664208 
L 907.088139 268.709854 
" clip-path="url(#p2059cc7d07)" style="fill: none; stroke: #365c8d; stroke-width: 1.5; stroke-linecap: round"/>
   </g>
   <g id="line2d_16">
    <path d="M 146.179048 211.20694 
L 153.943427 216.537315 
L 161.707805 214.200311 
L 169.472184 203.382909 
L 177.236562 184.061459 
L 185.000941 118.153544 
L 192.765319 208.815902 
L 200.529698 267.625535 
L 208.294076 179.188824 
L 216.058455 191.976706 
L 223.822833 191.362031 
L 231.587212 97.267952 
L 239.35159 240.960536 
L 247.115969 282.989675 
L 254.880347 187.740078 
L 262.644725 199.262305 
L 270.409104 323.76284 
L 278.173482 178.559145 
L 285.937861 146.575674 
L 293.702239 313.860699 
L 301.466618 153.087911 
L 309.230996 271.956011 
L 316.995375 404.056233 
L 324.759753 129.7512 
L 332.524132 165.562707 
L 340.28851 297.056994 
L 348.052889 289.224599 
L 355.817267 179.052908 
L 363.581646 329.42143 
L 371.346024 313.816657 
L 379.110403 329.473616 
L 386.874781 255.130159 
L 394.63916 238.092806 
L 402.403538 212.76228 
L 410.167917 168.919595 
L 417.932295 206.998441 
L 425.696674 351.669499 
L 433.461052 112.884502 
L 441.22543 193.215703 
L 448.989809 218.574985 
L 456.754187 172.807554 
L 464.518566 213.519386 
L 472.282944 122.423783 
L 480.047323 158.344893 
L 487.811701 268.962922 
L 495.57608 164.466861 
L 503.340458 199.547575 
L 511.104837 254.180347 
L 518.869215 228.469326 
L 526.633594 205.316363 
L 534.397972 199.592619 
L 542.162351 194.517223 
L 549.926729 183.328441 
L 557.691108 148.609804 
L 565.455486 326.653906 
L 573.219865 188.935879 
L 580.984243 174.580127 
L 588.748622 167.352007 
L 596.513 286.519504 
L 604.277379 203.573642 
L 612.041757 175.142584 
L 619.806135 260.42946 
L 627.570514 181.428284 
L 635.334892 233.19458 
L 643.099271 125.036252 
L 650.863649 268.570492 
L 658.628028 156.144368 
L 666.392406 281.103865 
L 674.156785 205.811097 
L 681.921163 282.575131 
L 689.685542 160.389517 
L 697.44992 183.954486 
L 705.214299 274.57393 
L 712.978677 357.092781 
L 720.743056 163.154472 
L 728.507434 124.441499 
L 736.271813 189.222119 
L 744.036191 305.720356 
L 751.80057 376.245034 
L 759.564948 271.054595 
L 767.329327 253.909831 
L 775.093705 222.983082 
L 782.858084 242.578806 
L 790.622462 229.137533 
L 798.386841 213.714504 
L 806.151219 320.139759 
L 813.915597 232.282451 
L 821.679976 259.558554 
L 829.444354 111.662232 
L 837.208733 180.239469 
L 844.973111 208.939726 
L 852.73749 118.356587 
L 860.501868 240.729019 
L 868.266247 141.823669 
L 876.030625 247.583159 
L 883.795004 221.839216 
L 891.559382 238.985483 
L 899.323761 211.17477 
L 907.088139 134.0522 
" clip-path="url(#p2059cc7d07)" style="fill: none; stroke: #277f8e; stroke-width: 1.5; stroke-linecap: round"/>
   </g>
   <g id="line2d_17">
    <path d="M 146.179048 277.128919 
L 153.943427 264.353254 
L 161.707805 297.095804 
L 169.472184 268.250798 
L 177.236562 272.758474 
L 185.000941 208.275058 
L 192.765319 279.428021 
L 200.529698 252.497236 
L 208.294076 339.493911 
L 216.058455 222.68287 
L 223.822833 255.071583 
L 231.587212 313.633943 
L 239.35159 241.014038 
L 247.115969 186.04074 
L 254.880347 171.159651 
L 262.644725 169.313654 
L 270.409104 231.638363 
L 278.173482 248.881641 
L 285.937861 250.692868 
L 293.702239 268.408828 
L 301.466618 243.519378 
L 309.230996 266.760393 
L 316.995375 187.875993 
L 324.759753 304.330251 
L 332.524132 322.02015 
L 340.28851 338.412945 
L 348.052889 328.681176 
L 355.817267 340.295403 
L 363.581646 296.001337 
L 371.346024 301.5985 
L 379.110403 287.66503 
L 386.874781 264.251325 
L 394.63916 194.601422 
L 402.403538 248.879417 
L 410.167917 220.981622 
L 417.932295 296.632081 
L 425.696674 237.796981 
L 433.461052 305.978468 
L 441.22543 263.78566 
L 448.989809 285.006828 
L 456.754187 289.708056 
L 464.518566 360.43288 
L 472.282944 310.002248 
L 480.047323 298.66499 
L 487.811701 297.322905 
L 495.57608 299.313118 
L 503.340458 282.947607 
L 511.104837 162.206069 
L 518.869215 389.782566 
L 526.633594 305.482073 
L 534.397972 319.797448 
L 542.162351 334.722297 
L 549.926729 394.586444 
L 557.691108 146.786736 
L 565.455486 363.872417 
L 573.219865 394.914424 
L 580.984243 353.465002 
L 588.748622 198.75902 
L 596.513 353.246077 
L 604.277379 387.400612 
L 612.041757 152.231852 
L 619.806135 332.467989 
L 627.570514 249.19742 
L 635.334892 292.381294 
L 643.099271 316.914651 
L 650.863649 353.009235 
L 658.628028 197.551221 
L 666.392406 176.375066 
L 674.156785 288.17101 
L 681.921163 406.281127 
L 689.685542 314.412538 
L 697.44992 313.849015 
L 705.214299 262.41958 
L 712.978677 125.915365 
L 720.743056 402.848372 
L 728.507434 372.85737 
L 736.271813 220.568174 
L 744.036191 421.470478 
L 751.80057 446.266207 
L 759.564948 143.838378 
L 767.329327 297.814381 
L 775.093705 449.214001 
L 782.858084 227.117123 
L 790.622462 136.74796 
L 798.386841 381.800552 
L 806.151219 108.091055 
L 813.915597 285.610508 
L 821.679976 316.223044 
L 829.444354 339.127982 
L 837.208733 323.970457 
L 844.973111 421.306402 
L 852.73749 298.350338 
L 860.501868 342.987561 
L 868.266247 194.507982 
L 876.030625 459.634212 
L 883.795004 343.14863 
L 891.559382 306.31774 
L 899.323761 318.492231 
L 907.088139 536.4 
" clip-path="url(#p2059cc7d07)" style="fill: none; stroke: #1fa187; stroke-width: 1.5; stroke-linecap: round"/>
   </g>
   <g id="line2d_18">
    <path d="M 146.179048 173.910541 
L 153.943427 204.962149 
L 161.707805 234.196202 
L 169.472184 144.814565 
L 177.236562 187.156477 
L 185.000941 256.433371 
L 192.765319 200.031565 
L 200.529698 177.460136 
L 208.294076 176.59847 
L 216.058455 158.180598 
L 223.822833 116.966796 
L 231.587212 143.033065 
L 239.35159 186.052362 
L 247.115969 191.958882 
L 254.880347 143.443317 
L 262.644725 112.468955 
L 270.409104 135.475696 
L 278.173482 150.127806 
L 285.937861 252.05475 
L 293.702239 261.568847 
L 301.466618 271.948305 
L 309.230996 271.835194 
L 316.995375 77.83104 
L 324.759753 289.08436 
L 332.524132 125.168409 
L 340.28851 112.223812 
L 348.052889 133.839258 
L 355.817267 151.861412 
L 363.581646 313.095293 
L 371.346024 127.410907 
L 379.110403 131.767163 
L 386.874781 137.322758 
L 394.63916 152.620178 
L 402.403538 340.172268 
L 410.167917 136.201854 
L 417.932295 300.392174 
L 425.696674 176.402694 
L 433.461052 364.783998 
L 441.22543 217.06732 
L 448.989809 306.378352 
L 456.754187 318.399293 
L 464.518566 243.635152 
L 472.282944 240.164839 
L 480.047323 207.263537 
L 487.811701 318.239289 
L 495.57608 202.574181 
L 503.340458 335.318271 
L 511.104837 181.276675 
L 518.869215 313.64522 
L 526.633594 151.543879 
L 534.397972 199.188506 
L 542.162351 167.933322 
L 549.926729 293.801345 
L 557.691108 302.606982 
L 565.455486 219.609466 
L 573.219865 243.200842 
L 580.984243 244.213522 
L 588.748622 277.636496 
L 596.513 273.855635 
L 604.277379 238.978717 
L 612.041757 163.265704 
L 619.806135 288.531301 
L 627.570514 149.128783 
L 635.334892 212.686757 
L 643.099271 283.474605 
L 650.863649 276.946456 
L 658.628028 272.616325 
L 666.392406 191.752237 
L 674.156785 190.321849 
L 681.921163 131.456458 
L 689.685542 217.089874 
L 697.44992 190.375852 
L 705.214299 252.642235 
L 712.978677 206.714988 
L 720.743056 160.655083 
L 728.507434 219.351355 
L 736.271813 184.750747 
L 744.036191 265.434628 
L 751.80057 259.76545 
L 759.564948 238.118743 
L 767.329327 196.167757 
L 775.093705 200.005033 
L 782.858084 201.17543 
L 790.622462 323.484211 
L 798.386841 104.538359 
L 806.151219 274.988161 
L 813.915597 246.539218 
L 821.679976 259.448042 
L 829.444354 278.011478 
L 837.208733 222.648571 
L 844.973111 239.160711 
L 852.73749 160.938411 
L 860.501868 142.230821 
L 868.266247 146.148067 
L 876.030625 171.610844 
L 883.795004 208.113144 
L 891.559382 160.408875 
L 899.323761 324.838356 
L 907.088139 341.477422 
" clip-path="url(#p2059cc7d07)" style="fill: none; stroke: #4ac16d; stroke-width: 1.5; stroke-linecap: round"/>
   </g>
   <g id="patch_3">
    <path d="M 108.133594 561.6 
L 108.133594 7.2 
" style="fill: none; stroke: #ffffff; stroke-width: 1.25; stroke-linejoin: miter; stroke-linecap: square"/>
   </g>
   <g id="patch_4">
    <path d="M 945.133594 561.6 
L 945.133594 7.2 
" style="fill: none; stroke: #ffffff; stroke-width: 1.25; stroke-linejoin: miter; stroke-linecap: square"/>
   </g>
   <g id="patch_5">
    <path d="M 108.133594 561.6 
L 945.133594 561.6 
" style="fill: none; stroke: #ffffff; stroke-width: 1.25; stroke-linejoin: miter; stroke-linecap: square"/>
   </g>
   <g id="patch_6">
    <path d="M 108.133594 7.2 
L 945.133594 7.2 
" style="fill: none; stroke: #ffffff; stroke-width: 1.25; stroke-linejoin: miter; stroke-linecap: square"/>
   </g>
  </g>
 </g>
 <defs>
  <clipPath id="p2059cc7d07">
   <rect x="108.133594" y="7.2" width="837" height="554.4"/>
  </clipPath>
 </defs>
</svg>
