<?xml version="1.0" encoding="utf-8" standalone="no"?>
<!DOCTYPE svg PUBLIC "-//W3C//DTD SVG 1.1//EN"
  "http://www.w3.org/Graphics/SVG/1.1/DTD/svg11.dtd">
<svg xmlns:xlink="http://www.w3.org/1999/xlink" width="952.919531pt" height="650.889844pt" viewBox="0 0 952.919531 650.889844" xmlns="http://www.w3.org/2000/svg" version="1.1">
 <metadata>
  <rdf:RDF xmlns:dc="http://purl.org/dc/elements/1.1/" xmlns:cc="http://creativecommons.org/ns#" xmlns:rdf="http://www.w3.org/1999/02/22-rdf-syntax-ns#">
   <cc:Work>
    <dc:type rdf:resource="http://purl.org/dc/dcmitype/StillImage"/>
    <dc:date>2025-10-14T16:18:34.542451</dc:date>
    <dc:format>image/svg+xml</dc:format>
    <dc:creator>
     <cc:Agent>
      <dc:title>Matplotlib v3.6.3, https://matplotlib.org/</dc:title>
     </cc:Agent>
    </dc:creator>
   </cc:Work>
  </rdf:RDF>
 </metadata>
 <defs>
  <style type="text/css">*{stroke-linejoin: round; stroke-linecap: butt}</style>
 </defs>
 <g id="figure_1">
  <g id="patch_1">
   <path d="M 0 650.889844 
L 952.919531 650.889844 
L 952.919531 0 
L 0 0 
z
" style="fill: #ffffff"/>
  </g>
  <g id="axes_1">
   <g id="patch_2">
    <path d="M 108.719531 561.6 
L 945.719531 561.6 
L 945.719531 7.2 
L 108.719531 7.2 
z
" style="fill: #eaeaf2"/>
   </g>
   <g id="matplotlib.axis_1">
    <g id="xtick_1">
     <g id="line2d_1">
      <path d="M 146.764986 561.6 
L 146.764986 7.2 
" clip-path="url(#p1179e576e2)" style="fill: none; stroke: #ffffff; stroke-linecap: round"/>
     </g>
     <g id="text_1">
      <!-- 0 -->
      <g style="fill: #262626" transform="translate(139.813814 588.994531) scale(0.25 -0.25)">
       <defs>
        <path id="ArialMT-30" d="M 266 2259 
Q 266 3072 433 3567 
Q 600 4063 929 4331 
Q 1259 4600 1759 4600 
Q 2128 4600 2406 4451 
Q 2684 4303 2865 4023 
Q 3047 3744 3150 3342 
Q 3253 2941 3253 2259 
Q 3253 1453 3087 958 
Q 2922 463 2592 192 
Q 2263 -78 1759 -78 
Q 1097 -78 719 397 
Q 266 969 266 2259 
z
M 844 2259 
Q 844 1131 1108 757 
Q 1372 384 1759 384 
Q 2147 384 2411 759 
Q 2675 1134 2675 2259 
Q 2675 3391 2411 3762 
Q 2147 4134 1753 4134 
Q 1366 4134 1134 3806 
Q 844 3388 844 2259 
z
" transform="scale(0.015625)"/>
       </defs>
       <use xlink:href="#ArialMT-30"/>
      </g>
     </g>
    </g>
    <g id="xtick_2">
     <g id="line2d_2">
      <path d="M 300.483994 561.6 
L 300.483994 7.2 
" clip-path="url(#p1179e576e2)" style="fill: none; stroke: #ffffff; stroke-linecap: round"/>
     </g>
     <g id="text_2">
      <!-- 20 -->
      <g style="fill: #262626" transform="translate(286.58165 588.994531) scale(0.25 -0.25)">
       <defs>
        <path id="ArialMT-32" d="M 3222 541 
L 3222 0 
L 194 0 
Q 188 203 259 391 
Q 375 700 629 1000 
Q 884 1300 1366 1694 
Q 2113 2306 2375 2664 
Q 2638 3022 2638 3341 
Q 2638 3675 2398 3904 
Q 2159 4134 1775 4134 
Q 1369 4134 1125 3890 
Q 881 3647 878 3216 
L 300 3275 
Q 359 3922 746 4261 
Q 1134 4600 1788 4600 
Q 2447 4600 2831 4234 
Q 3216 3869 3216 3328 
Q 3216 3053 3103 2787 
Q 2991 2522 2730 2228 
Q 2469 1934 1863 1422 
Q 1356 997 1212 845 
Q 1069 694 975 541 
L 3222 541 
z
" transform="scale(0.015625)"/>
       </defs>
       <use xlink:href="#ArialMT-32"/>
       <use xlink:href="#ArialMT-30" x="55.615234"/>
      </g>
     </g>
    </g>
    <g id="xtick_3">
     <g id="line2d_3">
      <path d="M 454.203002 561.6 
L 454.203002 7.2 
" clip-path="url(#p1179e576e2)" style="fill: none; stroke: #ffffff; stroke-linecap: round"/>
     </g>
     <g id="text_3">
      <!-- 40 -->
      <g style="fill: #262626" transform="translate(440.300659 588.994531) scale(0.25 -0.25)">
       <defs>
        <path id="ArialMT-34" d="M 2069 0 
L 2069 1097 
L 81 1097 
L 81 1613 
L 2172 4581 
L 2631 4581 
L 2631 1613 
L 3250 1613 
L 3250 1097 
L 2631 1097 
L 2631 0 
L 2069 0 
z
M 2069 1613 
L 2069 3678 
L 634 1613 
L 2069 1613 
z
" transform="scale(0.015625)"/>
       </defs>
       <use xlink:href="#ArialMT-34"/>
       <use xlink:href="#ArialMT-30" x="55.615234"/>
      </g>
     </g>
    </g>
    <g id="xtick_4">
     <g id="line2d_4">
      <path d="M 607.922011 561.6 
L 607.922011 7.2 
" clip-path="url(#p1179e576e2)" style="fill: none; stroke: #ffffff; stroke-linecap: round"/>
     </g>
     <g id="text_4">
      <!-- 60 -->
      <g style="fill: #262626" transform="translate(594.019667 588.994531) scale(0.25 -0.25)">
       <defs>
        <path id="ArialMT-36" d="M 3184 3459 
L 2625 3416 
Q 2550 3747 2413 3897 
Q 2184 4138 1850 4138 
Q 1581 4138 1378 3988 
Q 1113 3794 959 3422 
Q 806 3050 800 2363 
Q 1003 2672 1297 2822 
Q 1591 2972 1913 2972 
Q 2475 2972 2870 2558 
Q 3266 2144 3266 1488 
Q 3266 1056 3080 686 
Q 2894 316 2569 119 
Q 2244 -78 1831 -78 
Q 1128 -78 684 439 
Q 241 956 241 2144 
Q 241 3472 731 4075 
Q 1159 4600 1884 4600 
Q 2425 4600 2770 4297 
Q 3116 3994 3184 3459 
z
M 888 1484 
Q 888 1194 1011 928 
Q 1134 663 1356 523 
Q 1578 384 1822 384 
Q 2178 384 2434 671 
Q 2691 959 2691 1453 
Q 2691 1928 2437 2201 
Q 2184 2475 1800 2475 
Q 1419 2475 1153 2201 
Q 888 1928 888 1484 
z
" transform="scale(0.015625)"/>
       </defs>
       <use xlink:href="#ArialMT-36"/>
       <use xlink:href="#ArialMT-30" x="55.615234"/>
      </g>
     </g>
    </g>
    <g id="xtick_5">
     <g id="line2d_5">
      <path d="M 761.641019 561.6 
L 761.641019 7.2 
" clip-path="url(#p1179e576e2)" style="fill: none; stroke: #ffffff; stroke-linecap: round"/>
     </g>
     <g id="text_5">
      <!-- 80 -->
      <g style="fill: #262626" transform="translate(747.738675 588.994531) scale(0.25 -0.25)">
       <defs>
        <path id="ArialMT-38" d="M 1131 2484 
Q 781 2613 612 2850 
Q 444 3088 444 3419 
Q 444 3919 803 4259 
Q 1163 4600 1759 4600 
Q 2359 4600 2725 4251 
Q 3091 3903 3091 3403 
Q 3091 3084 2923 2848 
Q 2756 2613 2416 2484 
Q 2838 2347 3058 2040 
Q 3278 1734 3278 1309 
Q 3278 722 2862 322 
Q 2447 -78 1769 -78 
Q 1091 -78 675 323 
Q 259 725 259 1325 
Q 259 1772 486 2073 
Q 713 2375 1131 2484 
z
M 1019 3438 
Q 1019 3113 1228 2906 
Q 1438 2700 1772 2700 
Q 2097 2700 2305 2904 
Q 2513 3109 2513 3406 
Q 2513 3716 2298 3927 
Q 2084 4138 1766 4138 
Q 1444 4138 1231 3931 
Q 1019 3725 1019 3438 
z
M 838 1322 
Q 838 1081 952 856 
Q 1066 631 1291 507 
Q 1516 384 1775 384 
Q 2178 384 2440 643 
Q 2703 903 2703 1303 
Q 2703 1709 2433 1975 
Q 2163 2241 1756 2241 
Q 1359 2241 1098 1978 
Q 838 1716 838 1322 
z
" transform="scale(0.015625)"/>
       </defs>
       <use xlink:href="#ArialMT-38"/>
       <use xlink:href="#ArialMT-30" x="55.615234"/>
      </g>
     </g>
    </g>
    <g id="xtick_6">
     <g id="line2d_6">
      <path d="M 915.360027 561.6 
L 915.360027 7.2 
" clip-path="url(#p1179e576e2)" style="fill: none; stroke: #ffffff; stroke-linecap: round"/>
     </g>
     <g id="text_6">
      <!-- 100 -->
      <g style="fill: #262626" transform="translate(894.506511 588.994531) scale(0.25 -0.25)">
       <defs>
        <path id="ArialMT-31" d="M 2384 0 
L 1822 0 
L 1822 3584 
Q 1619 3391 1289 3197 
Q 959 3003 697 2906 
L 697 3450 
Q 1169 3672 1522 3987 
Q 1875 4303 2022 4600 
L 2384 4600 
L 2384 0 
z
" transform="scale(0.015625)"/>
       </defs>
       <use xlink:href="#ArialMT-31"/>
       <use xlink:href="#ArialMT-30" x="55.615234"/>
       <use xlink:href="#ArialMT-30" x="111.230469"/>
      </g>
     </g>
    </g>
    <g id="text_7">
     <!-- time step -->
     <g style="fill: #262626" transform="translate(425.797656 633.752344) scale(0.5 -0.5)">
      <defs>
       <path id="ArialMT-74" d="M 1650 503 
L 1731 6 
Q 1494 -44 1306 -44 
Q 1000 -44 831 53 
Q 663 150 594 308 
Q 525 466 525 972 
L 525 2881 
L 113 2881 
L 113 3319 
L 525 3319 
L 525 4141 
L 1084 4478 
L 1084 3319 
L 1650 3319 
L 1650 2881 
L 1084 2881 
L 1084 941 
Q 1084 700 1114 631 
Q 1144 563 1211 522 
Q 1278 481 1403 481 
Q 1497 481 1650 503 
z
" transform="scale(0.015625)"/>
       <path id="ArialMT-69" d="M 425 3934 
L 425 4581 
L 988 4581 
L 988 3934 
L 425 3934 
z
M 425 0 
L 425 3319 
L 988 3319 
L 988 0 
L 425 0 
z
" transform="scale(0.015625)"/>
       <path id="ArialMT-6d" d="M 422 0 
L 422 3319 
L 925 3319 
L 925 2853 
Q 1081 3097 1340 3245 
Q 1600 3394 1931 3394 
Q 2300 3394 2536 3241 
Q 2772 3088 2869 2813 
Q 3263 3394 3894 3394 
Q 4388 3394 4653 3120 
Q 4919 2847 4919 2278 
L 4919 0 
L 4359 0 
L 4359 2091 
Q 4359 2428 4304 2576 
Q 4250 2725 4106 2815 
Q 3963 2906 3769 2906 
Q 3419 2906 3187 2673 
Q 2956 2441 2956 1928 
L 2956 0 
L 2394 0 
L 2394 2156 
Q 2394 2531 2256 2718 
Q 2119 2906 1806 2906 
Q 1569 2906 1367 2781 
Q 1166 2656 1075 2415 
Q 984 2175 984 1722 
L 984 0 
L 422 0 
z
" transform="scale(0.015625)"/>
       <path id="ArialMT-65" d="M 2694 1069 
L 3275 997 
Q 3138 488 2766 206 
Q 2394 -75 1816 -75 
Q 1088 -75 661 373 
Q 234 822 234 1631 
Q 234 2469 665 2931 
Q 1097 3394 1784 3394 
Q 2450 3394 2872 2941 
Q 3294 2488 3294 1666 
Q 3294 1616 3291 1516 
L 816 1516 
Q 847 969 1125 678 
Q 1403 388 1819 388 
Q 2128 388 2347 550 
Q 2566 713 2694 1069 
z
M 847 1978 
L 2700 1978 
Q 2663 2397 2488 2606 
Q 2219 2931 1791 2931 
Q 1403 2931 1139 2672 
Q 875 2413 847 1978 
z
" transform="scale(0.015625)"/>
       <path id="ArialMT-20" transform="scale(0.015625)"/>
       <path id="ArialMT-73" d="M 197 991 
L 753 1078 
Q 800 744 1014 566 
Q 1228 388 1613 388 
Q 2000 388 2187 545 
Q 2375 703 2375 916 
Q 2375 1106 2209 1216 
Q 2094 1291 1634 1406 
Q 1016 1563 777 1677 
Q 538 1791 414 1992 
Q 291 2194 291 2438 
Q 291 2659 392 2848 
Q 494 3038 669 3163 
Q 800 3259 1026 3326 
Q 1253 3394 1513 3394 
Q 1903 3394 2198 3281 
Q 2494 3169 2634 2976 
Q 2775 2784 2828 2463 
L 2278 2388 
Q 2241 2644 2061 2787 
Q 1881 2931 1553 2931 
Q 1166 2931 1000 2803 
Q 834 2675 834 2503 
Q 834 2394 903 2306 
Q 972 2216 1119 2156 
Q 1203 2125 1616 2013 
Q 2213 1853 2448 1751 
Q 2684 1650 2818 1456 
Q 2953 1263 2953 975 
Q 2953 694 2789 445 
Q 2625 197 2315 61 
Q 2006 -75 1616 -75 
Q 969 -75 630 194 
Q 291 463 197 991 
z
" transform="scale(0.015625)"/>
       <path id="ArialMT-70" d="M 422 -1272 
L 422 3319 
L 934 3319 
L 934 2888 
Q 1116 3141 1344 3267 
Q 1572 3394 1897 3394 
Q 2322 3394 2647 3175 
Q 2972 2956 3137 2557 
Q 3303 2159 3303 1684 
Q 3303 1175 3120 767 
Q 2938 359 2589 142 
Q 2241 -75 1856 -75 
Q 1575 -75 1351 44 
Q 1128 163 984 344 
L 984 -1272 
L 422 -1272 
z
M 931 1641 
Q 931 1000 1190 694 
Q 1450 388 1819 388 
Q 2194 388 2461 705 
Q 2728 1022 2728 1688 
Q 2728 2322 2467 2637 
Q 2206 2953 1844 2953 
Q 1484 2953 1207 2617 
Q 931 2281 931 1641 
z
" transform="scale(0.015625)"/>
      </defs>
      <use xlink:href="#ArialMT-74"/>
      <use xlink:href="#ArialMT-69" x="27.783203"/>
      <use xlink:href="#ArialMT-6d" x="50"/>
      <use xlink:href="#ArialMT-65" x="133.300781"/>
      <use xlink:href="#ArialMT-20" x="188.916016"/>
      <use xlink:href="#ArialMT-73" x="216.699219"/>
      <use xlink:href="#ArialMT-74" x="266.699219"/>
      <use xlink:href="#ArialMT-65" x="294.482422"/>
      <use xlink:href="#ArialMT-70" x="350.097656"/>
     </g>
    </g>
   </g>
   <g id="matplotlib.axis_2">
    <g id="ytick_1">
     <g id="line2d_7">
      <path d="M 108.719531 536.4 
L 945.719531 536.4 
" clip-path="url(#p1179e576e2)" style="fill: none; stroke: #ffffff; stroke-linecap: round"/>
     </g>
     <g id="text_8">
      <!-- 0 -->
      <g style="fill: #262626" transform="translate(85.317188 545.347266) scale(0.25 -0.25)">
       <use xlink:href="#ArialMT-30"/>
      </g>
     </g>
    </g>
    <g id="ytick_2">
     <g id="line2d_8">
      <path d="M 108.719531 473.083417 
L 945.719531 473.083417 
" clip-path="url(#p1179e576e2)" style="fill: none; stroke: #ffffff; stroke-linecap: round"/>
     </g>
     <g id="text_9">
      <!-- 25 -->
      <g style="fill: #262626" transform="translate(71.414844 482.030683) scale(0.25 -0.25)">
       <defs>
        <path id="ArialMT-35" d="M 266 1200 
L 856 1250 
Q 922 819 1161 601 
Q 1400 384 1738 384 
Q 2144 384 2425 690 
Q 2706 997 2706 1503 
Q 2706 1984 2436 2262 
Q 2166 2541 1728 2541 
Q 1456 2541 1237 2417 
Q 1019 2294 894 2097 
L 366 2166 
L 809 4519 
L 3088 4519 
L 3088 3981 
L 1259 3981 
L 1013 2750 
Q 1425 3038 1878 3038 
Q 2478 3038 2890 2622 
Q 3303 2206 3303 1553 
Q 3303 931 2941 478 
Q 2500 -78 1738 -78 
Q 1113 -78 717 272 
Q 322 622 266 1200 
z
" transform="scale(0.015625)"/>
       </defs>
       <use xlink:href="#ArialMT-32"/>
       <use xlink:href="#ArialMT-35" x="55.615234"/>
      </g>
     </g>
    </g>
    <g id="ytick_3">
     <g id="line2d_9">
      <path d="M 108.719531 409.766834 
L 945.719531 409.766834 
" clip-path="url(#p1179e576e2)" style="fill: none; stroke: #ffffff; stroke-linecap: round"/>
     </g>
     <g id="text_10">
      <!-- 50 -->
      <g style="fill: #262626" transform="translate(71.414844 418.7141) scale(0.25 -0.25)">
       <use xlink:href="#ArialMT-35"/>
       <use xlink:href="#ArialMT-30" x="55.615234"/>
      </g>
     </g>
    </g>
    <g id="ytick_4">
     <g id="line2d_10">
      <path d="M 108.719531 346.450251 
L 945.719531 346.450251 
" clip-path="url(#p1179e576e2)" style="fill: none; stroke: #ffffff; stroke-linecap: round"/>
     </g>
     <g id="text_11">
      <!-- 75 -->
      <g style="fill: #262626" transform="translate(71.414844 355.397517) scale(0.25 -0.25)">
       <defs>
        <path id="ArialMT-37" d="M 303 3981 
L 303 4522 
L 3269 4522 
L 3269 4084 
Q 2831 3619 2401 2847 
Q 1972 2075 1738 1259 
Q 1569 684 1522 0 
L 944 0 
Q 953 541 1156 1306 
Q 1359 2072 1739 2783 
Q 2119 3494 2547 3981 
L 303 3981 
z
" transform="scale(0.015625)"/>
       </defs>
       <use xlink:href="#ArialMT-37"/>
       <use xlink:href="#ArialMT-35" x="55.615234"/>
      </g>
     </g>
    </g>
    <g id="ytick_5">
     <g id="line2d_11">
      <path d="M 108.719531 283.133668 
L 945.719531 283.133668 
" clip-path="url(#p1179e576e2)" style="fill: none; stroke: #ffffff; stroke-linecap: round"/>
     </g>
     <g id="text_12">
      <!-- 100 -->
      <g style="fill: #262626" transform="translate(57.5125 292.080934) scale(0.25 -0.25)">
       <use xlink:href="#ArialMT-31"/>
       <use xlink:href="#ArialMT-30" x="55.615234"/>
       <use xlink:href="#ArialMT-30" x="111.230469"/>
      </g>
     </g>
    </g>
    <g id="ytick_6">
     <g id="line2d_12">
      <path d="M 108.719531 219.817085 
L 945.719531 219.817085 
" clip-path="url(#p1179e576e2)" style="fill: none; stroke: #ffffff; stroke-linecap: round"/>
     </g>
     <g id="text_13">
      <!-- 125 -->
      <g style="fill: #262626" transform="translate(57.5125 228.764351) scale(0.25 -0.25)">
       <use xlink:href="#ArialMT-31"/>
       <use xlink:href="#ArialMT-32" x="55.615234"/>
       <use xlink:href="#ArialMT-35" x="111.230469"/>
      </g>
     </g>
    </g>
    <g id="ytick_7">
     <g id="line2d_13">
      <path d="M 108.719531 156.500503 
L 945.719531 156.500503 
" clip-path="url(#p1179e576e2)" style="fill: none; stroke: #ffffff; stroke-linecap: round"/>
     </g>
     <g id="text_14">
      <!-- 150 -->
      <g style="fill: #262626" transform="translate(57.5125 165.447768) scale(0.25 -0.25)">
       <use xlink:href="#ArialMT-31"/>
       <use xlink:href="#ArialMT-35" x="55.615234"/>
       <use xlink:href="#ArialMT-30" x="111.230469"/>
      </g>
     </g>
    </g>
    <g id="ytick_8">
     <g id="line2d_14">
      <path d="M 108.719531 93.18392 
L 945.719531 93.18392 
" clip-path="url(#p1179e576e2)" style="fill: none; stroke: #ffffff; stroke-linecap: round"/>
     </g>
     <g id="text_15">
      <!-- 175 -->
      <g style="fill: #262626" transform="translate(57.5125 102.131185) scale(0.25 -0.25)">
       <use xlink:href="#ArialMT-31"/>
       <use xlink:href="#ArialMT-37" x="55.615234"/>
       <use xlink:href="#ArialMT-35" x="111.230469"/>
      </g>
     </g>
    </g>
    <g id="ytick_9">
     <g id="line2d_15">
      <path d="M 108.719531 29.867337 
L 945.719531 29.867337 
" clip-path="url(#p1179e576e2)" style="fill: none; stroke: #ffffff; stroke-linecap: round"/>
     </g>
     <g id="text_16">
      <!-- 200 -->
      <g style="fill: #262626" transform="translate(57.5125 38.814602) scale(0.25 -0.25)">
       <use xlink:href="#ArialMT-32"/>
       <use xlink:href="#ArialMT-30" x="55.615234"/>
       <use xlink:href="#ArialMT-30" x="111.230469"/>
      </g>
     </g>
    </g>
    <g id="text_17">
     <!-- buy active orders -->
     <g style="fill: #262626" transform="translate(42.989063 474.755469) rotate(-90) scale(0.5 -0.5)">
      <defs>
       <path id="ArialMT-62" d="M 941 0 
L 419 0 
L 419 4581 
L 981 4581 
L 981 2947 
Q 1338 3394 1891 3394 
Q 2197 3394 2470 3270 
Q 2744 3147 2920 2923 
Q 3097 2700 3197 2384 
Q 3297 2069 3297 1709 
Q 3297 856 2875 390 
Q 2453 -75 1863 -75 
Q 1275 -75 941 416 
L 941 0 
z
M 934 1684 
Q 934 1088 1097 822 
Q 1363 388 1816 388 
Q 2184 388 2453 708 
Q 2722 1028 2722 1663 
Q 2722 2313 2464 2622 
Q 2206 2931 1841 2931 
Q 1472 2931 1203 2611 
Q 934 2291 934 1684 
z
" transform="scale(0.015625)"/>
       <path id="ArialMT-75" d="M 2597 0 
L 2597 488 
Q 2209 -75 1544 -75 
Q 1250 -75 995 37 
Q 741 150 617 320 
Q 494 491 444 738 
Q 409 903 409 1263 
L 409 3319 
L 972 3319 
L 972 1478 
Q 972 1038 1006 884 
Q 1059 663 1231 536 
Q 1403 409 1656 409 
Q 1909 409 2131 539 
Q 2353 669 2445 892 
Q 2538 1116 2538 1541 
L 2538 3319 
L 3100 3319 
L 3100 0 
L 2597 0 
z
" transform="scale(0.015625)"/>
       <path id="ArialMT-79" d="M 397 -1278 
L 334 -750 
Q 519 -800 656 -800 
Q 844 -800 956 -737 
Q 1069 -675 1141 -563 
Q 1194 -478 1313 -144 
Q 1328 -97 1363 -6 
L 103 3319 
L 709 3319 
L 1400 1397 
Q 1534 1031 1641 628 
Q 1738 1016 1872 1384 
L 2581 3319 
L 3144 3319 
L 1881 -56 
Q 1678 -603 1566 -809 
Q 1416 -1088 1222 -1217 
Q 1028 -1347 759 -1347 
Q 597 -1347 397 -1278 
z
" transform="scale(0.015625)"/>
       <path id="ArialMT-61" d="M 2588 409 
Q 2275 144 1986 34 
Q 1697 -75 1366 -75 
Q 819 -75 525 192 
Q 231 459 231 875 
Q 231 1119 342 1320 
Q 453 1522 633 1644 
Q 813 1766 1038 1828 
Q 1203 1872 1538 1913 
Q 2219 1994 2541 2106 
Q 2544 2222 2544 2253 
Q 2544 2597 2384 2738 
Q 2169 2928 1744 2928 
Q 1347 2928 1158 2789 
Q 969 2650 878 2297 
L 328 2372 
Q 403 2725 575 2942 
Q 747 3159 1072 3276 
Q 1397 3394 1825 3394 
Q 2250 3394 2515 3294 
Q 2781 3194 2906 3042 
Q 3031 2891 3081 2659 
Q 3109 2516 3109 2141 
L 3109 1391 
Q 3109 606 3145 398 
Q 3181 191 3288 0 
L 2700 0 
Q 2613 175 2588 409 
z
M 2541 1666 
Q 2234 1541 1622 1453 
Q 1275 1403 1131 1340 
Q 988 1278 909 1158 
Q 831 1038 831 891 
Q 831 666 1001 516 
Q 1172 366 1500 366 
Q 1825 366 2078 508 
Q 2331 650 2450 897 
Q 2541 1088 2541 1459 
L 2541 1666 
z
" transform="scale(0.015625)"/>
       <path id="ArialMT-63" d="M 2588 1216 
L 3141 1144 
Q 3050 572 2676 248 
Q 2303 -75 1759 -75 
Q 1078 -75 664 370 
Q 250 816 250 1647 
Q 250 2184 428 2587 
Q 606 2991 970 3192 
Q 1334 3394 1763 3394 
Q 2303 3394 2647 3120 
Q 2991 2847 3088 2344 
L 2541 2259 
Q 2463 2594 2264 2762 
Q 2066 2931 1784 2931 
Q 1359 2931 1093 2626 
Q 828 2322 828 1663 
Q 828 994 1084 691 
Q 1341 388 1753 388 
Q 2084 388 2306 591 
Q 2528 794 2588 1216 
z
" transform="scale(0.015625)"/>
       <path id="ArialMT-76" d="M 1344 0 
L 81 3319 
L 675 3319 
L 1388 1331 
Q 1503 1009 1600 663 
Q 1675 925 1809 1294 
L 2547 3319 
L 3125 3319 
L 1869 0 
L 1344 0 
z
" transform="scale(0.015625)"/>
       <path id="ArialMT-6f" d="M 213 1659 
Q 213 2581 725 3025 
Q 1153 3394 1769 3394 
Q 2453 3394 2887 2945 
Q 3322 2497 3322 1706 
Q 3322 1066 3130 698 
Q 2938 331 2570 128 
Q 2203 -75 1769 -75 
Q 1072 -75 642 372 
Q 213 819 213 1659 
z
M 791 1659 
Q 791 1022 1069 705 
Q 1347 388 1769 388 
Q 2188 388 2466 706 
Q 2744 1025 2744 1678 
Q 2744 2294 2464 2611 
Q 2184 2928 1769 2928 
Q 1347 2928 1069 2612 
Q 791 2297 791 1659 
z
" transform="scale(0.015625)"/>
       <path id="ArialMT-72" d="M 416 0 
L 416 3319 
L 922 3319 
L 922 2816 
Q 1116 3169 1280 3281 
Q 1444 3394 1641 3394 
Q 1925 3394 2219 3213 
L 2025 2691 
Q 1819 2813 1613 2813 
Q 1428 2813 1281 2702 
Q 1134 2591 1072 2394 
Q 978 2094 978 1738 
L 978 0 
L 416 0 
z
" transform="scale(0.015625)"/>
       <path id="ArialMT-64" d="M 2575 0 
L 2575 419 
Q 2259 -75 1647 -75 
Q 1250 -75 917 144 
Q 584 363 401 755 
Q 219 1147 219 1656 
Q 219 2153 384 2558 
Q 550 2963 881 3178 
Q 1213 3394 1622 3394 
Q 1922 3394 2156 3267 
Q 2391 3141 2538 2938 
L 2538 4581 
L 3097 4581 
L 3097 0 
L 2575 0 
z
M 797 1656 
Q 797 1019 1065 703 
Q 1334 388 1700 388 
Q 2069 388 2326 689 
Q 2584 991 2584 1609 
Q 2584 2291 2321 2609 
Q 2059 2928 1675 2928 
Q 1300 2928 1048 2622 
Q 797 2316 797 1656 
z
" transform="scale(0.015625)"/>
      </defs>
      <use xlink:href="#ArialMT-62"/>
      <use xlink:href="#ArialMT-75" x="55.615234"/>
      <use xlink:href="#ArialMT-79" x="111.230469"/>
      <use xlink:href="#ArialMT-20" x="161.230469"/>
      <use xlink:href="#ArialMT-61" x="189.013672"/>
      <use xlink:href="#ArialMT-63" x="244.628906"/>
      <use xlink:href="#ArialMT-74" x="294.628906"/>
      <use xlink:href="#ArialMT-69" x="322.412109"/>
      <use xlink:href="#ArialMT-76" x="344.628906"/>
      <use xlink:href="#ArialMT-65" x="394.628906"/>
      <use xlink:href="#ArialMT-20" x="450.244141"/>
      <use xlink:href="#ArialMT-6f" x="478.027344"/>
      <use xlink:href="#ArialMT-72" x="533.642578"/>
      <use xlink:href="#ArialMT-64" x="566.943359"/>
      <use xlink:href="#ArialMT-65" x="622.558594"/>
      <use xlink:href="#ArialMT-72" x="678.173828"/>
      <use xlink:href="#ArialMT-73" x="711.474609"/>
     </g>
    </g>
   </g>
   <g id="line2d_16">
    <path d="M 146.764986 536.4 
L 154.450936 531.334673 
L 162.136887 526.269347 
L 169.822837 518.671357 
L 177.508787 516.138693 
L 185.194738 506.00804 
L 192.880688 503.475377 
L 200.566639 498.41005 
L 208.252589 490.81206 
L 215.93854 488.279397 
L 223.62449 485.746734 
L 231.31044 480.681407 
L 238.996391 465.485427 
L 246.682341 457.887437 
L 254.368292 445.224121 
L 262.054242 435.093467 
L 269.740192 432.560804 
L 277.426143 427.495477 
L 285.112093 422.430151 
L 292.798044 424.962814 
L 300.483994 414.832161 
L 308.169944 417.364824 
L 315.855895 407.234171 
L 323.541845 402.168844 
L 331.227796 397.103518 
L 338.913746 394.570854 
L 346.599697 389.505528 
L 354.285647 394.570854 
L 361.971597 392.038191 
L 369.657548 384.440201 
L 377.343498 379.374874 
L 385.029449 371.776884 
L 392.715399 374.309548 
L 400.401349 369.244221 
L 408.0873 364.178894 
L 415.77325 359.113568 
L 423.459201 356.580905 
L 431.145151 351.515578 
L 438.831101 346.450251 
L 446.517052 341.384925 
L 454.203002 336.319598 
L 461.888953 338.852261 
L 469.574903 333.786935 
L 477.260854 321.123618 
L 484.946804 323.656281 
L 492.632754 316.058291 
L 500.318705 313.525628 
L 508.004655 318.590955 
L 515.690606 316.058291 
L 523.376556 313.525628 
L 531.062506 308.460302 
L 538.748457 300.862312 
L 546.434407 295.796985 
L 554.120358 288.198995 
L 561.806308 283.133668 
L 569.492259 280.601005 
L 577.178209 278.068342 
L 584.864159 278.068342 
L 592.55011 267.937688 
L 600.23606 255.274372 
L 607.922011 245.143719 
L 615.607961 240.078392 
L 623.293911 229.947739 
L 630.979862 219.817085 
L 638.665812 214.751759 
L 646.351763 212.219095 
L 654.037713 212.219095 
L 661.723663 202.088442 
L 669.409614 197.023116 
L 677.095564 191.957789 
L 684.781515 186.892462 
L 692.467465 176.761809 
L 700.153416 166.631156 
L 707.839366 166.631156 
L 715.525316 153.967839 
L 723.211267 153.967839 
L 730.897217 153.967839 
L 738.583168 151.435176 
L 746.269118 146.369849 
L 753.955068 141.304523 
L 761.641019 133.706533 
L 769.326969 123.575879 
L 777.01292 118.510553 
L 784.69887 113.445226 
L 792.384821 105.847236 
L 800.070771 95.716583 
L 807.756721 100.78191 
L 815.442672 93.18392 
L 823.128622 93.18392 
L 830.814573 85.58593 
L 838.500523 77.98794 
L 846.186473 80.520603 
L 853.872424 77.98794 
L 861.558374 80.520603 
L 869.244325 72.922613 
L 876.930275 67.857286 
L 884.616225 67.857286 
L 892.302176 65.324623 
L 899.988126 60.259296 
L 907.674077 52.661307 
" clip-path="url(#p1179e576e2)" style="fill: none; stroke: #46327e; stroke-width: 1.5; stroke-linecap: round"/>
   </g>
   <g id="line2d_17">
    <path d="M 146.764986 536.4 
L 154.450936 533.867337 
L 162.136887 533.867337 
L 169.822837 528.80201 
L 177.508787 526.269347 
L 185.194738 521.20402 
L 192.880688 516.138693 
L 200.566639 513.60603 
L 208.252589 506.00804 
L 215.93854 506.00804 
L 223.62449 498.41005 
L 231.31044 493.344724 
L 238.996391 483.21407 
L 246.682341 480.681407 
L 254.368292 470.550754 
L 262.054242 460.420101 
L 269.740192 450.289447 
L 277.426143 442.691457 
L 285.112093 437.626131 
L 292.798044 435.093467 
L 300.483994 437.626131 
L 308.169944 430.028141 
L 315.855895 424.962814 
L 323.541845 419.897487 
L 331.227796 417.364824 
L 338.913746 412.299497 
L 346.599697 412.299497 
L 354.285647 404.701508 
L 361.971597 399.636181 
L 369.657548 394.570854 
L 377.343498 399.636181 
L 385.029449 389.505528 
L 392.715399 381.907538 
L 400.401349 379.374874 
L 408.0873 369.244221 
L 415.77325 361.646231 
L 423.459201 354.048241 
L 431.145151 351.515578 
L 438.831101 348.982915 
L 446.517052 338.852261 
L 454.203002 333.786935 
L 461.888953 328.721608 
L 469.574903 328.721608 
L 477.260854 328.721608 
L 484.946804 323.656281 
L 492.632754 313.525628 
L 500.318705 305.927638 
L 508.004655 290.731658 
L 515.690606 283.133668 
L 523.376556 288.198995 
L 531.062506 283.133668 
L 538.748457 278.068342 
L 546.434407 275.535678 
L 554.120358 267.937688 
L 561.806308 270.470352 
L 569.492259 270.470352 
L 577.178209 270.470352 
L 584.864159 262.872362 
L 592.55011 265.405025 
L 600.23606 262.872362 
L 607.922011 257.807035 
L 615.607961 250.209045 
L 623.293911 247.676382 
L 630.979862 242.611055 
L 638.665812 232.480402 
L 646.351763 229.947739 
L 654.037713 222.349749 
L 661.723663 222.349749 
L 669.409614 217.284422 
L 677.095564 212.219095 
L 684.781515 204.621106 
L 692.467465 197.023116 
L 700.153416 191.957789 
L 707.839366 191.957789 
L 715.525316 191.957789 
L 723.211267 189.425126 
L 730.897217 181.827136 
L 738.583168 171.696482 
L 746.269118 166.631156 
L 753.955068 161.565829 
L 761.641019 153.967839 
L 769.326969 148.902513 
L 777.01292 141.304523 
L 784.69887 138.771859 
L 792.384821 133.706533 
L 800.070771 133.706533 
L 807.756721 133.706533 
L 815.442672 123.575879 
L 823.128622 118.510553 
L 830.814573 121.043216 
L 838.500523 113.445226 
L 846.186473 118.510553 
L 853.872424 115.977889 
L 861.558374 110.912563 
L 869.244325 118.510553 
L 876.930275 110.912563 
L 884.616225 105.847236 
L 892.302176 100.78191 
L 899.988126 98.249246 
L 907.674077 95.716583 
" clip-path="url(#p1179e576e2)" style="fill: none; stroke: #365c8d; stroke-width: 1.5; stroke-linecap: round"/>
   </g>
   <g id="line2d_18">
    <path d="M 146.764986 536.4 
L 154.450936 536.4 
L 162.136887 528.80201 
L 169.822837 523.736683 
L 177.508787 513.60603 
L 185.194738 508.540704 
L 192.880688 498.41005 
L 200.566639 495.877387 
L 208.252589 490.81206 
L 215.93854 488.279397 
L 223.62449 483.21407 
L 231.31044 483.21407 
L 238.996391 478.148744 
L 246.682341 475.61608 
L 254.368292 468.01809 
L 262.054242 478.148744 
L 269.740192 473.083417 
L 277.426143 468.01809 
L 285.112093 462.952764 
L 292.798044 457.887437 
L 300.483994 447.756784 
L 308.169944 447.756784 
L 315.855895 442.691457 
L 323.541845 447.756784 
L 331.227796 435.093467 
L 338.913746 424.962814 
L 346.599697 424.962814 
L 354.285647 422.430151 
L 361.971597 409.766834 
L 369.657548 409.766834 
L 377.343498 399.636181 
L 385.029449 392.038191 
L 392.715399 379.374874 
L 400.401349 374.309548 
L 408.0873 371.776884 
L 415.77325 364.178894 
L 423.459201 359.113568 
L 431.145151 361.646231 
L 438.831101 359.113568 
L 446.517052 351.515578 
L 454.203002 354.048241 
L 461.888953 348.982915 
L 469.574903 338.852261 
L 477.260854 333.786935 
L 484.946804 326.188945 
L 492.632754 326.188945 
L 500.318705 318.590955 
L 508.004655 313.525628 
L 515.690606 305.927638 
L 523.376556 305.927638 
L 531.062506 303.394975 
L 538.748457 300.862312 
L 546.434407 295.796985 
L 554.120358 288.198995 
L 561.806308 278.068342 
L 569.492259 278.068342 
L 577.178209 278.068342 
L 584.864159 278.068342 
L 592.55011 278.068342 
L 600.23606 280.601005 
L 607.922011 273.003015 
L 615.607961 265.405025 
L 623.293911 265.405025 
L 630.979862 262.872362 
L 638.665812 252.741709 
L 646.351763 247.676382 
L 654.037713 242.611055 
L 661.723663 240.078392 
L 669.409614 237.545729 
L 677.095564 232.480402 
L 684.781515 235.013065 
L 692.467465 224.882412 
L 700.153416 219.817085 
L 707.839366 214.751759 
L 715.525316 219.817085 
L 723.211267 219.817085 
L 730.897217 209.686432 
L 738.583168 199.555779 
L 746.269118 191.957789 
L 753.955068 202.088442 
L 761.641019 194.490452 
L 769.326969 197.023116 
L 777.01292 191.957789 
L 784.69887 184.359799 
L 792.384821 181.827136 
L 800.070771 176.761809 
L 807.756721 171.696482 
L 815.442672 166.631156 
L 823.128622 161.565829 
L 830.814573 159.033166 
L 838.500523 151.435176 
L 846.186473 138.771859 
L 853.872424 128.641206 
L 861.558374 121.043216 
L 869.244325 113.445226 
L 876.930275 105.847236 
L 884.616225 100.78191 
L 892.302176 95.716583 
L 899.988126 83.053266 
L 907.674077 77.98794 
" clip-path="url(#p1179e576e2)" style="fill: none; stroke: #277f8e; stroke-width: 1.5; stroke-linecap: round"/>
   </g>
   <g id="line2d_19">
    <path d="M 146.764986 536.4 
L 154.450936 531.334673 
L 162.136887 521.20402 
L 169.822837 516.138693 
L 177.508787 511.073367 
L 185.194738 503.475377 
L 192.880688 495.877387 
L 200.566639 485.746734 
L 208.252589 475.61608 
L 215.93854 473.083417 
L 223.62449 462.952764 
L 231.31044 450.289447 
L 238.996391 440.158794 
L 246.682341 427.495477 
L 254.368292 424.962814 
L 262.054242 424.962814 
L 269.740192 412.299497 
L 277.426143 414.832161 
L 285.112093 404.701508 
L 292.798044 397.103518 
L 300.483994 386.972864 
L 308.169944 376.842211 
L 315.855895 374.309548 
L 323.541845 369.244221 
L 331.227796 366.711558 
L 338.913746 364.178894 
L 346.599697 348.982915 
L 354.285647 348.982915 
L 361.971597 343.917588 
L 369.657548 338.852261 
L 377.343498 333.786935 
L 385.029449 326.188945 
L 392.715399 321.123618 
L 400.401349 313.525628 
L 408.0873 313.525628 
L 415.77325 305.927638 
L 423.459201 295.796985 
L 431.145151 290.731658 
L 438.831101 283.133668 
L 446.517052 288.198995 
L 454.203002 283.133668 
L 461.888953 275.535678 
L 469.574903 265.405025 
L 477.260854 260.339698 
L 484.946804 252.741709 
L 492.632754 247.676382 
L 500.318705 240.078392 
L 508.004655 229.947739 
L 515.690606 222.349749 
L 523.376556 227.415075 
L 531.062506 222.349749 
L 538.748457 219.817085 
L 546.434407 212.219095 
L 554.120358 214.751759 
L 561.806308 202.088442 
L 569.492259 197.023116 
L 577.178209 194.490452 
L 584.864159 189.425126 
L 592.55011 181.827136 
L 600.23606 186.892462 
L 607.922011 184.359799 
L 615.607961 176.761809 
L 623.293911 166.631156 
L 630.979862 156.500503 
L 638.665812 146.369849 
L 646.351763 151.435176 
L 654.037713 151.435176 
L 661.723663 143.837186 
L 669.409614 138.771859 
L 677.095564 133.706533 
L 684.781515 131.173869 
L 692.467465 141.304523 
L 700.153416 138.771859 
L 707.839366 146.369849 
L 715.525316 131.173869 
L 723.211267 121.043216 
L 730.897217 121.043216 
L 738.583168 118.510553 
L 746.269118 121.043216 
L 753.955068 115.977889 
L 761.641019 108.379899 
L 769.326969 105.847236 
L 777.01292 113.445226 
L 784.69887 110.912563 
L 792.384821 115.977889 
L 800.070771 110.912563 
L 807.756721 100.78191 
L 815.442672 98.249246 
L 823.128622 98.249246 
L 830.814573 103.314573 
L 838.500523 93.18392 
L 846.186473 90.651256 
L 853.872424 83.053266 
L 861.558374 75.455276 
L 869.244325 67.857286 
L 876.930275 60.259296 
L 884.616225 52.661307 
L 892.302176 39.99799 
L 899.988126 42.530653 
L 907.674077 45.063317 
" clip-path="url(#p1179e576e2)" style="fill: none; stroke: #1fa187; stroke-width: 1.5; stroke-linecap: round"/>
   </g>
   <g id="line2d_20">
    <path d="M 146.764986 536.4 
L 154.450936 526.269347 
L 162.136887 518.671357 
L 169.822837 516.138693 
L 177.508787 511.073367 
L 185.194738 508.540704 
L 192.880688 506.00804 
L 200.566639 500.942714 
L 208.252589 490.81206 
L 215.93854 483.21407 
L 223.62449 480.681407 
L 231.31044 475.61608 
L 238.996391 470.550754 
L 246.682341 465.485427 
L 254.368292 470.550754 
L 262.054242 465.485427 
L 269.740192 452.822111 
L 277.426143 442.691457 
L 285.112093 432.560804 
L 292.798044 422.430151 
L 300.483994 417.364824 
L 308.169944 409.766834 
L 315.855895 407.234171 
L 323.541845 397.103518 
L 331.227796 389.505528 
L 338.913746 381.907538 
L 346.599697 376.842211 
L 354.285647 369.244221 
L 361.971597 371.776884 
L 369.657548 369.244221 
L 377.343498 361.646231 
L 385.029449 351.515578 
L 392.715399 343.917588 
L 400.401349 338.852261 
L 408.0873 338.852261 
L 415.77325 333.786935 
L 423.459201 331.254271 
L 431.145151 326.188945 
L 438.831101 328.721608 
L 446.517052 328.721608 
L 454.203002 323.656281 
L 461.888953 318.590955 
L 469.574903 318.590955 
L 477.260854 310.992965 
L 484.946804 303.394975 
L 492.632754 295.796985 
L 500.318705 288.198995 
L 508.004655 278.068342 
L 515.690606 275.535678 
L 523.376556 270.470352 
L 531.062506 260.339698 
L 538.748457 252.741709 
L 546.434407 252.741709 
L 554.120358 250.209045 
L 561.806308 255.274372 
L 569.492259 257.807035 
L 577.178209 250.209045 
L 584.864159 242.611055 
L 592.55011 229.947739 
L 600.23606 227.415075 
L 607.922011 224.882412 
L 615.607961 222.349749 
L 623.293911 222.349749 
L 630.979862 214.751759 
L 638.665812 207.153769 
L 646.351763 222.349749 
L 654.037713 217.284422 
L 661.723663 214.751759 
L 669.409614 202.088442 
L 677.095564 194.490452 
L 684.781515 194.490452 
L 692.467465 191.957789 
L 700.153416 186.892462 
L 707.839366 181.827136 
L 715.525316 176.761809 
L 723.211267 166.631156 
L 730.897217 169.163819 
L 738.583168 164.098492 
L 746.269118 159.033166 
L 753.955068 161.565829 
L 761.641019 153.967839 
L 769.326969 141.304523 
L 777.01292 133.706533 
L 784.69887 126.108543 
L 792.384821 121.043216 
L 800.070771 115.977889 
L 807.756721 131.173869 
L 815.442672 121.043216 
L 823.128622 110.912563 
L 830.814573 103.314573 
L 838.500523 98.249246 
L 846.186473 88.118593 
L 853.872424 80.520603 
L 861.558374 65.324623 
L 869.244325 60.259296 
L 876.930275 55.19397 
L 884.616225 45.063317 
L 892.302176 42.530653 
L 899.988126 37.465327 
L 907.674077 32.4 
" clip-path="url(#p1179e576e2)" style="fill: none; stroke: #4ac16d; stroke-width: 1.5; stroke-linecap: round"/>
   </g>
   <g id="patch_3">
    <path d="M 108.719531 561.6 
L 108.719531 7.2 
" style="fill: none; stroke: #ffffff; stroke-width: 1.25; stroke-linejoin: miter; stroke-linecap: square"/>
   </g>
   <g id="patch_4">
    <path d="M 945.719531 561.6 
L 945.719531 7.2 
" style="fill: none; stroke: #ffffff; stroke-width: 1.25; stroke-linejoin: miter; stroke-linecap: square"/>
   </g>
   <g id="patch_5">
    <path d="M 108.719531 561.6 
L 945.719531 561.6 
" style="fill: none; stroke: #ffffff; stroke-width: 1.25; stroke-linejoin: miter; stroke-linecap: square"/>
   </g>
   <g id="patch_6">
    <path d="M 108.719531 7.2 
L 945.719531 7.2 
" style="fill: none; stroke: #ffffff; stroke-width: 1.25; stroke-linejoin: miter; stroke-linecap: square"/>
   </g>
  </g>
 </g>
 <defs>
  <clipPath id="p1179e576e2">
   <rect x="108.719531" y="7.2" width="837" height="554.4"/>
  </clipPath>
 </defs>
</svg>
