<?xml version="1.0" encoding="utf-8" standalone="no"?>
<!DOCTYPE svg PUBLIC "-//W3C//DTD SVG 1.1//EN"
  "http://www.w3.org/Graphics/SVG/1.1/DTD/svg11.dtd">
<svg xmlns:xlink="http://www.w3.org/1999/xlink" width="966.845312pt" height="650.889844pt" viewBox="0 0 966.845312 650.889844" xmlns="http://www.w3.org/2000/svg" version="1.1">
 <metadata>
  <rdf:RDF xmlns:dc="http://purl.org/dc/elements/1.1/" xmlns:cc="http://creativecommons.org/ns#" xmlns:rdf="http://www.w3.org/1999/02/22-rdf-syntax-ns#">
   <cc:Work>
    <dc:type rdf:resource="http://purl.org/dc/dcmitype/StillImage"/>
    <dc:date>2025-10-14T16:36:28.016926</dc:date>
    <dc:format>image/svg+xml</dc:format>
    <dc:creator>
     <cc:Agent>
      <dc:title>Matplotlib v3.6.3, https://matplotlib.org/</dc:title>
     </cc:Agent>
    </dc:creator>
   </cc:Work>
  </rdf:RDF>
 </metadata>
 <defs>
  <style type="text/css">*{stroke-linejoin: round; stroke-linecap: butt}</style>
 </defs>
 <g id="figure_1">
  <g id="patch_1">
   <path d="M 0 650.889844 
L 966.845312 650.889844 
L 966.845312 0 
L 0 0 
z
" style="fill: #ffffff"/>
  </g>
  <g id="axes_1">
   <g id="patch_2">
    <path d="M 122.645313 561.6 
L 959.645313 561.6 
L 959.645313 7.2 
L 122.645313 7.2 
z
" style="fill: #eaeaf2"/>
   </g>
   <g id="matplotlib.axis_1">
    <g id="xtick_1">
     <g id="line2d_1">
      <path d="M 160.690767 561.6 
L 160.690767 7.2 
" clip-path="url(#p1265ef2b67)" style="fill: none; stroke: #ffffff; stroke-linecap: round"/>
     </g>
     <g id="text_1">
      <!-- 0 -->
      <g style="fill: #262626" transform="translate(153.739595 588.994531) scale(0.25 -0.25)">
       <defs>
        <path id="ArialMT-30" d="M 266 2259 
Q 266 3072 433 3567 
Q 600 4063 929 4331 
Q 1259 4600 1759 4600 
Q 2128 4600 2406 4451 
Q 2684 4303 2865 4023 
Q 3047 3744 3150 3342 
Q 3253 2941 3253 2259 
Q 3253 1453 3087 958 
Q 2922 463 2592 192 
Q 2263 -78 1759 -78 
Q 1097 -78 719 397 
Q 266 969 266 2259 
z
M 844 2259 
Q 844 1131 1108 757 
Q 1372 384 1759 384 
Q 2147 384 2411 759 
Q 2675 1134 2675 2259 
Q 2675 3391 2411 3762 
Q 2147 4134 1753 4134 
Q 1366 4134 1134 3806 
Q 844 3388 844 2259 
z
" transform="scale(0.015625)"/>
       </defs>
       <use xlink:href="#ArialMT-30"/>
      </g>
     </g>
    </g>
    <g id="xtick_2">
     <g id="line2d_2">
      <path d="M 314.409775 561.6 
L 314.409775 7.2 
" clip-path="url(#p1265ef2b67)" style="fill: none; stroke: #ffffff; stroke-linecap: round"/>
     </g>
     <g id="text_2">
      <!-- 20 -->
      <g style="fill: #262626" transform="translate(300.507432 588.994531) scale(0.25 -0.25)">
       <defs>
        <path id="ArialMT-32" d="M 3222 541 
L 3222 0 
L 194 0 
Q 188 203 259 391 
Q 375 700 629 1000 
Q 884 1300 1366 1694 
Q 2113 2306 2375 2664 
Q 2638 3022 2638 3341 
Q 2638 3675 2398 3904 
Q 2159 4134 1775 4134 
Q 1369 4134 1125 3890 
Q 881 3647 878 3216 
L 300 3275 
Q 359 3922 746 4261 
Q 1134 4600 1788 4600 
Q 2447 4600 2831 4234 
Q 3216 3869 3216 3328 
Q 3216 3053 3103 2787 
Q 2991 2522 2730 2228 
Q 2469 1934 1863 1422 
Q 1356 997 1212 845 
Q 1069 694 975 541 
L 3222 541 
z
" transform="scale(0.015625)"/>
       </defs>
       <use xlink:href="#ArialMT-32"/>
       <use xlink:href="#ArialMT-30" x="55.615234"/>
      </g>
     </g>
    </g>
    <g id="xtick_3">
     <g id="line2d_3">
      <path d="M 468.128784 561.6 
L 468.128784 7.2 
" clip-path="url(#p1265ef2b67)" style="fill: none; stroke: #ffffff; stroke-linecap: round"/>
     </g>
     <g id="text_3">
      <!-- 40 -->
      <g style="fill: #262626" transform="translate(454.22644 588.994531) scale(0.25 -0.25)">
       <defs>
        <path id="ArialMT-34" d="M 2069 0 
L 2069 1097 
L 81 1097 
L 81 1613 
L 2172 4581 
L 2631 4581 
L 2631 1613 
L 3250 1613 
L 3250 1097 
L 2631 1097 
L 2631 0 
L 2069 0 
z
M 2069 1613 
L 2069 3678 
L 634 1613 
L 2069 1613 
z
" transform="scale(0.015625)"/>
       </defs>
       <use xlink:href="#ArialMT-34"/>
       <use xlink:href="#ArialMT-30" x="55.615234"/>
      </g>
     </g>
    </g>
    <g id="xtick_4">
     <g id="line2d_4">
      <path d="M 621.847792 561.6 
L 621.847792 7.2 
" clip-path="url(#p1265ef2b67)" style="fill: none; stroke: #ffffff; stroke-linecap: round"/>
     </g>
     <g id="text_4">
      <!-- 60 -->
      <g style="fill: #262626" transform="translate(607.945448 588.994531) scale(0.25 -0.25)">
       <defs>
        <path id="ArialMT-36" d="M 3184 3459 
L 2625 3416 
Q 2550 3747 2413 3897 
Q 2184 4138 1850 4138 
Q 1581 4138 1378 3988 
Q 1113 3794 959 3422 
Q 806 3050 800 2363 
Q 1003 2672 1297 2822 
Q 1591 2972 1913 2972 
Q 2475 2972 2870 2558 
Q 3266 2144 3266 1488 
Q 3266 1056 3080 686 
Q 2894 316 2569 119 
Q 2244 -78 1831 -78 
Q 1128 -78 684 439 
Q 241 956 241 2144 
Q 241 3472 731 4075 
Q 1159 4600 1884 4600 
Q 2425 4600 2770 4297 
Q 3116 3994 3184 3459 
z
M 888 1484 
Q 888 1194 1011 928 
Q 1134 663 1356 523 
Q 1578 384 1822 384 
Q 2178 384 2434 671 
Q 2691 959 2691 1453 
Q 2691 1928 2437 2201 
Q 2184 2475 1800 2475 
Q 1419 2475 1153 2201 
Q 888 1928 888 1484 
z
" transform="scale(0.015625)"/>
       </defs>
       <use xlink:href="#ArialMT-36"/>
       <use xlink:href="#ArialMT-30" x="55.615234"/>
      </g>
     </g>
    </g>
    <g id="xtick_5">
     <g id="line2d_5">
      <path d="M 775.5668 561.6 
L 775.5668 7.2 
" clip-path="url(#p1265ef2b67)" style="fill: none; stroke: #ffffff; stroke-linecap: round"/>
     </g>
     <g id="text_5">
      <!-- 80 -->
      <g style="fill: #262626" transform="translate(761.664456 588.994531) scale(0.25 -0.25)">
       <defs>
        <path id="ArialMT-38" d="M 1131 2484 
Q 781 2613 612 2850 
Q 444 3088 444 3419 
Q 444 3919 803 4259 
Q 1163 4600 1759 4600 
Q 2359 4600 2725 4251 
Q 3091 3903 3091 3403 
Q 3091 3084 2923 2848 
Q 2756 2613 2416 2484 
Q 2838 2347 3058 2040 
Q 3278 1734 3278 1309 
Q 3278 722 2862 322 
Q 2447 -78 1769 -78 
Q 1091 -78 675 323 
Q 259 725 259 1325 
Q 259 1772 486 2073 
Q 713 2375 1131 2484 
z
M 1019 3438 
Q 1019 3113 1228 2906 
Q 1438 2700 1772 2700 
Q 2097 2700 2305 2904 
Q 2513 3109 2513 3406 
Q 2513 3716 2298 3927 
Q 2084 4138 1766 4138 
Q 1444 4138 1231 3931 
Q 1019 3725 1019 3438 
z
M 838 1322 
Q 838 1081 952 856 
Q 1066 631 1291 507 
Q 1516 384 1775 384 
Q 2178 384 2440 643 
Q 2703 903 2703 1303 
Q 2703 1709 2433 1975 
Q 2163 2241 1756 2241 
Q 1359 2241 1098 1978 
Q 838 1716 838 1322 
z
" transform="scale(0.015625)"/>
       </defs>
       <use xlink:href="#ArialMT-38"/>
       <use xlink:href="#ArialMT-30" x="55.615234"/>
      </g>
     </g>
    </g>
    <g id="xtick_6">
     <g id="line2d_6">
      <path d="M 929.285808 561.6 
L 929.285808 7.2 
" clip-path="url(#p1265ef2b67)" style="fill: none; stroke: #ffffff; stroke-linecap: round"/>
     </g>
     <g id="text_6">
      <!-- 100 -->
      <g style="fill: #262626" transform="translate(908.432293 588.994531) scale(0.25 -0.25)">
       <defs>
        <path id="ArialMT-31" d="M 2384 0 
L 1822 0 
L 1822 3584 
Q 1619 3391 1289 3197 
Q 959 3003 697 2906 
L 697 3450 
Q 1169 3672 1522 3987 
Q 1875 4303 2022 4600 
L 2384 4600 
L 2384 0 
z
" transform="scale(0.015625)"/>
       </defs>
       <use xlink:href="#ArialMT-31"/>
       <use xlink:href="#ArialMT-30" x="55.615234"/>
       <use xlink:href="#ArialMT-30" x="111.230469"/>
      </g>
     </g>
    </g>
    <g id="text_7">
     <!-- time steps -->
     <g style="fill: #262626" transform="translate(427.223438 633.752344) scale(0.5 -0.5)">
      <defs>
       <path id="ArialMT-74" d="M 1650 503 
L 1731 6 
Q 1494 -44 1306 -44 
Q 1000 -44 831 53 
Q 663 150 594 308 
Q 525 466 525 972 
L 525 2881 
L 113 2881 
L 113 3319 
L 525 3319 
L 525 4141 
L 1084 4478 
L 1084 3319 
L 1650 3319 
L 1650 2881 
L 1084 2881 
L 1084 941 
Q 1084 700 1114 631 
Q 1144 563 1211 522 
Q 1278 481 1403 481 
Q 1497 481 1650 503 
z
" transform="scale(0.015625)"/>
       <path id="ArialMT-69" d="M 425 3934 
L 425 4581 
L 988 4581 
L 988 3934 
L 425 3934 
z
M 425 0 
L 425 3319 
L 988 3319 
L 988 0 
L 425 0 
z
" transform="scale(0.015625)"/>
       <path id="ArialMT-6d" d="M 422 0 
L 422 3319 
L 925 3319 
L 925 2853 
Q 1081 3097 1340 3245 
Q 1600 3394 1931 3394 
Q 2300 3394 2536 3241 
Q 2772 3088 2869 2813 
Q 3263 3394 3894 3394 
Q 4388 3394 4653 3120 
Q 4919 2847 4919 2278 
L 4919 0 
L 4359 0 
L 4359 2091 
Q 4359 2428 4304 2576 
Q 4250 2725 4106 2815 
Q 3963 2906 3769 2906 
Q 3419 2906 3187 2673 
Q 2956 2441 2956 1928 
L 2956 0 
L 2394 0 
L 2394 2156 
Q 2394 2531 2256 2718 
Q 2119 2906 1806 2906 
Q 1569 2906 1367 2781 
Q 1166 2656 1075 2415 
Q 984 2175 984 1722 
L 984 0 
L 422 0 
z
" transform="scale(0.015625)"/>
       <path id="ArialMT-65" d="M 2694 1069 
L 3275 997 
Q 3138 488 2766 206 
Q 2394 -75 1816 -75 
Q 1088 -75 661 373 
Q 234 822 234 1631 
Q 234 2469 665 2931 
Q 1097 3394 1784 3394 
Q 2450 3394 2872 2941 
Q 3294 2488 3294 1666 
Q 3294 1616 3291 1516 
L 816 1516 
Q 847 969 1125 678 
Q 1403 388 1819 388 
Q 2128 388 2347 550 
Q 2566 713 2694 1069 
z
M 847 1978 
L 2700 1978 
Q 2663 2397 2488 2606 
Q 2219 2931 1791 2931 
Q 1403 2931 1139 2672 
Q 875 2413 847 1978 
z
" transform="scale(0.015625)"/>
       <path id="ArialMT-20" transform="scale(0.015625)"/>
       <path id="ArialMT-73" d="M 197 991 
L 753 1078 
Q 800 744 1014 566 
Q 1228 388 1613 388 
Q 2000 388 2187 545 
Q 2375 703 2375 916 
Q 2375 1106 2209 1216 
Q 2094 1291 1634 1406 
Q 1016 1563 777 1677 
Q 538 1791 414 1992 
Q 291 2194 291 2438 
Q 291 2659 392 2848 
Q 494 3038 669 3163 
Q 800 3259 1026 3326 
Q 1253 3394 1513 3394 
Q 1903 3394 2198 3281 
Q 2494 3169 2634 2976 
Q 2775 2784 2828 2463 
L 2278 2388 
Q 2241 2644 2061 2787 
Q 1881 2931 1553 2931 
Q 1166 2931 1000 2803 
Q 834 2675 834 2503 
Q 834 2394 903 2306 
Q 972 2216 1119 2156 
Q 1203 2125 1616 2013 
Q 2213 1853 2448 1751 
Q 2684 1650 2818 1456 
Q 2953 1263 2953 975 
Q 2953 694 2789 445 
Q 2625 197 2315 61 
Q 2006 -75 1616 -75 
Q 969 -75 630 194 
Q 291 463 197 991 
z
" transform="scale(0.015625)"/>
       <path id="ArialMT-70" d="M 422 -1272 
L 422 3319 
L 934 3319 
L 934 2888 
Q 1116 3141 1344 3267 
Q 1572 3394 1897 3394 
Q 2322 3394 2647 3175 
Q 2972 2956 3137 2557 
Q 3303 2159 3303 1684 
Q 3303 1175 3120 767 
Q 2938 359 2589 142 
Q 2241 -75 1856 -75 
Q 1575 -75 1351 44 
Q 1128 163 984 344 
L 984 -1272 
L 422 -1272 
z
M 931 1641 
Q 931 1000 1190 694 
Q 1450 388 1819 388 
Q 2194 388 2461 705 
Q 2728 1022 2728 1688 
Q 2728 2322 2467 2637 
Q 2206 2953 1844 2953 
Q 1484 2953 1207 2617 
Q 931 2281 931 1641 
z
" transform="scale(0.015625)"/>
      </defs>
      <use xlink:href="#ArialMT-74"/>
      <use xlink:href="#ArialMT-69" x="27.783203"/>
      <use xlink:href="#ArialMT-6d" x="50"/>
      <use xlink:href="#ArialMT-65" x="133.300781"/>
      <use xlink:href="#ArialMT-20" x="188.916016"/>
      <use xlink:href="#ArialMT-73" x="216.699219"/>
      <use xlink:href="#ArialMT-74" x="266.699219"/>
      <use xlink:href="#ArialMT-65" x="294.482422"/>
      <use xlink:href="#ArialMT-70" x="350.097656"/>
      <use xlink:href="#ArialMT-73" x="405.712891"/>
     </g>
    </g>
   </g>
   <g id="matplotlib.axis_2">
    <g id="ytick_1">
     <g id="line2d_7">
      <path d="M 122.645313 535.770787 
L 959.645313 535.770787 
" clip-path="url(#p1265ef2b67)" style="fill: none; stroke: #ffffff; stroke-linecap: round"/>
     </g>
     <g id="text_8">
      <!-- 400 -->
      <g style="fill: #262626" transform="translate(71.438281 544.718052) scale(0.25 -0.25)">
       <use xlink:href="#ArialMT-34"/>
       <use xlink:href="#ArialMT-30" x="55.615234"/>
       <use xlink:href="#ArialMT-30" x="111.230469"/>
      </g>
     </g>
    </g>
    <g id="ytick_2">
     <g id="line2d_8">
      <path d="M 122.645313 472.849438 
L 959.645313 472.849438 
" clip-path="url(#p1265ef2b67)" style="fill: none; stroke: #ffffff; stroke-linecap: round"/>
     </g>
     <g id="text_9">
      <!-- 500 -->
      <g style="fill: #262626" transform="translate(71.438281 481.796704) scale(0.25 -0.25)">
       <defs>
        <path id="ArialMT-35" d="M 266 1200 
L 856 1250 
Q 922 819 1161 601 
Q 1400 384 1738 384 
Q 2144 384 2425 690 
Q 2706 997 2706 1503 
Q 2706 1984 2436 2262 
Q 2166 2541 1728 2541 
Q 1456 2541 1237 2417 
Q 1019 2294 894 2097 
L 366 2166 
L 809 4519 
L 3088 4519 
L 3088 3981 
L 1259 3981 
L 1013 2750 
Q 1425 3038 1878 3038 
Q 2478 3038 2890 2622 
Q 3303 2206 3303 1553 
Q 3303 931 2941 478 
Q 2500 -78 1738 -78 
Q 1113 -78 717 272 
Q 322 622 266 1200 
z
" transform="scale(0.015625)"/>
       </defs>
       <use xlink:href="#ArialMT-35"/>
       <use xlink:href="#ArialMT-30" x="55.615234"/>
       <use xlink:href="#ArialMT-30" x="111.230469"/>
      </g>
     </g>
    </g>
    <g id="ytick_3">
     <g id="line2d_9">
      <path d="M 122.645313 409.92809 
L 959.645313 409.92809 
" clip-path="url(#p1265ef2b67)" style="fill: none; stroke: #ffffff; stroke-linecap: round"/>
     </g>
     <g id="text_10">
      <!-- 600 -->
      <g style="fill: #262626" transform="translate(71.438281 418.875356) scale(0.25 -0.25)">
       <use xlink:href="#ArialMT-36"/>
       <use xlink:href="#ArialMT-30" x="55.615234"/>
       <use xlink:href="#ArialMT-30" x="111.230469"/>
      </g>
     </g>
    </g>
    <g id="ytick_4">
     <g id="line2d_10">
      <path d="M 122.645313 347.006742 
L 959.645313 347.006742 
" clip-path="url(#p1265ef2b67)" style="fill: none; stroke: #ffffff; stroke-linecap: round"/>
     </g>
     <g id="text_11">
      <!-- 700 -->
      <g style="fill: #262626" transform="translate(71.438281 355.954007) scale(0.25 -0.25)">
       <defs>
        <path id="ArialMT-37" d="M 303 3981 
L 303 4522 
L 3269 4522 
L 3269 4084 
Q 2831 3619 2401 2847 
Q 1972 2075 1738 1259 
Q 1569 684 1522 0 
L 944 0 
Q 953 541 1156 1306 
Q 1359 2072 1739 2783 
Q 2119 3494 2547 3981 
L 303 3981 
z
" transform="scale(0.015625)"/>
       </defs>
       <use xlink:href="#ArialMT-37"/>
       <use xlink:href="#ArialMT-30" x="55.615234"/>
       <use xlink:href="#ArialMT-30" x="111.230469"/>
      </g>
     </g>
    </g>
    <g id="ytick_5">
     <g id="line2d_11">
      <path d="M 122.645313 284.085393 
L 959.645313 284.085393 
" clip-path="url(#p1265ef2b67)" style="fill: none; stroke: #ffffff; stroke-linecap: round"/>
     </g>
     <g id="text_12">
      <!-- 800 -->
      <g style="fill: #262626" transform="translate(71.438281 293.032659) scale(0.25 -0.25)">
       <use xlink:href="#ArialMT-38"/>
       <use xlink:href="#ArialMT-30" x="55.615234"/>
       <use xlink:href="#ArialMT-30" x="111.230469"/>
      </g>
     </g>
    </g>
    <g id="ytick_6">
     <g id="line2d_12">
      <path d="M 122.645313 221.164045 
L 959.645313 221.164045 
" clip-path="url(#p1265ef2b67)" style="fill: none; stroke: #ffffff; stroke-linecap: round"/>
     </g>
     <g id="text_13">
      <!-- 900 -->
      <g style="fill: #262626" transform="translate(71.438281 230.111311) scale(0.25 -0.25)">
       <defs>
        <path id="ArialMT-39" d="M 350 1059 
L 891 1109 
Q 959 728 1153 556 
Q 1347 384 1650 384 
Q 1909 384 2104 503 
Q 2300 622 2425 820 
Q 2550 1019 2634 1356 
Q 2719 1694 2719 2044 
Q 2719 2081 2716 2156 
Q 2547 1888 2255 1720 
Q 1963 1553 1622 1553 
Q 1053 1553 659 1965 
Q 266 2378 266 3053 
Q 266 3750 677 4175 
Q 1088 4600 1706 4600 
Q 2153 4600 2523 4359 
Q 2894 4119 3086 3673 
Q 3278 3228 3278 2384 
Q 3278 1506 3087 986 
Q 2897 466 2520 194 
Q 2144 -78 1638 -78 
Q 1100 -78 759 220 
Q 419 519 350 1059 
z
M 2653 3081 
Q 2653 3566 2395 3850 
Q 2138 4134 1775 4134 
Q 1400 4134 1122 3828 
Q 844 3522 844 3034 
Q 844 2597 1108 2323 
Q 1372 2050 1759 2050 
Q 2150 2050 2401 2323 
Q 2653 2597 2653 3081 
z
" transform="scale(0.015625)"/>
       </defs>
       <use xlink:href="#ArialMT-39"/>
       <use xlink:href="#ArialMT-30" x="55.615234"/>
       <use xlink:href="#ArialMT-30" x="111.230469"/>
      </g>
     </g>
    </g>
    <g id="ytick_7">
     <g id="line2d_13">
      <path d="M 122.645313 158.242697 
L 959.645313 158.242697 
" clip-path="url(#p1265ef2b67)" style="fill: none; stroke: #ffffff; stroke-linecap: round"/>
     </g>
     <g id="text_14">
      <!-- 1000 -->
      <g style="fill: #262626" transform="translate(57.535938 167.189962) scale(0.25 -0.25)">
       <use xlink:href="#ArialMT-31"/>
       <use xlink:href="#ArialMT-30" x="55.615234"/>
       <use xlink:href="#ArialMT-30" x="111.230469"/>
       <use xlink:href="#ArialMT-30" x="166.845703"/>
      </g>
     </g>
    </g>
    <g id="ytick_8">
     <g id="line2d_14">
      <path d="M 122.645313 95.321348 
L 959.645313 95.321348 
" clip-path="url(#p1265ef2b67)" style="fill: none; stroke: #ffffff; stroke-linecap: round"/>
     </g>
     <g id="text_15">
      <!-- 1100 -->
      <g style="fill: #262626" transform="translate(59.379688 104.268614) scale(0.25 -0.25)">
       <use xlink:href="#ArialMT-31"/>
       <use xlink:href="#ArialMT-31" x="48.240234"/>
       <use xlink:href="#ArialMT-30" x="103.855469"/>
       <use xlink:href="#ArialMT-30" x="159.470703"/>
      </g>
     </g>
    </g>
    <g id="ytick_9">
     <g id="line2d_15">
      <path d="M 122.645313 32.4 
L 959.645313 32.4 
" clip-path="url(#p1265ef2b67)" style="fill: none; stroke: #ffffff; stroke-linecap: round"/>
     </g>
     <g id="text_16">
      <!-- 1200 -->
      <g style="fill: #262626" transform="translate(57.535938 41.347266) scale(0.25 -0.25)">
       <use xlink:href="#ArialMT-31"/>
       <use xlink:href="#ArialMT-32" x="55.615234"/>
       <use xlink:href="#ArialMT-30" x="111.230469"/>
       <use xlink:href="#ArialMT-30" x="166.845703"/>
      </g>
     </g>
    </g>
    <g id="text_17">
     <!-- number of sheep -->
     <g style="fill: #262626" transform="translate(43.598438 472.005469) rotate(-90) scale(0.5 -0.5)">
      <defs>
       <path id="ArialMT-6e" d="M 422 0 
L 422 3319 
L 928 3319 
L 928 2847 
Q 1294 3394 1984 3394 
Q 2284 3394 2536 3286 
Q 2788 3178 2913 3003 
Q 3038 2828 3088 2588 
Q 3119 2431 3119 2041 
L 3119 0 
L 2556 0 
L 2556 2019 
Q 2556 2363 2490 2533 
Q 2425 2703 2258 2804 
Q 2091 2906 1866 2906 
Q 1506 2906 1245 2678 
Q 984 2450 984 1813 
L 984 0 
L 422 0 
z
" transform="scale(0.015625)"/>
       <path id="ArialMT-75" d="M 2597 0 
L 2597 488 
Q 2209 -75 1544 -75 
Q 1250 -75 995 37 
Q 741 150 617 320 
Q 494 491 444 738 
Q 409 903 409 1263 
L 409 3319 
L 972 3319 
L 972 1478 
Q 972 1038 1006 884 
Q 1059 663 1231 536 
Q 1403 409 1656 409 
Q 1909 409 2131 539 
Q 2353 669 2445 892 
Q 2538 1116 2538 1541 
L 2538 3319 
L 3100 3319 
L 3100 0 
L 2597 0 
z
" transform="scale(0.015625)"/>
       <path id="ArialMT-62" d="M 941 0 
L 419 0 
L 419 4581 
L 981 4581 
L 981 2947 
Q 1338 3394 1891 3394 
Q 2197 3394 2470 3270 
Q 2744 3147 2920 2923 
Q 3097 2700 3197 2384 
Q 3297 2069 3297 1709 
Q 3297 856 2875 390 
Q 2453 -75 1863 -75 
Q 1275 -75 941 416 
L 941 0 
z
M 934 1684 
Q 934 1088 1097 822 
Q 1363 388 1816 388 
Q 2184 388 2453 708 
Q 2722 1028 2722 1663 
Q 2722 2313 2464 2622 
Q 2206 2931 1841 2931 
Q 1472 2931 1203 2611 
Q 934 2291 934 1684 
z
" transform="scale(0.015625)"/>
       <path id="ArialMT-72" d="M 416 0 
L 416 3319 
L 922 3319 
L 922 2816 
Q 1116 3169 1280 3281 
Q 1444 3394 1641 3394 
Q 1925 3394 2219 3213 
L 2025 2691 
Q 1819 2813 1613 2813 
Q 1428 2813 1281 2702 
Q 1134 2591 1072 2394 
Q 978 2094 978 1738 
L 978 0 
L 416 0 
z
" transform="scale(0.015625)"/>
       <path id="ArialMT-6f" d="M 213 1659 
Q 213 2581 725 3025 
Q 1153 3394 1769 3394 
Q 2453 3394 2887 2945 
Q 3322 2497 3322 1706 
Q 3322 1066 3130 698 
Q 2938 331 2570 128 
Q 2203 -75 1769 -75 
Q 1072 -75 642 372 
Q 213 819 213 1659 
z
M 791 1659 
Q 791 1022 1069 705 
Q 1347 388 1769 388 
Q 2188 388 2466 706 
Q 2744 1025 2744 1678 
Q 2744 2294 2464 2611 
Q 2184 2928 1769 2928 
Q 1347 2928 1069 2612 
Q 791 2297 791 1659 
z
" transform="scale(0.015625)"/>
       <path id="ArialMT-66" d="M 556 0 
L 556 2881 
L 59 2881 
L 59 3319 
L 556 3319 
L 556 3672 
Q 556 4006 616 4169 
Q 697 4388 901 4523 
Q 1106 4659 1475 4659 
Q 1713 4659 2000 4603 
L 1916 4113 
Q 1741 4144 1584 4144 
Q 1328 4144 1222 4034 
Q 1116 3925 1116 3625 
L 1116 3319 
L 1763 3319 
L 1763 2881 
L 1116 2881 
L 1116 0 
L 556 0 
z
" transform="scale(0.015625)"/>
       <path id="ArialMT-68" d="M 422 0 
L 422 4581 
L 984 4581 
L 984 2938 
Q 1378 3394 1978 3394 
Q 2347 3394 2619 3248 
Q 2891 3103 3008 2847 
Q 3125 2591 3125 2103 
L 3125 0 
L 2563 0 
L 2563 2103 
Q 2563 2525 2380 2717 
Q 2197 2909 1863 2909 
Q 1613 2909 1392 2779 
Q 1172 2650 1078 2428 
Q 984 2206 984 1816 
L 984 0 
L 422 0 
z
" transform="scale(0.015625)"/>
      </defs>
      <use xlink:href="#ArialMT-6e"/>
      <use xlink:href="#ArialMT-75" x="55.615234"/>
      <use xlink:href="#ArialMT-6d" x="111.230469"/>
      <use xlink:href="#ArialMT-62" x="194.53125"/>
      <use xlink:href="#ArialMT-65" x="250.146484"/>
      <use xlink:href="#ArialMT-72" x="305.761719"/>
      <use xlink:href="#ArialMT-20" x="339.0625"/>
      <use xlink:href="#ArialMT-6f" x="366.845703"/>
      <use xlink:href="#ArialMT-66" x="422.460938"/>
      <use xlink:href="#ArialMT-20" x="450.244141"/>
      <use xlink:href="#ArialMT-73" x="478.027344"/>
      <use xlink:href="#ArialMT-68" x="528.027344"/>
      <use xlink:href="#ArialMT-65" x="583.642578"/>
      <use xlink:href="#ArialMT-65" x="639.257812"/>
      <use xlink:href="#ArialMT-70" x="694.873047"/>
     </g>
    </g>
   </g>
   <g id="line2d_16">
    <path d="M 160.690767 418.107865 
L 168.376717 429.433708 
L 176.062668 434.467416 
L 183.748618 438.242697 
L 191.434569 438.87191 
L 199.120519 445.164045 
L 206.80647 447.051685 
L 214.49242 457.119101 
L 222.17837 456.489888 
L 229.864321 454.602247 
L 237.550271 446.422472 
L 245.236222 452.085393 
L 252.922172 455.231461 
L 260.608122 460.894382 
L 268.294073 479.770787 
L 275.980023 494.87191 
L 283.665974 496.130337 
L 291.351924 498.647191 
L 299.037874 501.164045 
L 306.723825 506.826966 
L 314.409775 509.973034 
L 322.095726 513.119101 
L 329.781676 513.119101 
L 337.467627 501.793258 
L 345.153577 503.051685 
L 352.839527 503.051685 
L 360.525478 497.388764 
L 368.211428 505.568539 
L 375.897379 510.602247 
L 383.583329 510.602247 
L 391.269279 509.34382 
L 398.95523 506.197753 
L 406.64118 508.714607 
L 414.327131 511.231461 
L 422.013081 515.635955 
L 429.699032 521.92809 
L 437.384982 516.265169 
L 445.070932 511.860674 
L 452.756883 518.782022 
L 460.442833 518.152809 
L 468.128784 506.197753 
L 475.814734 499.276404 
L 483.500684 491.096629 
L 491.186635 489.208989 
L 498.872585 489.208989 
L 506.558536 482.28764 
L 514.244486 475.366292 
L 521.930436 465.92809 
L 529.616387 457.119101 
L 537.302337 445.793258 
L 544.988288 425.029213 
L 552.674238 408.040449 
L 560.360189 398.602247 
L 568.046139 387.905618 
L 575.732089 380.355056 
L 583.41804 372.175281 
L 591.10399 373.433708 
L 598.789941 363.995506 
L 606.475891 363.995506 
L 614.161841 365.253933 
L 621.847792 366.51236 
L 629.533742 365.253933 
L 637.219693 368.4 
L 644.905643 362.737079 
L 652.591593 358.332584 
L 660.277544 355.81573 
L 667.963494 335.680899 
L 675.649445 319.950562 
L 683.335395 309.253933 
L 691.021346 301.703371 
L 698.707296 297.298876 
L 706.393246 292.265169 
L 714.079197 296.040449 
L 721.765147 297.92809 
L 729.451098 298.557303 
L 737.137048 290.377528 
L 744.822998 285.34382 
L 752.508949 277.793258 
L 760.194899 263.950562 
L 767.88085 250.737079 
L 775.5668 249.478652 
L 783.252751 243.186517 
L 790.938701 240.040449 
L 798.624651 236.265169 
L 806.310602 226.197753 
L 813.996552 220.534831 
L 821.682503 206.062921 
L 829.368453 190.961798 
L 837.054403 174.602247 
L 844.740354 153.838202 
L 852.426304 143.770787 
L 860.112255 129.298876 
L 867.798205 119.231461 
L 875.484155 112.310112 
L 883.170106 120.489888 
L 890.856056 119.231461 
L 898.542007 118.602247 
L 906.227957 113.568539 
L 913.913908 110.422472 
L 921.599858 103.501124 
" clip-path="url(#p1265ef2b67)" style="fill: none; stroke: #46327e; stroke-width: 1.5; stroke-linecap: round"/>
   </g>
   <g id="line2d_17">
    <path d="M 160.690767 418.737079 
L 168.376717 442.017978 
L 176.062668 450.826966 
L 183.748618 463.411236 
L 191.434569 469.074157 
L 199.120519 470.332584 
L 206.80647 479.141573 
L 214.49242 489.838202 
L 222.17837 496.130337 
L 229.864321 501.793258 
L 237.550271 506.826966 
L 245.236222 506.826966 
L 252.922172 506.826966 
L 260.608122 513.119101 
L 268.294073 511.860674 
L 275.980023 505.568539 
L 283.665974 520.040449 
L 291.351924 526.961798 
L 299.037874 528.849438 
L 306.723825 528.849438 
L 314.409775 535.141573 
L 322.095726 536.4 
L 329.781676 526.961798 
L 337.467627 524.444944 
L 345.153577 525.703371 
L 352.839527 521.92809 
L 360.525478 521.92809 
L 368.211428 522.557303 
L 375.897379 520.669663 
L 383.583329 513.119101 
L 391.269279 505.568539 
L 398.95523 503.051685 
L 406.64118 499.905618 
L 414.327131 494.87191 
L 422.013081 492.355056 
L 429.699032 496.759551 
L 437.384982 495.501124 
L 445.070932 484.175281 
L 452.756883 476.624719 
L 460.442833 472.849438 
L 468.128784 472.220225 
L 475.814734 465.92809 
L 483.500684 465.92809 
L 491.186635 463.411236 
L 498.872585 455.231461 
L 506.558536 448.310112 
L 514.244486 448.939326 
L 521.930436 442.017978 
L 529.616387 442.017978 
L 537.302337 435.096629 
L 544.988288 426.28764 
L 552.674238 433.208989 
L 560.360189 428.804494 
L 568.046139 419.995506 
L 575.732089 414.332584 
L 583.41804 417.478652 
L 591.10399 411.81573 
L 598.789941 410.557303 
L 606.475891 401.119101 
L 614.161841 384.759551 
L 621.847792 369.658427 
L 629.533742 359.591011 
L 637.219693 347.635955 
L 644.905643 334.422472 
L 652.591593 319.950562 
L 660.277544 301.074157 
L 667.963494 293.523596 
L 675.649445 288.489888 
L 683.335395 274.647191 
L 691.021346 260.175281 
L 698.707296 255.141573 
L 706.393246 245.703371 
L 714.079197 245.703371 
L 721.765147 241.298876 
L 729.451098 247.591011 
L 737.137048 236.265169 
L 744.822998 226.197753 
L 752.508949 219.905618 
L 760.194899 209.208989 
L 767.88085 205.433708 
L 775.5668 194.107865 
L 783.252751 187.81573 
L 790.938701 179.635955 
L 798.624651 179.006742 
L 806.310602 179.006742 
L 813.996552 176.489888 
L 821.682503 175.860674 
L 829.368453 168.310112 
L 837.054403 156.98427 
L 844.740354 153.838202 
L 852.426304 145.658427 
L 860.112255 134.961798 
L 867.798205 114.197753 
L 875.484155 111.051685 
L 883.170106 89.658427 
L 890.856056 77.074157 
L 898.542007 67.006742 
L 906.227957 72.669663 
L 913.913908 75.186517 
L 921.599858 81.478652 
" clip-path="url(#p1265ef2b67)" style="fill: none; stroke: #365c8d; stroke-width: 1.5; stroke-linecap: round"/>
   </g>
   <g id="line2d_18">
    <path d="M 160.690767 419.366292 
L 168.376717 433.208989 
L 176.062668 438.242697 
L 183.748618 446.422472 
L 191.434569 451.45618 
L 199.120519 444.534831 
L 206.80647 453.973034 
L 214.49242 467.81573 
L 222.17837 475.366292 
L 229.864321 492.355056 
L 237.550271 495.501124 
L 245.236222 494.87191 
L 252.922172 500.534831 
L 260.608122 499.905618 
L 268.294073 498.647191 
L 275.980023 498.017978 
L 283.665974 500.534831 
L 291.351924 509.973034 
L 299.037874 506.826966 
L 306.723825 510.602247 
L 314.409775 506.197753 
L 322.095726 498.017978 
L 329.781676 494.242697 
L 337.467627 490.467416 
L 345.153577 494.87191 
L 352.839527 492.355056 
L 360.525478 482.916854 
L 368.211428 479.141573 
L 375.897379 474.737079 
L 383.583329 475.995506 
L 391.269279 470.961798 
L 398.95523 470.961798 
L 406.64118 459.635955 
L 414.327131 448.310112 
L 422.013081 434.467416 
L 429.699032 419.995506 
L 437.384982 404.265169 
L 445.070932 389.164045 
L 452.756883 378.467416 
L 460.442833 375.321348 
L 468.128784 372.175281 
L 475.814734 362.737079 
L 483.500684 358.961798 
L 491.186635 358.961798 
L 498.872585 348.265169 
L 506.558536 337.568539 
L 514.244486 326.87191 
L 521.930436 326.242697 
L 529.616387 321.208989 
L 537.302337 324.355056 
L 544.988288 322.467416 
L 552.674238 326.242697 
L 560.360189 324.355056 
L 568.046139 328.759551 
L 575.732089 324.355056 
L 583.41804 326.242697 
L 591.10399 328.759551 
L 598.789941 336.939326 
L 606.475891 339.45618 
L 614.161841 340.085393 
L 621.847792 341.34382 
L 629.533742 335.680899 
L 637.219693 336.310112 
L 644.905643 330.017978 
L 652.591593 327.501124 
L 660.277544 321.208989 
L 667.963494 320.579775 
L 675.649445 311.141573 
L 683.335395 295.411236 
L 691.021346 280.939326 
L 698.707296 271.501124 
L 706.393246 258.28764 
L 714.079197 260.804494 
L 721.765147 256.4 
L 729.451098 248.849438 
L 737.137048 245.703371 
L 744.822998 240.669663 
L 752.508949 227.45618 
L 760.194899 222.422472 
L 767.88085 212.98427 
L 775.5668 210.467416 
L 783.252751 214.242697 
L 790.938701 210.467416 
L 798.624651 207.950562 
L 806.310602 221.793258 
L 813.996552 227.45618 
L 821.682503 229.973034 
L 829.368453 227.45618 
L 837.054403 218.017978 
L 844.740354 197.253933 
L 852.426304 183.411236 
L 860.112255 182.152809 
L 867.798205 175.860674 
L 875.484155 168.939326 
L 883.170106 165.164045 
L 890.856056 151.950562 
L 898.542007 130.557303 
L 906.227957 124.265169 
L 913.913908 123.006742 
L 921.599858 118.602247 
" clip-path="url(#p1265ef2b67)" style="fill: none; stroke: #277f8e; stroke-width: 1.5; stroke-linecap: round"/>
   </g>
   <g id="line2d_19">
    <path d="M 160.690767 423.141573 
L 168.376717 442.647191 
L 176.062668 450.197753 
L 183.748618 447.680899 
L 191.434569 443.905618 
L 199.120519 441.388764 
L 206.80647 436.98427 
L 214.49242 444.534831 
L 222.17837 447.051685 
L 229.864321 451.45618 
L 237.550271 457.119101 
L 245.236222 466.557303 
L 252.922172 488.579775 
L 260.608122 488.579775 
L 268.294073 491.725843 
L 275.980023 501.164045 
L 283.665974 510.602247 
L 291.351924 515.635955 
L 299.037874 521.298876 
L 306.723825 517.523596 
L 314.409775 508.085393 
L 322.095726 500.534831 
L 329.781676 499.905618 
L 337.467627 497.388764 
L 345.153577 499.905618 
L 352.839527 502.422472 
L 360.525478 502.422472 
L 368.211428 508.714607 
L 375.897379 508.714607 
L 383.583329 508.085393 
L 391.269279 505.568539 
L 398.95523 502.422472 
L 406.64118 500.534831 
L 414.327131 502.422472 
L 422.013081 496.759551 
L 429.699032 498.647191 
L 437.384982 499.276404 
L 445.070932 496.759551 
L 452.756883 491.725843 
L 460.442833 485.433708 
L 468.128784 475.995506 
L 475.814734 476.624719 
L 483.500684 470.961798 
L 491.186635 469.074157 
L 498.872585 463.411236 
L 506.558536 455.231461 
L 514.244486 448.310112 
L 521.930436 439.501124 
L 529.616387 439.501124 
L 537.302337 439.501124 
L 544.988288 430.062921 
L 552.674238 418.107865 
L 560.360189 402.377528 
L 568.046139 396.085393 
L 575.732089 387.276404 
L 583.41804 388.534831 
L 591.10399 374.062921 
L 598.789941 363.995506 
L 606.475891 359.591011 
L 614.161841 349.523596 
L 621.847792 331.905618 
L 629.533742 330.017978 
L 637.219693 322.467416 
L 644.905643 316.804494 
L 652.591593 305.478652 
L 660.277544 296.040449 
L 667.963494 296.669663 
L 675.649445 294.782022 
L 683.335395 279.680899 
L 691.021346 277.164045 
L 698.707296 275.905618 
L 706.393246 260.175281 
L 714.079197 262.062921 
L 721.765147 248.220225 
L 729.451098 236.894382 
L 737.137048 233.119101 
L 744.822998 224.939326 
L 752.508949 206.062921 
L 760.194899 193.478652 
L 767.88085 202.916854 
L 775.5668 193.478652 
L 783.252751 184.669663 
L 790.938701 160.130337 
L 798.624651 159.501124 
L 806.310602 150.692135 
L 813.996552 130.557303 
L 821.682503 126.782022 
L 829.368453 116.085393 
L 837.054403 102.87191 
L 844.740354 89.029213 
L 852.426304 75.81573 
L 860.112255 56.310112 
L 867.798205 53.793258 
L 875.484155 44.355056 
L 883.170106 39.321348 
L 890.856056 32.4 
L 898.542007 32.4 
L 906.227957 32.4 
L 913.913908 32.4 
L 921.599858 32.4 
" clip-path="url(#p1265ef2b67)" style="fill: none; stroke: #1fa187; stroke-width: 1.5; stroke-linecap: round"/>
   </g>
   <g id="line2d_20">
    <path d="M 160.690767 419.995506 
L 168.376717 439.501124 
L 176.062668 446.422472 
L 183.748618 447.051685 
L 191.434569 447.680899 
L 199.120519 449.568539 
L 206.80647 451.45618 
L 214.49242 452.714607 
L 222.17837 456.489888 
L 229.864321 454.602247 
L 237.550271 450.197753 
L 245.236222 450.197753 
L 252.922172 447.680899 
L 260.608122 450.826966 
L 268.294073 447.680899 
L 275.980023 438.87191 
L 283.665974 435.725843 
L 291.351924 440.130337 
L 299.037874 446.422472 
L 306.723825 443.905618 
L 314.409775 451.45618 
L 322.095726 457.748315 
L 329.781676 453.973034 
L 337.467627 453.973034 
L 345.153577 450.826966 
L 352.839527 455.860674 
L 360.525478 459.635955 
L 368.211428 455.231461 
L 375.897379 452.714607 
L 383.583329 452.085393 
L 391.269279 455.860674 
L 398.95523 454.602247 
L 406.64118 446.422472 
L 414.327131 442.017978 
L 422.013081 435.725843 
L 429.699032 434.467416 
L 437.384982 430.692135 
L 445.070932 431.321348 
L 452.756883 437.613483 
L 460.442833 438.242697 
L 468.128784 434.467416 
L 475.814734 430.062921 
L 483.500684 419.995506 
L 491.186635 412.444944 
L 498.872585 413.703371 
L 506.558536 409.92809 
L 514.244486 404.265169 
L 521.930436 392.939326 
L 529.616387 391.680899 
L 537.302337 384.759551 
L 544.988288 382.87191 
L 552.674238 374.062921 
L 560.360189 369.658427 
L 568.046139 365.253933 
L 575.732089 360.220225 
L 583.41804 353.92809 
L 591.10399 353.298876 
L 598.789941 358.332584 
L 606.475891 362.737079 
L 614.161841 357.074157 
L 621.847792 340.085393 
L 629.533742 326.242697 
L 637.219693 319.950562 
L 644.905643 316.804494 
L 652.591593 311.141573 
L 660.277544 313.029213 
L 667.963494 314.28764 
L 675.649445 310.51236 
L 683.335395 302.332584 
L 691.021346 306.737079 
L 698.707296 303.591011 
L 706.393246 295.411236 
L 714.079197 294.782022 
L 721.765147 279.051685 
L 729.451098 268.98427 
L 737.137048 253.883146 
L 744.822998 262.692135 
L 752.508949 258.916854 
L 760.194899 263.321348 
L 767.88085 251.995506 
L 775.5668 237.523596 
L 783.252751 234.377528 
L 790.938701 224.939326 
L 798.624651 225.568539 
L 806.310602 223.051685 
L 813.996552 228.714607 
L 821.682503 234.377528 
L 829.368453 235.635955 
L 837.054403 222.422472 
L 844.740354 211.096629 
L 852.426304 202.916854 
L 860.112255 204.175281 
L 867.798205 200.4 
L 875.484155 194.737079 
L 883.170106 194.107865 
L 890.856056 189.074157 
L 898.542007 182.152809 
L 906.227957 181.523596 
L 913.913908 184.669663 
L 921.599858 175.231461 
" clip-path="url(#p1265ef2b67)" style="fill: none; stroke: #4ac16d; stroke-width: 1.5; stroke-linecap: round"/>
   </g>
   <g id="line2d_21">
    <path d="M 160.690767 424.4 
L 168.376717 430.692135 
L 176.062668 434.467416 
L 183.748618 439.501124 
L 191.434569 438.87191 
L 199.120519 443.905618 
L 206.80647 447.051685 
L 214.49242 457.119101 
L 222.17837 457.119101 
L 229.864321 459.635955 
L 237.550271 465.92809 
L 245.236222 467.186517 
L 252.922172 472.849438 
L 260.608122 472.220225 
L 268.294073 476.624719 
L 275.980023 474.107865 
L 283.665974 477.253933 
L 291.351924 477.253933 
L 299.037874 487.950562 
L 306.723825 492.98427 
L 314.409775 490.467416 
L 322.095726 489.838202 
L 329.781676 486.062921 
L 337.467627 475.366292 
L 345.153577 466.557303 
L 352.839527 462.782022 
L 360.525478 462.782022 
L 368.211428 454.602247 
L 375.897379 467.81573 
L 383.583329 471.591011 
L 391.269279 475.995506 
L 398.95523 475.995506 
L 406.64118 467.186517 
L 414.327131 457.119101 
L 422.013081 452.085393 
L 429.699032 447.051685 
L 437.384982 440.759551 
L 445.070932 432.579775 
L 452.756883 417.478652 
L 460.442833 411.81573 
L 468.128784 404.894382 
L 475.814734 406.152809 
L 483.500684 416.849438 
L 491.186635 426.28764 
L 498.872585 429.433708 
L 506.558536 431.950562 
L 514.244486 426.28764 
L 521.930436 408.669663 
L 529.616387 397.34382 
L 537.302337 396.085393 
L 544.988288 377.838202 
L 552.674238 383.501124 
L 560.360189 377.208989 
L 568.046139 374.062921 
L 575.732089 360.849438 
L 583.41804 347.635955 
L 591.10399 344.489888 
L 598.789941 346.377528 
L 606.475891 340.085393 
L 614.161841 338.197753 
L 621.847792 333.793258 
L 629.533742 324.98427 
L 637.219693 319.950562 
L 644.905643 311.770787 
L 652.591593 316.175281 
L 660.277544 318.062921 
L 667.963494 301.703371 
L 675.649445 296.040449 
L 683.335395 277.164045 
L 691.021346 272.130337 
L 698.707296 274.647191 
L 706.393246 277.164045 
L 714.079197 280.939326 
L 721.765147 278.422472 
L 729.451098 276.534831 
L 737.137048 275.276404 
L 744.822998 273.388764 
L 752.508949 277.164045 
L 760.194899 280.310112 
L 767.88085 277.793258 
L 775.5668 277.164045 
L 783.252751 266.467416 
L 790.938701 258.28764 
L 798.624651 251.995506 
L 806.310602 251.995506 
L 813.996552 252.624719 
L 821.682503 255.141573 
L 829.368453 245.703371 
L 837.054403 242.557303 
L 844.740354 241.298876 
L 852.426304 232.489888 
L 860.112255 235.006742 
L 867.798205 230.602247 
L 875.484155 235.635955 
L 883.170106 229.973034 
L 890.856056 229.34382 
L 898.542007 221.164045 
L 906.227957 214.242697 
L 913.913908 193.478652 
L 921.599858 183.411236 
" clip-path="url(#p1265ef2b67)" style="fill: none; stroke: #a0da39; stroke-width: 1.5; stroke-linecap: round"/>
   </g>
   <g id="line2d_22">
    <path d="M 160.690767 424.4 
L 168.376717 438.242697 
L 176.062668 445.164045 
L 183.748618 455.231461 
L 191.434569 460.894382 
L 199.120519 466.557303 
L 206.80647 475.366292 
L 214.49242 487.950562 
L 222.17837 494.87191 
L 229.864321 499.905618 
L 237.550271 500.534831 
L 245.236222 501.793258 
L 252.922172 499.905618 
L 260.608122 496.130337 
L 268.294073 503.051685 
L 275.980023 503.051685 
L 283.665974 496.130337 
L 291.351924 492.98427 
L 299.037874 491.096629 
L 306.723825 492.355056 
L 314.409775 493.613483 
L 322.095726 492.355056 
L 329.781676 484.175281 
L 337.467627 481.658427 
L 345.153577 472.849438 
L 352.839527 471.591011 
L 360.525478 479.770787 
L 368.211428 479.770787 
L 375.897379 476.624719 
L 383.583329 473.478652 
L 391.269279 473.478652 
L 398.95523 479.770787 
L 406.64118 480.4 
L 414.327131 477.253933 
L 422.013081 468.444944 
L 429.699032 464.040449 
L 437.384982 460.894382 
L 445.070932 459.635955 
L 452.756883 449.568539 
L 460.442833 440.759551 
L 468.128784 434.467416 
L 475.814734 437.613483 
L 483.500684 436.98427 
L 491.186635 429.433708 
L 498.872585 423.141573 
L 506.558536 425.658427 
L 514.244486 420.624719 
L 521.930436 417.478652 
L 529.616387 414.332584 
L 537.302337 413.703371 
L 544.988288 405.523596 
L 552.674238 396.714607 
L 560.360189 390.422472 
L 568.046139 380.355056 
L 575.732089 370.28764 
L 583.41804 355.81573 
L 591.10399 340.714607 
L 598.789941 347.635955 
L 606.475891 336.310112 
L 614.161841 321.838202 
L 621.847792 318.062921 
L 629.533742 309.253933 
L 637.219693 293.523596 
L 644.905643 304.220225 
L 652.591593 302.332584 
L 660.277544 302.961798 
L 667.963494 306.737079 
L 675.649445 300.444944 
L 683.335395 301.074157 
L 691.021346 295.411236 
L 698.707296 298.557303 
L 706.393246 299.81573 
L 714.079197 290.377528 
L 721.765147 285.34382 
L 729.451098 280.310112 
L 737.137048 274.647191 
L 744.822998 270.242697 
L 752.508949 270.87191 
L 760.194899 263.950562 
L 767.88085 249.478652 
L 775.5668 241.92809 
L 783.252751 239.411236 
L 790.938701 226.197753 
L 798.624651 218.017978 
L 806.310602 199.770787 
L 813.996552 185.92809 
L 821.682503 180.265169 
L 829.368453 165.164045 
L 837.054403 156.98427 
L 844.740354 147.546067 
L 852.426304 134.961798 
L 860.112255 117.34382 
L 867.798205 112.939326 
L 875.484155 111.680899 
L 883.170106 109.164045 
L 890.856056 110.422472 
L 898.542007 109.793258 
L 906.227957 105.388764 
L 913.913908 97.838202 
L 921.599858 97.838202 
" clip-path="url(#p1265ef2b67)" style="fill: none; stroke: #46327e; stroke-width: 1.5; stroke-linecap: round"/>
   </g>
   <g id="line2d_23">
    <path d="M 160.690767 416.849438 
L 168.376717 434.467416 
L 176.062668 446.422472 
L 183.748618 445.164045 
L 191.434569 447.680899 
L 199.120519 444.534831 
L 206.80647 454.602247 
L 214.49242 460.265169 
L 222.17837 469.074157 
L 229.864321 475.366292 
L 237.550271 479.141573 
L 245.236222 489.838202 
L 252.922172 490.467416 
L 260.608122 483.546067 
L 268.294073 494.87191 
L 275.980023 495.501124 
L 283.665974 496.130337 
L 291.351924 497.388764 
L 299.037874 509.973034 
L 306.723825 516.265169 
L 314.409775 515.635955 
L 322.095726 520.040449 
L 329.781676 521.298876 
L 337.467627 520.040449 
L 345.153577 518.782022 
L 352.839527 516.894382 
L 360.525478 512.489888 
L 368.211428 499.276404 
L 375.897379 492.355056 
L 383.583329 484.804494 
L 391.269279 480.4 
L 398.95523 486.692135 
L 406.64118 489.838202 
L 414.327131 492.355056 
L 422.013081 489.208989 
L 429.699032 492.355056 
L 437.384982 488.579775 
L 445.070932 479.141573 
L 452.756883 475.366292 
L 460.442833 475.366292 
L 468.128784 468.444944 
L 475.814734 462.152809 
L 483.500684 459.006742 
L 491.186635 448.310112 
L 498.872585 438.87191 
L 506.558536 435.725843 
L 514.244486 422.51236 
L 521.930436 422.51236 
L 529.616387 416.849438 
L 537.302337 414.332584 
L 544.988288 417.478652 
L 552.674238 408.040449 
L 560.360189 399.231461 
L 568.046139 389.164045 
L 575.732089 380.355056 
L 583.41804 372.175281 
L 591.10399 361.478652 
L 598.789941 348.894382 
L 606.475891 337.568539 
L 614.161841 319.321348 
L 621.847792 312.4 
L 629.533742 301.703371 
L 637.219693 284.085393 
L 644.905643 280.939326 
L 652.591593 274.647191 
L 660.277544 260.804494 
L 667.963494 261.433708 
L 675.649445 258.28764 
L 683.335395 260.804494 
L 691.021346 255.770787 
L 698.707296 251.366292 
L 706.393246 243.81573 
L 714.079197 227.45618 
L 721.765147 211.096629 
L 729.451098 201.029213 
L 737.137048 190.961798 
L 744.822998 188.444944 
L 752.508949 191.591011 
L 760.194899 180.894382 
L 767.88085 176.489888 
L 775.5668 173.973034 
L 783.252751 166.422472 
L 790.938701 156.355056 
L 798.624651 146.916854 
L 806.310602 125.523596 
L 813.996552 109.164045 
L 821.682503 90.28764 
L 829.368453 70.782022 
L 837.054403 43.096629 
L 844.740354 37.433708 
L 852.426304 32.4 
L 860.112255 32.4 
L 867.798205 32.4 
L 875.484155 32.4 
L 883.170106 32.4 
L 890.856056 32.4 
L 898.542007 32.4 
L 906.227957 32.4 
L 913.913908 32.4 
L 921.599858 32.4 
" clip-path="url(#p1265ef2b67)" style="fill: none; stroke: #365c8d; stroke-width: 1.5; stroke-linecap: round"/>
   </g>
   <g id="line2d_24">
    <path d="M 160.690767 429.433708 
L 168.376717 445.793258 
L 176.062668 457.748315 
L 183.748618 465.298876 
L 191.434569 467.186517 
L 199.120519 466.557303 
L 206.80647 462.782022 
L 214.49242 460.265169 
L 222.17837 455.231461 
L 229.864321 453.34382 
L 237.550271 455.860674 
L 245.236222 456.489888 
L 252.922172 460.894382 
L 260.608122 468.444944 
L 268.294073 473.478652 
L 275.980023 481.658427 
L 283.665974 487.321348 
L 291.351924 495.501124 
L 299.037874 497.388764 
L 306.723825 494.242697 
L 314.409775 491.096629 
L 322.095726 489.208989 
L 329.781676 479.770787 
L 337.467627 482.916854 
L 345.153577 481.029213 
L 352.839527 473.478652 
L 360.525478 474.737079 
L 368.211428 471.591011 
L 375.897379 474.737079 
L 383.583329 477.883146 
L 391.269279 473.478652 
L 398.95523 472.849438 
L 406.64118 475.366292 
L 414.327131 479.141573 
L 422.013081 478.51236 
L 429.699032 477.883146 
L 437.384982 475.995506 
L 445.070932 470.332584 
L 452.756883 478.51236 
L 460.442833 474.107865 
L 468.128784 468.444944 
L 475.814734 467.186517 
L 483.500684 467.81573 
L 491.186635 467.81573 
L 498.872585 468.444944 
L 506.558536 472.849438 
L 514.244486 467.186517 
L 521.930436 463.411236 
L 529.616387 455.860674 
L 537.302337 445.793258 
L 544.988288 435.096629 
L 552.674238 433.838202 
L 560.360189 419.995506 
L 568.046139 403.006742 
L 575.732089 383.501124 
L 583.41804 386.017978 
L 591.10399 377.208989 
L 598.789941 378.467416 
L 606.475891 372.804494 
L 614.161841 362.107865 
L 621.847792 352.669663 
L 629.533742 335.680899 
L 637.219693 326.87191 
L 644.905643 328.759551 
L 652.591593 326.242697 
L 660.277544 326.87191 
L 667.963494 323.096629 
L 675.649445 313.658427 
L 683.335395 298.557303 
L 691.021346 296.040449 
L 698.707296 290.377528 
L 706.393246 278.422472 
L 714.079197 267.725843 
L 721.765147 257.029213 
L 729.451098 250.737079 
L 737.137048 250.737079 
L 744.822998 243.81573 
L 752.508949 236.265169 
L 760.194899 226.197753 
L 767.88085 212.98427 
L 775.5668 206.692135 
L 783.252751 193.478652 
L 790.938701 195.995506 
L 798.624651 183.411236 
L 806.310602 179.006742 
L 813.996552 177.119101 
L 821.682503 170.197753 
L 829.368453 166.422472 
L 837.054403 167.680899 
L 844.740354 165.164045 
L 852.426304 160.130337 
L 860.112255 156.98427 
L 867.798205 159.501124 
L 875.484155 154.467416 
L 883.170106 144.4 
L 890.856056 134.332584 
L 898.542007 129.298876 
L 906.227957 114.197753 
L 913.913908 98.467416 
L 921.599858 87.770787 
" clip-path="url(#p1265ef2b67)" style="fill: none; stroke: #277f8e; stroke-width: 1.5; stroke-linecap: round"/>
   </g>
   <g id="line2d_25">
    <path d="M 160.690767 419.366292 
L 168.376717 438.87191 
L 176.062668 445.164045 
L 183.748618 454.602247 
L 191.434569 456.489888 
L 199.120519 463.411236 
L 206.80647 470.332584 
L 214.49242 477.253933 
L 222.17837 469.703371 
L 229.864321 460.265169 
L 237.550271 443.905618 
L 245.236222 445.793258 
L 252.922172 461.523596 
L 260.608122 460.265169 
L 268.294073 465.298876 
L 275.980023 464.040449 
L 283.665974 458.377528 
L 291.351924 464.669663 
L 299.037874 462.782022 
L 306.723825 472.849438 
L 314.409775 466.557303 
L 322.095726 461.523596 
L 329.781676 458.377528 
L 337.467627 452.085393 
L 345.153577 454.602247 
L 352.839527 457.119101 
L 360.525478 452.714607 
L 368.211428 444.534831 
L 375.897379 442.017978 
L 383.583329 443.276404 
L 391.269279 448.310112 
L 398.95523 438.87191 
L 406.64118 431.321348 
L 414.327131 423.770787 
L 422.013081 425.658427 
L 429.699032 415.591011 
L 437.384982 413.074157 
L 445.070932 407.411236 
L 452.756883 399.231461 
L 460.442833 386.017978 
L 468.128784 379.096629 
L 475.814734 380.98427 
L 483.500684 383.501124 
L 491.186635 384.759551 
L 498.872585 380.355056 
L 506.558536 378.467416 
L 514.244486 379.096629 
L 521.930436 370.28764 
L 529.616387 359.591011 
L 537.302337 366.51236 
L 544.988288 360.849438 
L 552.674238 353.298876 
L 560.360189 345.119101 
L 568.046139 333.793258 
L 575.732089 327.501124 
L 583.41804 318.692135 
L 591.10399 320.579775 
L 598.789941 319.321348 
L 606.475891 319.321348 
L 614.161841 313.658427 
L 621.847792 304.849438 
L 629.533742 300.444944 
L 637.219693 295.411236 
L 644.905643 292.265169 
L 652.591593 292.894382 
L 660.277544 297.298876 
L 667.963494 288.489888 
L 675.649445 285.973034 
L 683.335395 276.534831 
L 691.021346 263.950562 
L 698.707296 257.029213 
L 706.393246 252.624719 
L 714.079197 254.51236 
L 721.765147 243.81573 
L 729.451098 225.568539 
L 737.137048 197.253933 
L 744.822998 195.366292 
L 752.508949 181.523596 
L 760.194899 170.197753 
L 767.88085 162.647191 
L 775.5668 158.87191 
L 783.252751 154.467416 
L 790.938701 150.692135 
L 798.624651 148.175281 
L 806.310602 153.208989 
L 813.996552 157.613483 
L 821.682503 149.433708 
L 829.368453 137.478652 
L 837.054403 124.265169 
L 844.740354 121.119101 
L 852.426304 113.568539 
L 860.112255 107.276404 
L 867.798205 106.017978 
L 875.484155 93.433708 
L 883.170106 99.725843 
L 890.856056 87.770787 
L 898.542007 71.411236 
L 906.227957 62.602247 
L 913.913908 33.658427 
L 921.599858 32.4 
" clip-path="url(#p1265ef2b67)" style="fill: none; stroke: #1fa187; stroke-width: 1.5; stroke-linecap: round"/>
   </g>
   <g id="patch_3">
    <path d="M 122.645313 561.6 
L 122.645313 7.2 
" style="fill: none; stroke: #ffffff; stroke-width: 1.25; stroke-linejoin: miter; stroke-linecap: square"/>
   </g>
   <g id="patch_4">
    <path d="M 959.645313 561.6 
L 959.645313 7.2 
" style="fill: none; stroke: #ffffff; stroke-width: 1.25; stroke-linejoin: miter; stroke-linecap: square"/>
   </g>
   <g id="patch_5">
    <path d="M 122.645313 561.6 
L 959.645313 561.6 
" style="fill: none; stroke: #ffffff; stroke-width: 1.25; stroke-linejoin: miter; stroke-linecap: square"/>
   </g>
   <g id="patch_6">
    <path d="M 122.645313 7.2 
L 959.645313 7.2 
" style="fill: none; stroke: #ffffff; stroke-width: 1.25; stroke-linejoin: miter; stroke-linecap: square"/>
   </g>
  </g>
 </g>
 <defs>
  <clipPath id="p1265ef2b67">
   <rect x="122.645313" y="7.2" width="837" height="554.4"/>
  </clipPath>
 </defs>
</svg>
