<?xml version="1.0" encoding="utf-8" standalone="no"?>
<!DOCTYPE svg PUBLIC "-//W3C//DTD SVG 1.1//EN"
  "http://www.w3.org/Graphics/SVG/1.1/DTD/svg11.dtd">
<svg xmlns:xlink="http://www.w3.org/1999/xlink" width="966.235937pt" height="650.889844pt" viewBox="0 0 966.235937 650.889844" xmlns="http://www.w3.org/2000/svg" version="1.1">
 <metadata>
  <rdf:RDF xmlns:dc="http://purl.org/dc/elements/1.1/" xmlns:cc="http://creativecommons.org/ns#" xmlns:rdf="http://www.w3.org/1999/02/22-rdf-syntax-ns#">
   <cc:Work>
    <dc:type rdf:resource="http://purl.org/dc/dcmitype/StillImage"/>
    <dc:date>2025-10-14T16:36:27.797719</dc:date>
    <dc:format>image/svg+xml</dc:format>
    <dc:creator>
     <cc:Agent>
      <dc:title>Matplotlib v3.6.3, https://matplotlib.org/</dc:title>
     </cc:Agent>
    </dc:creator>
   </cc:Work>
  </rdf:RDF>
 </metadata>
 <defs>
  <style type="text/css">*{stroke-linejoin: round; stroke-linecap: butt}</style>
 </defs>
 <g id="figure_1">
  <g id="patch_1">
   <path d="M 0 650.889844 
L 966.235937 650.889844 
L 966.235937 0 
L 0 0 
z
" style="fill: #ffffff"/>
  </g>
  <g id="axes_1">
   <g id="patch_2">
    <path d="M 122.035938 561.6 
L 959.035938 561.6 
L 959.035938 7.2 
L 122.035938 7.2 
z
" style="fill: #eaeaf2"/>
   </g>
   <g id="matplotlib.axis_1">
    <g id="xtick_1">
     <g id="line2d_1">
      <path d="M 160.081392 561.6 
L 160.081392 7.2 
" clip-path="url(#pfba6a242a5)" style="fill: none; stroke: #ffffff; stroke-linecap: round"/>
     </g>
     <g id="text_1">
      <!-- 0 -->
      <g style="fill: #262626" transform="translate(153.13022 588.994531) scale(0.25 -0.25)">
       <defs>
        <path id="ArialMT-30" d="M 266 2259 
Q 266 3072 433 3567 
Q 600 4063 929 4331 
Q 1259 4600 1759 4600 
Q 2128 4600 2406 4451 
Q 2684 4303 2865 4023 
Q 3047 3744 3150 3342 
Q 3253 2941 3253 2259 
Q 3253 1453 3087 958 
Q 2922 463 2592 192 
Q 2263 -78 1759 -78 
Q 1097 -78 719 397 
Q 266 969 266 2259 
z
M 844 2259 
Q 844 1131 1108 757 
Q 1372 384 1759 384 
Q 2147 384 2411 759 
Q 2675 1134 2675 2259 
Q 2675 3391 2411 3762 
Q 2147 4134 1753 4134 
Q 1366 4134 1134 3806 
Q 844 3388 844 2259 
z
" transform="scale(0.015625)"/>
       </defs>
       <use xlink:href="#ArialMT-30"/>
      </g>
     </g>
    </g>
    <g id="xtick_2">
     <g id="line2d_2">
      <path d="M 313.8004 561.6 
L 313.8004 7.2 
" clip-path="url(#pfba6a242a5)" style="fill: none; stroke: #ffffff; stroke-linecap: round"/>
     </g>
     <g id="text_2">
      <!-- 20 -->
      <g style="fill: #262626" transform="translate(299.898057 588.994531) scale(0.25 -0.25)">
       <defs>
        <path id="ArialMT-32" d="M 3222 541 
L 3222 0 
L 194 0 
Q 188 203 259 391 
Q 375 700 629 1000 
Q 884 1300 1366 1694 
Q 2113 2306 2375 2664 
Q 2638 3022 2638 3341 
Q 2638 3675 2398 3904 
Q 2159 4134 1775 4134 
Q 1369 4134 1125 3890 
Q 881 3647 878 3216 
L 300 3275 
Q 359 3922 746 4261 
Q 1134 4600 1788 4600 
Q 2447 4600 2831 4234 
Q 3216 3869 3216 3328 
Q 3216 3053 3103 2787 
Q 2991 2522 2730 2228 
Q 2469 1934 1863 1422 
Q 1356 997 1212 845 
Q 1069 694 975 541 
L 3222 541 
z
" transform="scale(0.015625)"/>
       </defs>
       <use xlink:href="#ArialMT-32"/>
       <use xlink:href="#ArialMT-30" x="55.615234"/>
      </g>
     </g>
    </g>
    <g id="xtick_3">
     <g id="line2d_3">
      <path d="M 467.519409 561.6 
L 467.519409 7.2 
" clip-path="url(#pfba6a242a5)" style="fill: none; stroke: #ffffff; stroke-linecap: round"/>
     </g>
     <g id="text_3">
      <!-- 40 -->
      <g style="fill: #262626" transform="translate(453.617065 588.994531) scale(0.25 -0.25)">
       <defs>
        <path id="ArialMT-34" d="M 2069 0 
L 2069 1097 
L 81 1097 
L 81 1613 
L 2172 4581 
L 2631 4581 
L 2631 1613 
L 3250 1613 
L 3250 1097 
L 2631 1097 
L 2631 0 
L 2069 0 
z
M 2069 1613 
L 2069 3678 
L 634 1613 
L 2069 1613 
z
" transform="scale(0.015625)"/>
       </defs>
       <use xlink:href="#ArialMT-34"/>
       <use xlink:href="#ArialMT-30" x="55.615234"/>
      </g>
     </g>
    </g>
    <g id="xtick_4">
     <g id="line2d_4">
      <path d="M 621.238417 561.6 
L 621.238417 7.2 
" clip-path="url(#pfba6a242a5)" style="fill: none; stroke: #ffffff; stroke-linecap: round"/>
     </g>
     <g id="text_4">
      <!-- 60 -->
      <g style="fill: #262626" transform="translate(607.336073 588.994531) scale(0.25 -0.25)">
       <defs>
        <path id="ArialMT-36" d="M 3184 3459 
L 2625 3416 
Q 2550 3747 2413 3897 
Q 2184 4138 1850 4138 
Q 1581 4138 1378 3988 
Q 1113 3794 959 3422 
Q 806 3050 800 2363 
Q 1003 2672 1297 2822 
Q 1591 2972 1913 2972 
Q 2475 2972 2870 2558 
Q 3266 2144 3266 1488 
Q 3266 1056 3080 686 
Q 2894 316 2569 119 
Q 2244 -78 1831 -78 
Q 1128 -78 684 439 
Q 241 956 241 2144 
Q 241 3472 731 4075 
Q 1159 4600 1884 4600 
Q 2425 4600 2770 4297 
Q 3116 3994 3184 3459 
z
M 888 1484 
Q 888 1194 1011 928 
Q 1134 663 1356 523 
Q 1578 384 1822 384 
Q 2178 384 2434 671 
Q 2691 959 2691 1453 
Q 2691 1928 2437 2201 
Q 2184 2475 1800 2475 
Q 1419 2475 1153 2201 
Q 888 1928 888 1484 
z
" transform="scale(0.015625)"/>
       </defs>
       <use xlink:href="#ArialMT-36"/>
       <use xlink:href="#ArialMT-30" x="55.615234"/>
      </g>
     </g>
    </g>
    <g id="xtick_5">
     <g id="line2d_5">
      <path d="M 774.957425 561.6 
L 774.957425 7.2 
" clip-path="url(#pfba6a242a5)" style="fill: none; stroke: #ffffff; stroke-linecap: round"/>
     </g>
     <g id="text_5">
      <!-- 80 -->
      <g style="fill: #262626" transform="translate(761.055081 588.994531) scale(0.25 -0.25)">
       <defs>
        <path id="ArialMT-38" d="M 1131 2484 
Q 781 2613 612 2850 
Q 444 3088 444 3419 
Q 444 3919 803 4259 
Q 1163 4600 1759 4600 
Q 2359 4600 2725 4251 
Q 3091 3903 3091 3403 
Q 3091 3084 2923 2848 
Q 2756 2613 2416 2484 
Q 2838 2347 3058 2040 
Q 3278 1734 3278 1309 
Q 3278 722 2862 322 
Q 2447 -78 1769 -78 
Q 1091 -78 675 323 
Q 259 725 259 1325 
Q 259 1772 486 2073 
Q 713 2375 1131 2484 
z
M 1019 3438 
Q 1019 3113 1228 2906 
Q 1438 2700 1772 2700 
Q 2097 2700 2305 2904 
Q 2513 3109 2513 3406 
Q 2513 3716 2298 3927 
Q 2084 4138 1766 4138 
Q 1444 4138 1231 3931 
Q 1019 3725 1019 3438 
z
M 838 1322 
Q 838 1081 952 856 
Q 1066 631 1291 507 
Q 1516 384 1775 384 
Q 2178 384 2440 643 
Q 2703 903 2703 1303 
Q 2703 1709 2433 1975 
Q 2163 2241 1756 2241 
Q 1359 2241 1098 1978 
Q 838 1716 838 1322 
z
" transform="scale(0.015625)"/>
       </defs>
       <use xlink:href="#ArialMT-38"/>
       <use xlink:href="#ArialMT-30" x="55.615234"/>
      </g>
     </g>
    </g>
    <g id="xtick_6">
     <g id="line2d_6">
      <path d="M 928.676433 561.6 
L 928.676433 7.2 
" clip-path="url(#pfba6a242a5)" style="fill: none; stroke: #ffffff; stroke-linecap: round"/>
     </g>
     <g id="text_6">
      <!-- 100 -->
      <g style="fill: #262626" transform="translate(907.822918 588.994531) scale(0.25 -0.25)">
       <defs>
        <path id="ArialMT-31" d="M 2384 0 
L 1822 0 
L 1822 3584 
Q 1619 3391 1289 3197 
Q 959 3003 697 2906 
L 697 3450 
Q 1169 3672 1522 3987 
Q 1875 4303 2022 4600 
L 2384 4600 
L 2384 0 
z
" transform="scale(0.015625)"/>
       </defs>
       <use xlink:href="#ArialMT-31"/>
       <use xlink:href="#ArialMT-30" x="55.615234"/>
       <use xlink:href="#ArialMT-30" x="111.230469"/>
      </g>
     </g>
    </g>
    <g id="text_7">
     <!-- time steps -->
     <g style="fill: #262626" transform="translate(426.614063 633.752344) scale(0.5 -0.5)">
      <defs>
       <path id="ArialMT-74" d="M 1650 503 
L 1731 6 
Q 1494 -44 1306 -44 
Q 1000 -44 831 53 
Q 663 150 594 308 
Q 525 466 525 972 
L 525 2881 
L 113 2881 
L 113 3319 
L 525 3319 
L 525 4141 
L 1084 4478 
L 1084 3319 
L 1650 3319 
L 1650 2881 
L 1084 2881 
L 1084 941 
Q 1084 700 1114 631 
Q 1144 563 1211 522 
Q 1278 481 1403 481 
Q 1497 481 1650 503 
z
" transform="scale(0.015625)"/>
       <path id="ArialMT-69" d="M 425 3934 
L 425 4581 
L 988 4581 
L 988 3934 
L 425 3934 
z
M 425 0 
L 425 3319 
L 988 3319 
L 988 0 
L 425 0 
z
" transform="scale(0.015625)"/>
       <path id="ArialMT-6d" d="M 422 0 
L 422 3319 
L 925 3319 
L 925 2853 
Q 1081 3097 1340 3245 
Q 1600 3394 1931 3394 
Q 2300 3394 2536 3241 
Q 2772 3088 2869 2813 
Q 3263 3394 3894 3394 
Q 4388 3394 4653 3120 
Q 4919 2847 4919 2278 
L 4919 0 
L 4359 0 
L 4359 2091 
Q 4359 2428 4304 2576 
Q 4250 2725 4106 2815 
Q 3963 2906 3769 2906 
Q 3419 2906 3187 2673 
Q 2956 2441 2956 1928 
L 2956 0 
L 2394 0 
L 2394 2156 
Q 2394 2531 2256 2718 
Q 2119 2906 1806 2906 
Q 1569 2906 1367 2781 
Q 1166 2656 1075 2415 
Q 984 2175 984 1722 
L 984 0 
L 422 0 
z
" transform="scale(0.015625)"/>
       <path id="ArialMT-65" d="M 2694 1069 
L 3275 997 
Q 3138 488 2766 206 
Q 2394 -75 1816 -75 
Q 1088 -75 661 373 
Q 234 822 234 1631 
Q 234 2469 665 2931 
Q 1097 3394 1784 3394 
Q 2450 3394 2872 2941 
Q 3294 2488 3294 1666 
Q 3294 1616 3291 1516 
L 816 1516 
Q 847 969 1125 678 
Q 1403 388 1819 388 
Q 2128 388 2347 550 
Q 2566 713 2694 1069 
z
M 847 1978 
L 2700 1978 
Q 2663 2397 2488 2606 
Q 2219 2931 1791 2931 
Q 1403 2931 1139 2672 
Q 875 2413 847 1978 
z
" transform="scale(0.015625)"/>
       <path id="ArialMT-20" transform="scale(0.015625)"/>
       <path id="ArialMT-73" d="M 197 991 
L 753 1078 
Q 800 744 1014 566 
Q 1228 388 1613 388 
Q 2000 388 2187 545 
Q 2375 703 2375 916 
Q 2375 1106 2209 1216 
Q 2094 1291 1634 1406 
Q 1016 1563 777 1677 
Q 538 1791 414 1992 
Q 291 2194 291 2438 
Q 291 2659 392 2848 
Q 494 3038 669 3163 
Q 800 3259 1026 3326 
Q 1253 3394 1513 3394 
Q 1903 3394 2198 3281 
Q 2494 3169 2634 2976 
Q 2775 2784 2828 2463 
L 2278 2388 
Q 2241 2644 2061 2787 
Q 1881 2931 1553 2931 
Q 1166 2931 1000 2803 
Q 834 2675 834 2503 
Q 834 2394 903 2306 
Q 972 2216 1119 2156 
Q 1203 2125 1616 2013 
Q 2213 1853 2448 1751 
Q 2684 1650 2818 1456 
Q 2953 1263 2953 975 
Q 2953 694 2789 445 
Q 2625 197 2315 61 
Q 2006 -75 1616 -75 
Q 969 -75 630 194 
Q 291 463 197 991 
z
" transform="scale(0.015625)"/>
       <path id="ArialMT-70" d="M 422 -1272 
L 422 3319 
L 934 3319 
L 934 2888 
Q 1116 3141 1344 3267 
Q 1572 3394 1897 3394 
Q 2322 3394 2647 3175 
Q 2972 2956 3137 2557 
Q 3303 2159 3303 1684 
Q 3303 1175 3120 767 
Q 2938 359 2589 142 
Q 2241 -75 1856 -75 
Q 1575 -75 1351 44 
Q 1128 163 984 344 
L 984 -1272 
L 422 -1272 
z
M 931 1641 
Q 931 1000 1190 694 
Q 1450 388 1819 388 
Q 2194 388 2461 705 
Q 2728 1022 2728 1688 
Q 2728 2322 2467 2637 
Q 2206 2953 1844 2953 
Q 1484 2953 1207 2617 
Q 931 2281 931 1641 
z
" transform="scale(0.015625)"/>
      </defs>
      <use xlink:href="#ArialMT-74"/>
      <use xlink:href="#ArialMT-69" x="27.783203"/>
      <use xlink:href="#ArialMT-6d" x="50"/>
      <use xlink:href="#ArialMT-65" x="133.300781"/>
      <use xlink:href="#ArialMT-20" x="188.916016"/>
      <use xlink:href="#ArialMT-73" x="216.699219"/>
      <use xlink:href="#ArialMT-74" x="266.699219"/>
      <use xlink:href="#ArialMT-65" x="294.482422"/>
      <use xlink:href="#ArialMT-70" x="350.097656"/>
      <use xlink:href="#ArialMT-73" x="405.712891"/>
     </g>
    </g>
   </g>
   <g id="matplotlib.axis_2">
    <g id="ytick_1">
     <g id="line2d_7">
      <path d="M 122.035938 472.377077 
L 959.035938 472.377077 
" clip-path="url(#pfba6a242a5)" style="fill: none; stroke: #ffffff; stroke-linecap: round"/>
     </g>
     <g id="text_8">
      <!-- 200 -->
      <g style="fill: #262626" transform="translate(70.828906 481.324343) scale(0.25 -0.25)">
       <use xlink:href="#ArialMT-32"/>
       <use xlink:href="#ArialMT-30" x="55.615234"/>
       <use xlink:href="#ArialMT-30" x="111.230469"/>
      </g>
     </g>
    </g>
    <g id="ytick_2">
     <g id="line2d_8">
      <path d="M 122.035938 376.102006 
L 959.035938 376.102006 
" clip-path="url(#pfba6a242a5)" style="fill: none; stroke: #ffffff; stroke-linecap: round"/>
     </g>
     <g id="text_9">
      <!-- 400 -->
      <g style="fill: #262626" transform="translate(70.828906 385.049271) scale(0.25 -0.25)">
       <use xlink:href="#ArialMT-34"/>
       <use xlink:href="#ArialMT-30" x="55.615234"/>
       <use xlink:href="#ArialMT-30" x="111.230469"/>
      </g>
     </g>
    </g>
    <g id="ytick_3">
     <g id="line2d_9">
      <path d="M 122.035938 279.826934 
L 959.035938 279.826934 
" clip-path="url(#pfba6a242a5)" style="fill: none; stroke: #ffffff; stroke-linecap: round"/>
     </g>
     <g id="text_10">
      <!-- 600 -->
      <g style="fill: #262626" transform="translate(70.828906 288.7742) scale(0.25 -0.25)">
       <use xlink:href="#ArialMT-36"/>
       <use xlink:href="#ArialMT-30" x="55.615234"/>
       <use xlink:href="#ArialMT-30" x="111.230469"/>
      </g>
     </g>
    </g>
    <g id="ytick_4">
     <g id="line2d_10">
      <path d="M 122.035938 183.551862 
L 959.035938 183.551862 
" clip-path="url(#pfba6a242a5)" style="fill: none; stroke: #ffffff; stroke-linecap: round"/>
     </g>
     <g id="text_11">
      <!-- 800 -->
      <g style="fill: #262626" transform="translate(70.828906 192.499128) scale(0.25 -0.25)">
       <use xlink:href="#ArialMT-38"/>
       <use xlink:href="#ArialMT-30" x="55.615234"/>
       <use xlink:href="#ArialMT-30" x="111.230469"/>
      </g>
     </g>
    </g>
    <g id="ytick_5">
     <g id="line2d_11">
      <path d="M 122.035938 87.276791 
L 959.035938 87.276791 
" clip-path="url(#pfba6a242a5)" style="fill: none; stroke: #ffffff; stroke-linecap: round"/>
     </g>
     <g id="text_12">
      <!-- 1000 -->
      <g style="fill: #262626" transform="translate(56.926563 96.224056) scale(0.25 -0.25)">
       <use xlink:href="#ArialMT-31"/>
       <use xlink:href="#ArialMT-30" x="55.615234"/>
       <use xlink:href="#ArialMT-30" x="111.230469"/>
       <use xlink:href="#ArialMT-30" x="166.845703"/>
      </g>
     </g>
    </g>
    <g id="text_13">
     <!-- number of wolves -->
     <g style="fill: #262626" transform="translate(42.989063 480.310156) rotate(-90) scale(0.5 -0.5)">
      <defs>
       <path id="ArialMT-6e" d="M 422 0 
L 422 3319 
L 928 3319 
L 928 2847 
Q 1294 3394 1984 3394 
Q 2284 3394 2536 3286 
Q 2788 3178 2913 3003 
Q 3038 2828 3088 2588 
Q 3119 2431 3119 2041 
L 3119 0 
L 2556 0 
L 2556 2019 
Q 2556 2363 2490 2533 
Q 2425 2703 2258 2804 
Q 2091 2906 1866 2906 
Q 1506 2906 1245 2678 
Q 984 2450 984 1813 
L 984 0 
L 422 0 
z
" transform="scale(0.015625)"/>
       <path id="ArialMT-75" d="M 2597 0 
L 2597 488 
Q 2209 -75 1544 -75 
Q 1250 -75 995 37 
Q 741 150 617 320 
Q 494 491 444 738 
Q 409 903 409 1263 
L 409 3319 
L 972 3319 
L 972 1478 
Q 972 1038 1006 884 
Q 1059 663 1231 536 
Q 1403 409 1656 409 
Q 1909 409 2131 539 
Q 2353 669 2445 892 
Q 2538 1116 2538 1541 
L 2538 3319 
L 3100 3319 
L 3100 0 
L 2597 0 
z
" transform="scale(0.015625)"/>
       <path id="ArialMT-62" d="M 941 0 
L 419 0 
L 419 4581 
L 981 4581 
L 981 2947 
Q 1338 3394 1891 3394 
Q 2197 3394 2470 3270 
Q 2744 3147 2920 2923 
Q 3097 2700 3197 2384 
Q 3297 2069 3297 1709 
Q 3297 856 2875 390 
Q 2453 -75 1863 -75 
Q 1275 -75 941 416 
L 941 0 
z
M 934 1684 
Q 934 1088 1097 822 
Q 1363 388 1816 388 
Q 2184 388 2453 708 
Q 2722 1028 2722 1663 
Q 2722 2313 2464 2622 
Q 2206 2931 1841 2931 
Q 1472 2931 1203 2611 
Q 934 2291 934 1684 
z
" transform="scale(0.015625)"/>
       <path id="ArialMT-72" d="M 416 0 
L 416 3319 
L 922 3319 
L 922 2816 
Q 1116 3169 1280 3281 
Q 1444 3394 1641 3394 
Q 1925 3394 2219 3213 
L 2025 2691 
Q 1819 2813 1613 2813 
Q 1428 2813 1281 2702 
Q 1134 2591 1072 2394 
Q 978 2094 978 1738 
L 978 0 
L 416 0 
z
" transform="scale(0.015625)"/>
       <path id="ArialMT-6f" d="M 213 1659 
Q 213 2581 725 3025 
Q 1153 3394 1769 3394 
Q 2453 3394 2887 2945 
Q 3322 2497 3322 1706 
Q 3322 1066 3130 698 
Q 2938 331 2570 128 
Q 2203 -75 1769 -75 
Q 1072 -75 642 372 
Q 213 819 213 1659 
z
M 791 1659 
Q 791 1022 1069 705 
Q 1347 388 1769 388 
Q 2188 388 2466 706 
Q 2744 1025 2744 1678 
Q 2744 2294 2464 2611 
Q 2184 2928 1769 2928 
Q 1347 2928 1069 2612 
Q 791 2297 791 1659 
z
" transform="scale(0.015625)"/>
       <path id="ArialMT-66" d="M 556 0 
L 556 2881 
L 59 2881 
L 59 3319 
L 556 3319 
L 556 3672 
Q 556 4006 616 4169 
Q 697 4388 901 4523 
Q 1106 4659 1475 4659 
Q 1713 4659 2000 4603 
L 1916 4113 
Q 1741 4144 1584 4144 
Q 1328 4144 1222 4034 
Q 1116 3925 1116 3625 
L 1116 3319 
L 1763 3319 
L 1763 2881 
L 1116 2881 
L 1116 0 
L 556 0 
z
" transform="scale(0.015625)"/>
       <path id="ArialMT-77" d="M 1034 0 
L 19 3319 
L 600 3319 
L 1128 1403 
L 1325 691 
Q 1338 744 1497 1375 
L 2025 3319 
L 2603 3319 
L 3100 1394 
L 3266 759 
L 3456 1400 
L 4025 3319 
L 4572 3319 
L 3534 0 
L 2950 0 
L 2422 1988 
L 2294 2553 
L 1622 0 
L 1034 0 
z
" transform="scale(0.015625)"/>
       <path id="ArialMT-6c" d="M 409 0 
L 409 4581 
L 972 4581 
L 972 0 
L 409 0 
z
" transform="scale(0.015625)"/>
       <path id="ArialMT-76" d="M 1344 0 
L 81 3319 
L 675 3319 
L 1388 1331 
Q 1503 1009 1600 663 
Q 1675 925 1809 1294 
L 2547 3319 
L 3125 3319 
L 1869 0 
L 1344 0 
z
" transform="scale(0.015625)"/>
      </defs>
      <use xlink:href="#ArialMT-6e"/>
      <use xlink:href="#ArialMT-75" x="55.615234"/>
      <use xlink:href="#ArialMT-6d" x="111.230469"/>
      <use xlink:href="#ArialMT-62" x="194.53125"/>
      <use xlink:href="#ArialMT-65" x="250.146484"/>
      <use xlink:href="#ArialMT-72" x="305.761719"/>
      <use xlink:href="#ArialMT-20" x="339.0625"/>
      <use xlink:href="#ArialMT-6f" x="366.845703"/>
      <use xlink:href="#ArialMT-66" x="422.460938"/>
      <use xlink:href="#ArialMT-20" x="450.244141"/>
      <use xlink:href="#ArialMT-77" x="478.027344"/>
      <use xlink:href="#ArialMT-6f" x="550.244141"/>
      <use xlink:href="#ArialMT-6c" x="605.859375"/>
      <use xlink:href="#ArialMT-76" x="628.076172"/>
      <use xlink:href="#ArialMT-65" x="678.076172"/>
      <use xlink:href="#ArialMT-73" x="733.691406"/>
     </g>
    </g>
   </g>
   <g id="line2d_12">
    <path d="M 160.081392 357.809742 
L 167.767342 326.520344 
L 175.453293 274.05043 
L 183.139243 196.548997 
L 190.825194 128.675072 
L 198.511144 86.795415 
L 206.197095 46.359885 
L 213.883045 35.769628 
L 221.568995 35.769628 
L 229.254946 49.248138 
L 236.940896 67.540401 
L 244.626847 70.910029 
L 252.312797 75.242407 
L 259.998747 73.316905 
L 267.684698 106.05043 
L 275.370648 127.230946 
L 283.056599 112.308309 
L 290.742549 121.454441 
L 298.428499 116.640688 
L 306.11445 129.637822 
L 313.8004 128.193696 
L 321.486351 151.781089 
L 329.172301 164.778223 
L 336.858252 171.517479 
L 344.544202 176.331232 
L 352.230152 194.623496 
L 359.916103 205.695129 
L 367.602053 217.248138 
L 375.288004 221.580516 
L 382.973954 221.580516 
L 390.659904 228.319771 
L 398.345855 211.953009 
L 406.031805 219.655014 
L 413.717756 250.944413 
L 421.403706 269.236676 
L 429.089657 269.718052 
L 436.775607 268.273926 
L 444.461557 280.308309 
L 452.147508 303.895702 
L 459.833458 306.783954 
L 467.519409 297.637822 
L 475.205359 309.190831 
L 482.891309 321.225215 
L 490.57726 333.259599 
L 498.26321 337.110602 
L 505.949161 358.772493 
L 513.635111 371.769628 
L 521.321061 390.543266 
L 529.007012 404.021777 
L 536.692962 421.351289 
L 544.378913 424.239542 
L 552.064863 421.351289 
L 559.750814 414.130659 
L 567.436764 403.540401 
L 575.122714 411.242407 
L 582.808665 425.683668 
L 590.494615 428.57192 
L 598.180566 438.199427 
L 605.866516 454.084814 
L 613.552466 455.047564 
L 621.238417 458.898567 
L 628.924367 466.600573 
L 636.610318 474.302579 
L 644.296268 487.299713 
L 651.982218 496.445845 
L 659.668169 495.96447 
L 667.354119 490.187966 
L 675.04007 486.336963 
L 682.72602 486.336963 
L 690.411971 495.96447 
L 698.097921 499.334097 
L 705.783871 497.408596 
L 713.469822 493.557593 
L 721.155772 495.96447 
L 728.841723 501.259599 
L 736.527673 503.666476 
L 744.213623 507.998854 
L 751.899574 505.591977 
L 759.585524 508.961605 
L 767.271475 511.368481 
L 774.957425 517.626361 
L 782.643376 516.182235 
L 790.329326 513.775358 
L 798.015276 522.92149 
L 805.701227 520.514613 
L 813.387177 518.107736 
L 821.073128 519.551862 
L 828.759078 524.846991 
L 836.445028 523.402865 
L 844.130979 522.92149 
L 851.816929 529.660745 
L 859.50288 531.104871 
L 867.18883 532.067622 
L 874.87478 531.104871 
L 882.560731 534.955874 
L 890.246681 532.548997 
L 897.932632 535.918625 
L 905.618582 536.4 
L 913.304533 533.030372 
L 920.990483 532.548997 
" clip-path="url(#pfba6a242a5)" style="fill: none; stroke: #46327e; stroke-width: 1.5; stroke-linecap: round"/>
   </g>
   <g id="line2d_13">
    <path d="M 160.081392 362.14212 
L 167.767342 336.629226 
L 175.453293 285.122063 
L 183.139243 220.617765 
L 190.825194 148.892837 
L 198.511144 109.901433 
L 206.197095 81.981662 
L 213.883045 85.351289 
L 221.568995 105.087679 
L 229.254946 88.720917 
L 236.940896 85.351289 
L 244.626847 88.239542 
L 252.312797 87.276791 
L 259.998747 87.758166 
L 267.684698 88.720917 
L 275.370648 93.53467 
L 283.056599 95.941547 
L 290.742549 119.52894 
L 298.428499 153.70659 
L 306.11445 159.483095 
L 313.8004 179.219484 
L 321.486351 203.288252 
L 329.172301 207.139255 
L 336.858252 208.583381 
L 344.544202 200.881375 
L 352.230152 197.993123 
L 359.916103 188.846991 
L 367.602053 202.806877 
L 375.288004 240.354155 
L 382.973954 261.53467 
L 390.659904 264.422923 
L 398.345855 278.864183 
L 406.031805 274.531805 
L 413.717756 284.159312 
L 421.403706 289.454441 
L 429.089657 294.74957 
L 436.775607 311.597708 
L 444.461557 317.374212 
L 452.147508 341.44298 
L 459.833458 340.961605 
L 467.519409 352.995989 
L 475.205359 355.402865 
L 482.891309 368.4 
L 490.57726 371.769628 
L 498.26321 361.660745 
L 505.949161 360.697994 
L 513.635111 372.732378 
L 521.321061 375.62063 
L 529.007012 394.875645 
L 536.692962 412.205158 
L 544.378913 413.167908 
L 552.064863 422.795415 
L 559.750814 426.165043 
L 567.436764 423.758166 
L 575.122714 438.199427 
L 582.808665 441.087679 
L 590.494615 443.494556 
L 598.180566 438.199427 
L 605.866516 444.457307 
L 613.552466 452.159312 
L 621.238417 468.044699 
L 628.924367 472.858453 
L 636.610318 478.153582 
L 644.296268 478.153582 
L 651.982218 489.225215 
L 659.668169 483.930086 
L 667.354119 489.225215 
L 675.04007 495.96447 
L 682.72602 496.445845 
L 690.411971 493.557593 
L 698.097921 489.70659 
L 705.783871 484.411461 
L 713.469822 487.781089 
L 721.155772 479.597708 
L 728.841723 473.339828 
L 736.527673 461.305444 
L 744.213623 450.233811 
L 751.899574 451.196562 
L 759.585524 448.308309 
L 767.271475 459.379943 
L 774.957425 467.081948 
L 782.643376 467.563324 
L 790.329326 471.895702 
L 798.015276 466.119198 
L 805.701227 454.566189 
L 813.387177 453.122063 
L 821.073128 452.640688 
L 828.759078 443.494556 
L 836.445028 452.640688 
L 844.130979 458.898567 
L 851.816929 454.566189 
L 859.50288 467.081948 
L 867.18883 467.081948 
L 874.87478 464.675072 
L 882.560731 470.451576 
L 890.246681 477.190831 
L 897.932632 480.560458 
L 905.618582 482.967335 
L 913.304533 480.560458 
L 920.990483 483.930086 
" clip-path="url(#pfba6a242a5)" style="fill: none; stroke: #365c8d; stroke-width: 1.5; stroke-linecap: round"/>
   </g>
   <g id="line2d_14">
    <path d="M 160.081392 360.697994 
L 167.767342 334.703725 
L 175.453293 293.786819 
L 183.139243 237.947278 
L 190.825194 174.405731 
L 198.511144 149.855587 
L 206.197095 132.044699 
L 213.883045 70.910029 
L 221.568995 42.990258 
L 229.254946 56.468768 
L 236.940896 43.471633 
L 244.626847 80.05616 
L 252.312797 113.27106 
L 259.998747 156.594842 
L 267.684698 182.589112 
L 275.370648 184.995989 
L 283.056599 182.107736 
L 290.742549 195.586246 
L 298.428499 198.955874 
L 306.11445 210.027507 
L 313.8004 219.655014 
L 321.486351 233.133524 
L 329.172301 256.720917 
L 336.858252 252.869914 
L 344.544202 255.758166 
L 352.230152 279.345559 
L 359.916103 288.010315 
L 367.602053 305.821203 
L 375.288004 303.414327 
L 382.973954 317.374212 
L 390.659904 331.815473 
L 398.345855 346.256734 
L 406.031805 356.365616 
L 413.717756 375.62063 
L 421.403706 390.061891 
L 429.089657 389.580516 
L 436.775607 397.763897 
L 444.461557 407.391404 
L 452.147508 407.872779 
L 459.833458 396.319771 
L 467.519409 402.096275 
L 475.205359 405.465903 
L 482.891309 407.391404 
L 490.57726 405.465903 
L 498.26321 391.987393 
L 505.949161 382.359885 
L 513.635111 373.695129 
L 521.321061 380.434384 
L 529.007012 400.170774 
L 536.692962 402.096275 
L 544.378913 395.35702 
L 552.064863 395.35702 
L 559.750814 390.543266 
L 567.436764 387.173639 
L 575.122714 395.35702 
L 582.808665 391.024642 
L 590.494615 390.543266 
L 598.180566 382.841261 
L 605.866516 394.394269 
L 613.552466 402.57765 
L 621.238417 415.574785 
L 628.924367 414.130659 
L 636.610318 404.503152 
L 644.296268 398.245272 
L 651.982218 390.061891 
L 659.668169 405.465903 
L 667.354119 426.165043 
L 675.04007 441.087679 
L 682.72602 443.975931 
L 690.411971 446.382808 
L 698.097921 452.640688 
L 705.783871 456.491691 
L 713.469822 449.752436 
L 721.155772 441.569054 
L 728.841723 442.05043 
L 736.527673 435.311175 
L 744.213623 422.31404 
L 751.899574 414.612034 
L 759.585524 421.832665 
L 767.271475 423.758166 
L 774.957425 418.463037 
L 782.643376 415.574785 
L 790.329326 404.503152 
L 798.015276 409.316905 
L 805.701227 400.652149 
L 813.387177 392.468768 
L 821.073128 395.838395 
L 828.759078 401.133524 
L 836.445028 422.795415 
L 844.130979 420.388539 
L 851.816929 426.165043 
L 859.50288 426.646418 
L 867.18883 419.907163 
L 874.87478 411.723782 
L 882.560731 396.319771 
L 890.246681 382.359885 
L 897.932632 385.248138 
L 905.618582 388.617765 
L 913.304533 377.064756 
L 920.990483 406.910029 
" clip-path="url(#pfba6a242a5)" style="fill: none; stroke: #277f8e; stroke-width: 1.5; stroke-linecap: round"/>
   </g>
   <g id="line2d_15">
    <path d="M 160.081392 358.291117 
L 167.767342 330.852722 
L 175.453293 293.305444 
L 183.139243 237.947278 
L 190.825194 185.477364 
L 198.511144 151.299713 
L 206.197095 113.27106 
L 213.883045 93.053295 
L 221.568995 71.872779 
L 229.254946 104.124928 
L 236.940896 122.898567 
L 244.626847 133.00745 
L 252.312797 122.898567 
L 259.998747 127.712321 
L 267.684698 123.379943 
L 275.370648 115.677937 
L 283.056599 119.52894 
L 290.742549 107.013181 
L 298.428499 102.199427 
L 306.11445 90.646418 
L 313.8004 94.016046 
L 321.486351 109.420057 
L 329.172301 104.606304 
L 336.858252 150.336963 
L 344.544202 162.371347 
L 352.230152 181.626361 
L 359.916103 217.248138 
L 367.602053 236.984527 
L 375.288004 248.537536 
L 382.973954 274.05043 
L 390.659904 296.675072 
L 398.345855 294.74957 
L 406.031805 322.669341 
L 413.717756 336.147851 
L 421.403706 344.331232 
L 429.089657 358.291117 
L 436.775607 354.440115 
L 444.461557 367.918625 
L 452.147508 378.990258 
L 459.833458 386.210888 
L 467.519409 401.133524 
L 475.205359 421.832665 
L 482.891309 430.497421 
L 490.57726 434.348424 
L 498.26321 437.718052 
L 505.949161 437.718052 
L 513.635111 443.975931 
L 521.321061 455.52894 
L 529.007012 460.824069 
L 536.692962 463.230946 
L 544.378913 450.715186 
L 552.064863 450.715186 
L 559.750814 444.938682 
L 567.436764 448.308309 
L 575.122714 461.305444 
L 582.808665 480.560458 
L 590.494615 480.560458 
L 598.180566 481.041834 
L 605.866516 486.336963 
L 613.552466 481.523209 
L 621.238417 476.709456 
L 628.924367 469.488825 
L 636.610318 478.634957 
L 644.296268 484.892837 
L 651.982218 472.858453 
L 659.668169 467.081948 
L 667.354119 460.824069 
L 675.04007 459.379943 
L 682.72602 458.898567 
L 690.411971 474.302579 
L 698.097921 476.22808 
L 705.783871 483.930086 
L 713.469822 486.336963 
L 721.155772 495.483095 
L 728.841723 495.483095 
L 736.527673 503.666476 
L 744.213623 502.22235 
L 751.899574 511.368481 
L 759.585524 507.036103 
L 767.271475 508.961605 
L 774.957425 502.22235 
L 782.643376 507.517479 
L 790.329326 504.147851 
L 798.015276 505.591977 
L 805.701227 502.703725 
L 813.387177 505.110602 
L 821.073128 507.517479 
L 828.759078 505.110602 
L 836.445028 500.296848 
L 844.130979 507.036103 
L 851.816929 510.887106 
L 859.50288 511.368481 
L 867.18883 508.480229 
L 874.87478 510.887106 
L 882.560731 507.998854 
L 890.246681 505.110602 
L 897.932632 504.629226 
L 905.618582 504.147851 
L 913.304533 499.334097 
L 920.990483 506.554728 
" clip-path="url(#pfba6a242a5)" style="fill: none; stroke: #1fa187; stroke-width: 1.5; stroke-linecap: round"/>
   </g>
   <g id="line2d_16">
    <path d="M 160.081392 352.995989 
L 167.767342 314.967335 
L 175.453293 264.904298 
L 183.139243 201.844126 
L 190.825194 124.342693 
L 198.511144 101.718052 
L 206.197095 95.941547 
L 213.883045 61.282521 
L 221.568995 69.465903 
L 229.254946 60.801146 
L 236.940896 72.83553 
L 244.626847 101.236676 
L 252.312797 126.74957 
L 259.998747 133.00745 
L 267.684698 150.818338 
L 275.370648 146.48596 
L 283.056599 178.256734 
L 290.742549 194.14212 
L 298.428499 213.397135 
L 306.11445 228.801146 
L 313.8004 227.838395 
L 321.486351 226.875645 
L 329.172301 239.391404 
L 336.858252 260.090544 
L 344.544202 283.196562 
L 352.230152 287.047564 
L 359.916103 285.603438 
L 367.602053 295.712321 
L 375.288004 296.675072 
L 382.973954 304.858453 
L 390.659904 312.079083 
L 398.345855 319.781089 
L 406.031805 321.225215 
L 413.717756 324.594842 
L 421.403706 337.110602 
L 429.089657 346.738109 
L 436.775607 359.253868 
L 444.461557 373.213754 
L 452.147508 370.806877 
L 459.833458 372.732378 
L 467.519409 377.546132 
L 475.205359 391.506017 
L 482.891309 387.173639 
L 490.57726 377.064756 
L 498.26321 365.030372 
L 505.949161 372.251003 
L 513.635111 372.732378 
L 521.321061 371.769628 
L 529.007012 359.253868 
L 536.692962 359.253868 
L 544.378913 352.033238 
L 552.064863 362.623496 
L 559.750814 361.660745 
L 567.436764 366.955874 
L 575.122714 358.772493 
L 582.808665 343.368481 
L 590.494615 345.293983 
L 598.180566 351.551862 
L 605.866516 343.849857 
L 613.552466 356.365616 
L 621.238417 367.918625 
L 628.924367 373.213754 
L 636.610318 363.586246 
L 644.296268 373.213754 
L 651.982218 375.62063 
L 659.668169 374.65788 
L 667.354119 387.655014 
L 675.04007 400.170774 
L 682.72602 391.024642 
L 690.411971 394.394269 
L 698.097921 397.763897 
L 705.783871 406.910029 
L 713.469822 409.316905 
L 721.155772 420.388539 
L 728.841723 410.761032 
L 736.527673 407.391404 
L 744.213623 391.987393 
L 751.899574 395.838395 
L 759.585524 388.617765 
L 767.271475 390.543266 
L 774.957425 385.248138 
L 782.643376 382.841261 
L 790.329326 366.474499 
L 798.015276 378.990258 
L 805.701227 376.102006 
L 813.387177 376.583381 
L 821.073128 372.251003 
L 828.759078 377.064756 
L 836.445028 376.102006 
L 844.130979 369.362751 
L 851.816929 375.139255 
L 859.50288 365.993123 
L 867.18883 366.474499 
L 874.87478 390.061891 
L 882.560731 417.018911 
L 890.246681 408.354155 
L 897.932632 403.540401 
L 905.618582 392.950143 
L 913.304533 396.319771 
L 920.990483 406.428653 
" clip-path="url(#pfba6a242a5)" style="fill: none; stroke: #4ac16d; stroke-width: 1.5; stroke-linecap: round"/>
   </g>
   <g id="line2d_17">
    <path d="M 160.081392 355.402865 
L 167.767342 321.225215 
L 175.453293 272.124928 
L 183.139243 209.546132 
L 190.825194 131.563324 
L 198.511144 88.720917 
L 206.197095 71.872779 
L 213.883045 60.319771 
L 221.568995 48.285387 
L 229.254946 36.732378 
L 236.940896 32.4 
L 244.626847 40.583381 
L 252.312797 48.766762 
L 259.998747 54.061891 
L 267.684698 65.6149 
L 275.370648 108.457307 
L 283.056599 109.420057 
L 290.742549 102.680802 
L 298.428499 129.637822 
L 306.11445 167.666476 
L 313.8004 175.368481 
L 321.486351 196.548997 
L 329.172301 218.210888 
L 336.858252 230.726648 
L 344.544202 242.279656 
L 352.230152 253.351289 
L 359.916103 269.236676 
L 367.602053 287.047564 
L 375.288004 310.153582 
L 382.973954 321.225215 
L 390.659904 338.554728 
L 398.345855 338.073352 
L 406.031805 333.740974 
L 413.717756 334.22235 
L 421.403706 341.924355 
L 429.089657 357.328367 
L 436.775607 358.772493 
L 444.461557 355.402865 
L 452.147508 339.998854 
L 459.833458 349.144986 
L 467.519409 352.033238 
L 475.205359 384.285387 
L 482.891309 396.801146 
L 490.57726 408.83553 
L 498.26321 411.242407 
L 505.949161 419.907163 
L 513.635111 427.609169 
L 521.321061 430.497421 
L 529.007012 425.683668 
L 536.692962 414.130659 
L 544.378913 418.463037 
L 552.064863 421.832665 
L 559.750814 423.758166 
L 567.436764 422.795415 
L 575.122714 414.130659 
L 582.808665 415.574785 
L 590.494615 402.57765 
L 598.180566 403.540401 
L 605.866516 415.574785 
L 613.552466 418.944413 
L 621.238417 423.758166 
L 628.924367 419.907163 
L 636.610318 427.127794 
L 644.296268 413.167908 
L 651.982218 416.537536 
L 659.668169 411.723782 
L 667.354119 416.05616 
L 675.04007 413.167908 
L 682.72602 413.167908 
L 690.411971 403.540401 
L 698.097921 398.245272 
L 705.783871 391.024642 
L 713.469822 386.692264 
L 721.155772 398.726648 
L 728.841723 400.652149 
L 736.527673 394.394269 
L 744.213623 394.394269 
L 751.899574 399.208023 
L 759.585524 400.652149 
L 767.271475 390.061891 
L 774.957425 389.09914 
L 782.643376 405.947278 
L 790.329326 401.6149 
L 798.015276 389.580516 
L 805.701227 378.990258 
L 813.387177 378.027507 
L 821.073128 365.993123 
L 828.759078 365.511748 
L 836.445028 364.548997 
L 844.130979 384.285387 
L 851.816929 396.801146 
L 859.50288 399.208023 
L 867.18883 408.83553 
L 874.87478 406.428653 
L 882.560731 408.83553 
L 890.246681 406.910029 
L 897.932632 407.872779 
L 905.618582 404.021777 
L 913.304533 420.869914 
L 920.990483 409.798281 
" clip-path="url(#pfba6a242a5)" style="fill: none; stroke: #a0da39; stroke-width: 1.5; stroke-linecap: round"/>
   </g>
   <g id="line2d_18">
    <path d="M 160.081392 360.216619 
L 167.767342 327.001719 
L 175.453293 279.826934 
L 183.139243 221.09914 
L 190.825194 175.368481 
L 198.511144 138.783954 
L 206.197095 113.27106 
L 213.883045 102.199427 
L 221.568995 77.649284 
L 229.254946 85.351289 
L 236.940896 71.391404 
L 244.626847 86.31404 
L 252.312797 93.53467 
L 259.998747 99.311175 
L 267.684698 115.196562 
L 275.370648 132.526074 
L 283.056599 139.26533 
L 290.742549 136.858453 
L 298.428499 151.299713 
L 306.11445 158.038968 
L 313.8004 168.629226 
L 321.486351 165.259599 
L 329.172301 194.14212 
L 336.858252 191.253868 
L 344.544202 216.285387 
L 352.230152 227.35702 
L 359.916103 256.239542 
L 367.602053 257.202292 
L 375.288004 264.422923 
L 382.973954 278.864183 
L 390.659904 271.643553 
L 398.345855 300.526074 
L 406.031805 312.560458 
L 413.717756 314.967335 
L 421.403706 317.855587 
L 429.089657 346.738109 
L 436.775607 344.331232 
L 444.461557 344.331232 
L 452.147508 340.480229 
L 459.833458 353.958739 
L 467.519409 361.660745 
L 475.205359 374.65788 
L 482.891309 374.65788 
L 490.57726 382.359885 
L 498.26321 375.139255 
L 505.949161 381.87851 
L 513.635111 388.13639 
L 521.321061 391.024642 
L 529.007012 379.953009 
L 536.692962 375.62063 
L 544.378913 380.915759 
L 552.064863 397.763897 
L 559.750814 408.83553 
L 567.436764 398.245272 
L 575.122714 410.761032 
L 582.808665 412.205158 
L 590.494615 417.018911 
L 598.180566 404.503152 
L 605.866516 411.723782 
L 613.552466 419.907163 
L 621.238417 426.165043 
L 628.924367 418.944413 
L 636.610318 423.758166 
L 644.296268 413.649284 
L 651.982218 424.720917 
L 659.668169 431.941547 
L 667.354119 440.606304 
L 675.04007 444.457307 
L 682.72602 459.379943 
L 690.411971 452.159312 
L 698.097921 443.975931 
L 705.783871 442.531805 
L 713.469822 453.122063 
L 721.155772 454.566189 
L 728.841723 454.566189 
L 736.527673 459.861318 
L 744.213623 448.308309 
L 751.899574 448.789685 
L 759.585524 442.531805 
L 767.271475 444.938682 
L 774.957425 443.975931 
L 782.643376 446.382808 
L 790.329326 455.52894 
L 798.015276 463.230946 
L 805.701227 468.044699 
L 813.387177 466.600573 
L 821.073128 491.632092 
L 828.759078 493.557593 
L 836.445028 505.110602 
L 844.130979 506.554728 
L 851.816929 505.110602 
L 859.50288 496.927221 
L 867.18883 494.038968 
L 874.87478 490.669341 
L 882.560731 481.523209 
L 890.246681 483.448711 
L 897.932632 475.746705 
L 905.618582 473.821203 
L 913.304533 475.746705 
L 920.990483 471.895702 
" clip-path="url(#pfba6a242a5)" style="fill: none; stroke: #46327e; stroke-width: 1.5; stroke-linecap: round"/>
   </g>
   <g id="line2d_19">
    <path d="M 160.081392 362.623496 
L 167.767342 331.815473 
L 175.453293 294.268195 
L 183.139243 240.354155 
L 190.825194 187.402865 
L 198.511144 147.448711 
L 206.197095 148.411461 
L 213.883045 135.414327 
L 221.568995 117.122063 
L 229.254946 123.861318 
L 236.940896 131.563324 
L 244.626847 146.004585 
L 252.312797 147.448711 
L 259.998747 153.70659 
L 267.684698 158.038968 
L 275.370648 152.262464 
L 283.056599 166.22235 
L 290.742549 191.735244 
L 298.428499 198.955874 
L 306.11445 208.102006 
L 313.8004 204.251003 
L 321.486351 191.253868 
L 329.172301 186.440115 
L 336.858252 167.1851 
L 344.544202 202.325501 
L 352.230152 225.431519 
L 359.916103 238.428653 
L 367.602053 261.53467 
L 375.288004 283.677937 
L 382.973954 284.640688 
L 390.659904 313.523209 
L 398.345855 327.483095 
L 406.031805 347.70086 
L 413.717756 342.887106 
L 421.403706 350.107736 
L 429.089657 344.812607 
L 436.775607 329.889971 
L 444.461557 356.846991 
L 452.147508 367.437249 
L 459.833458 373.213754 
L 467.519409 384.766762 
L 475.205359 390.543266 
L 482.891309 384.766762 
L 490.57726 379.953009 
L 498.26321 373.213754 
L 505.949161 378.508883 
L 513.635111 395.838395 
L 521.321061 419.425788 
L 529.007012 432.904298 
L 536.692962 422.795415 
L 544.378913 427.127794 
L 552.064863 425.683668 
L 559.750814 426.165043 
L 567.436764 427.609169 
L 575.122714 422.795415 
L 582.808665 433.867049 
L 590.494615 447.826934 
L 598.180566 465.637822 
L 605.866516 485.374212 
L 613.552466 486.336963 
L 621.238417 490.187966 
L 628.924367 492.594842 
L 636.610318 495.483095 
L 644.296268 500.296848 
L 651.982218 494.520344 
L 659.668169 496.927221 
L 667.354119 507.036103 
L 675.04007 497.408596 
L 682.72602 489.70659 
L 690.411971 481.523209 
L 698.097921 490.187966 
L 705.783871 495.483095 
L 713.469822 496.445845 
L 721.155772 482.48596 
L 728.841723 474.783954 
L 736.527673 476.22808 
L 744.213623 487.299713 
L 751.899574 493.557593 
L 759.585524 498.371347 
L 767.271475 504.629226 
L 774.957425 505.110602 
L 782.643376 500.778223 
L 790.329326 495.001719 
L 798.015276 488.262464 
L 805.701227 497.889971 
L 813.387177 505.110602 
L 821.073128 505.110602 
L 828.759078 499.815473 
L 836.445028 501.740974 
L 844.130979 497.408596 
L 851.816929 495.001719 
L 859.50288 491.632092 
L 867.18883 491.150716 
L 874.87478 488.74384 
L 882.560731 494.520344 
L 890.246681 495.483095 
L 897.932632 492.113467 
L 905.618582 490.669341 
L 913.304533 484.892837 
L 920.990483 483.930086 
" clip-path="url(#pfba6a242a5)" style="fill: none; stroke: #365c8d; stroke-width: 1.5; stroke-linecap: round"/>
   </g>
   <g id="line2d_20">
    <path d="M 160.081392 355.402865 
L 167.767342 322.669341 
L 175.453293 272.124928 
L 183.139243 215.804011 
L 190.825194 153.225215 
L 198.511144 123.379943 
L 206.197095 113.27106 
L 213.883045 112.308309 
L 221.568995 116.640688 
L 229.254946 93.053295 
L 236.940896 113.27106 
L 244.626847 111.826934 
L 252.312797 127.230946 
L 259.998747 156.594842 
L 267.684698 154.669341 
L 275.370648 134.451576 
L 283.056599 150.818338 
L 290.742549 148.892837 
L 298.428499 156.113467 
L 306.11445 153.70659 
L 313.8004 199.918625 
L 321.486351 212.915759 
L 329.172301 225.912894 
L 336.858252 224.950143 
L 344.544202 221.580516 
L 352.230152 258.165043 
L 359.916103 282.715186 
L 367.602053 277.901433 
L 375.288004 282.233811 
L 382.973954 277.901433 
L 390.659904 288.491691 
L 398.345855 300.526074 
L 406.031805 309.672206 
L 413.717756 328.927221 
L 421.403706 340.480229 
L 429.089657 337.110602 
L 436.775607 357.809742 
L 444.461557 350.107736 
L 452.147508 352.514613 
L 459.833458 366.955874 
L 467.519409 378.027507 
L 475.205359 385.248138 
L 482.891309 376.102006 
L 490.57726 389.09914 
L 498.26321 391.024642 
L 505.949161 390.061891 
L 513.635111 387.173639 
L 521.321061 380.434384 
L 529.007012 382.841261 
L 536.692962 398.726648 
L 544.378913 414.130659 
L 552.064863 413.649284 
L 559.750814 417.018911 
L 567.436764 426.165043 
L 575.122714 445.901433 
L 582.808665 463.712321 
L 590.494615 455.047564 
L 598.180566 458.417192 
L 605.866516 462.74957 
L 613.552466 468.526074 
L 621.238417 470.451576 
L 628.924367 472.377077 
L 636.610318 477.190831 
L 644.296268 482.48596 
L 651.982218 499.334097 
L 659.668169 500.296848 
L 667.354119 507.517479 
L 675.04007 501.740974 
L 682.72602 496.445845 
L 690.411971 493.076218 
L 698.097921 496.927221 
L 705.783871 505.591977 
L 713.469822 501.740974 
L 721.155772 495.483095 
L 728.841723 494.520344 
L 736.527673 502.22235 
L 744.213623 501.740974 
L 751.899574 505.110602 
L 759.585524 508.480229 
L 767.271475 509.44298 
L 774.957425 507.517479 
L 782.643376 506.073352 
L 790.329326 508.961605 
L 798.015276 505.110602 
L 805.701227 507.036103 
L 813.387177 512.812607 
L 821.073128 511.368481 
L 828.759078 506.073352 
L 836.445028 503.666476 
L 844.130979 508.480229 
L 851.816929 512.812607 
L 859.50288 507.036103 
L 867.18883 513.293983 
L 874.87478 509.924355 
L 882.560731 503.666476 
L 890.246681 502.22235 
L 897.932632 504.629226 
L 905.618582 505.110602 
L 913.304533 506.554728 
L 920.990483 508.480229 
" clip-path="url(#pfba6a242a5)" style="fill: none; stroke: #277f8e; stroke-width: 1.5; stroke-linecap: round"/>
   </g>
   <g id="line2d_21">
    <path d="M 160.081392 356.365616 
L 167.767342 322.187966 
L 175.453293 268.755301 
L 183.139243 208.102006 
L 190.825194 143.597708 
L 198.511144 118.084814 
L 206.197095 106.531805 
L 213.883045 111.345559 
L 221.568995 94.016046 
L 229.254946 83.907163 
L 236.940896 103.162178 
L 244.626847 120.010315 
L 252.312797 133.00745 
L 259.998747 142.634957 
L 267.684698 169.591977 
L 275.370648 169.591977 
L 283.056599 183.070487 
L 290.742549 174.405731 
L 298.428499 179.70086 
L 306.11445 173.924355 
L 313.8004 181.626361 
L 321.486351 200.4 
L 329.172301 204.732378 
L 336.858252 218.210888 
L 344.544202 225.431519 
L 352.230152 239.872779 
L 359.916103 251.907163 
L 367.602053 257.683668 
L 375.288004 262.978797 
L 382.973954 277.420057 
L 390.659904 301.488825 
L 398.345855 308.709456 
L 406.031805 329.408596 
L 413.717756 347.70086 
L 421.403706 344.812607 
L 429.089657 346.256734 
L 436.775607 359.735244 
L 444.461557 368.4 
L 452.147508 383.322636 
L 459.833458 389.580516 
L 467.519409 376.102006 
L 475.205359 366.955874 
L 482.891309 352.995989 
L 490.57726 371.769628 
L 498.26321 378.508883 
L 505.949161 399.208023 
L 513.635111 411.723782 
L 521.321061 393.431519 
L 529.007012 398.245272 
L 536.692962 394.875645 
L 544.378913 400.652149 
L 552.064863 414.130659 
L 559.750814 421.351289 
L 567.436764 417.500287 
L 575.122714 420.869914 
L 582.808665 409.798281 
L 590.494615 420.869914 
L 598.180566 419.907163 
L 605.866516 417.981662 
L 613.552466 413.167908 
L 621.238417 426.646418 
L 628.924367 442.05043 
L 636.610318 436.755301 
L 644.296268 436.755301 
L 651.982218 452.640688 
L 659.668169 447.826934 
L 667.354119 450.715186 
L 675.04007 456.973066 
L 682.72602 464.675072 
L 690.411971 462.268195 
L 698.097921 446.864183 
L 705.783871 450.233811 
L 713.469822 454.084814 
L 721.155772 456.973066 
L 728.841723 461.305444 
L 736.527673 463.230946 
L 744.213623 472.858453 
L 751.899574 473.339828 
L 759.585524 466.600573 
L 767.271475 461.786819 
L 774.957425 467.081948 
L 782.643376 467.081948 
L 790.329326 452.640688 
L 798.015276 433.867049 
L 805.701227 420.869914 
L 813.387177 421.351289 
L 821.073128 428.57192 
L 828.759078 436.755301 
L 836.445028 444.938682 
L 844.130979 460.824069 
L 851.816929 465.637822 
L 859.50288 467.563324 
L 867.18883 460.824069 
L 874.87478 456.973066 
L 882.560731 460.342693 
L 890.246681 460.824069 
L 897.932632 451.196562 
L 905.618582 453.603438 
L 913.304533 452.159312 
L 920.990483 452.640688 
" clip-path="url(#pfba6a242a5)" style="fill: none; stroke: #1fa187; stroke-width: 1.5; stroke-linecap: round"/>
   </g>
   <g id="patch_3">
    <path d="M 122.035938 561.6 
L 122.035938 7.2 
" style="fill: none; stroke: #ffffff; stroke-width: 1.25; stroke-linejoin: miter; stroke-linecap: square"/>
   </g>
   <g id="patch_4">
    <path d="M 959.035938 561.6 
L 959.035938 7.2 
" style="fill: none; stroke: #ffffff; stroke-width: 1.25; stroke-linejoin: miter; stroke-linecap: square"/>
   </g>
   <g id="patch_5">
    <path d="M 122.035938 561.6 
L 959.035938 561.6 
" style="fill: none; stroke: #ffffff; stroke-width: 1.25; stroke-linejoin: miter; stroke-linecap: square"/>
   </g>
   <g id="patch_6">
    <path d="M 122.035938 7.2 
L 959.035938 7.2 
" style="fill: none; stroke: #ffffff; stroke-width: 1.25; stroke-linejoin: miter; stroke-linecap: square"/>
   </g>
  </g>
 </g>
 <defs>
  <clipPath id="pfba6a242a5">
   <rect x="122.035938" y="7.2" width="837" height="554.4"/>
  </clipPath>
 </defs>
</svg>
